{"glyphs":{"0":{"ha":556,"x_min":46,"x_max":510,"o":"m 278 -14 q 106 50 165 -14 q 46 231 46 114 l 46 742 q 106 922 46 858 q 278 986 165 986 q 450 922 390 986 q 510 742 510 858 l 510 231 q 450 50 510 114 q 278 -14 390 -14 m 278 125 q 357 221 357 125 l 357 751 q 278 847 357 847 q 199 751 199 847 l 199 221 q 278 125 199 125 z "},"1":{"ha":556,"x_min":111,"x_max":424,"o":"m 271 742 l 111 742 l 111 850 q 216 861 176 850 q 279 898 256 872 q 321 972 303 924 l 424 972 l 424 0 l 271 0 l 271 742 z "},"2":{"ha":556,"x_min":54,"x_max":510,"o":"m 54 106 q 88 284 54 210 q 207 449 121 358 q 324 603 292 539 q 357 736 357 667 q 337 823 357 799 q 278 847 317 847 q 199 751 199 847 l 199 647 l 54 647 l 54 742 q 113 923 54 860 q 282 986 171 986 q 451 923 393 986 q 510 742 510 860 q 467 568 510 653 q 321 374 425 483 q 229 256 253 301 q 206 160 206 211 l 206 139 l 496 139 l 496 0 l 54 0 l 54 106 z "},"3":{"ha":556,"x_min":46,"x_max":501,"o":"m 274 -14 q 103 49 161 -14 q 46 228 46 111 l 46 307 l 190 307 l 190 221 q 269 125 190 125 q 328 149 308 125 q 349 235 349 174 l 349 314 q 325 409 349 381 q 249 438 301 438 l 197 438 l 197 576 l 253 576 q 322 600 299 576 q 344 679 344 624 l 344 750 q 324 824 344 800 q 268 847 303 847 q 194 757 194 847 l 194 693 l 50 693 l 50 744 q 108 924 50 861 q 274 986 165 986 q 440 924 383 986 q 497 746 497 863 l 497 711 q 471 584 497 632 q 389 515 444 536 l 389 513 q 475 440 449 490 q 501 313 501 390 l 501 226 q 444 48 501 110 q 274 -14 386 -14 z "},"4":{"ha":556,"x_min":21,"x_max":538,"o":"m 313 176 l 21 176 l 21 315 l 299 972 l 465 972 l 465 315 l 538 315 l 538 176 l 465 176 l 465 0 l 313 0 l 313 176 m 313 315 l 313 694 l 310 694 l 160 315 l 313 315 z "},"5":{"ha":556,"x_min":53,"x_max":508,"o":"m 281 -14 q 111 49 169 -14 q 53 231 53 113 l 53 307 l 197 307 l 197 219 q 276 125 197 125 q 356 219 356 125 l 356 438 q 276 533 356 533 q 197 438 197 533 l 197 429 l 53 429 l 81 972 l 483 972 l 483 833 l 217 833 l 204 601 l 207 601 q 339 672 250 672 q 465 615 422 672 q 508 450 508 558 l 508 231 q 450 49 508 113 q 281 -14 392 -14 z "},"6":{"ha":556,"x_min":50,"x_max":514,"o":"m 282 -14 q 110 50 169 -14 q 50 231 50 114 l 50 733 q 283 986 50 986 q 453 923 394 986 q 511 742 511 860 l 511 724 l 367 724 l 367 751 q 288 847 367 847 q 224 821 244 847 q 203 728 203 794 l 203 542 l 206 542 q 344 626 246 626 q 471 569 428 626 q 514 404 514 513 l 514 231 q 454 50 514 114 q 282 -14 394 -14 m 282 125 q 361 219 361 125 l 361 392 q 282 488 361 488 q 203 392 203 488 l 203 219 q 282 125 203 125 z "},"7":{"ha":556,"x_min":47,"x_max":506,"o":"m 356 833 l 47 833 l 47 972 l 506 972 l 506 839 l 267 0 l 111 0 l 356 833 z "},"8":{"ha":556,"x_min":39,"x_max":517,"o":"m 278 -14 q 101 48 163 -14 q 39 226 39 110 l 39 313 q 63 434 39 385 q 139 511 86 483 l 139 514 q 67 587 90 540 q 44 706 44 633 l 44 746 q 105 924 44 863 q 278 986 165 986 q 451 924 390 986 q 511 746 511 863 l 511 706 q 417 514 511 567 l 417 511 q 493 434 469 483 q 517 313 517 385 l 517 226 q 455 48 517 110 q 278 -14 393 -14 m 278 576 q 358 674 358 576 l 358 750 q 278 847 358 847 q 197 750 197 847 l 197 674 q 278 576 197 576 m 278 125 q 364 235 364 125 l 364 328 q 278 438 364 438 q 192 328 192 438 l 192 235 q 278 125 192 125 z "},"9":{"ha":556,"x_min":42,"x_max":506,"o":"m 272 -14 q 103 49 161 -14 q 44 231 44 113 l 44 249 l 189 249 l 189 221 q 268 125 189 125 q 332 151 311 125 q 353 244 353 178 l 353 431 l 350 431 q 211 346 310 346 q 85 403 128 346 q 42 568 42 460 l 42 742 q 101 922 42 858 q 274 986 161 986 q 446 922 386 986 q 506 742 506 858 l 506 239 q 272 -14 506 -14 m 274 485 q 353 581 353 485 l 353 753 q 274 847 353 847 q 194 753 194 847 l 194 581 q 274 485 194 485 z "},"\r":{"ha":222,"x_min":0,"x_max":0,"o":""}," ":{"ha":222,"x_min":0,"x_max":0,"o":""},"A":{"ha":557,"x_min":17,"x_max":540,"o":"m 175 972 l 382 972 l 540 0 l 388 0 l 360 193 l 360 190 l 186 190 l 158 0 l 17 0 l 175 972 m 342 322 l 274 803 l 271 803 l 204 322 l 342 322 z "},"Á":{"ha":557,"x_min":17,"x_max":540,"o":"m 175 972 l 382 972 l 540 0 l 388 0 l 360 193 l 360 190 l 186 190 l 158 0 l 17 0 l 175 972 m 342 322 l 274 803 l 271 803 l 204 322 l 342 322 m 293 1197 l 460 1197 l 311 1038 l 196 1038 l 293 1197 z "},"Ă":{"ha":557,"x_min":17,"x_max":540,"o":"m 175 972 l 382 972 l 540 0 l 388 0 l 360 193 l 360 190 l 186 190 l 158 0 l 17 0 l 175 972 m 342 322 l 274 803 l 271 803 l 204 322 l 342 322 m 278 1032 q 160 1075 201 1032 q 115 1197 118 1118 l 206 1197 q 228 1145 211 1160 q 278 1131 246 1131 q 329 1145 311 1131 q 353 1197 347 1160 l 443 1197 q 398 1076 440 1119 q 278 1032 356 1032 z "},"Â":{"ha":557,"x_min":17,"x_max":540,"o":"m 175 972 l 382 972 l 540 0 l 388 0 l 360 193 l 360 190 l 186 190 l 158 0 l 17 0 l 175 972 m 342 322 l 274 803 l 271 803 l 204 322 l 342 322 m 207 1197 l 351 1197 l 465 1038 l 350 1038 l 279 1114 l 208 1038 l 93 1038 l 207 1197 z "},"Ä":{"ha":557,"x_min":17,"x_max":540,"o":"m 175 972 l 382 972 l 540 0 l 388 0 l 360 193 l 360 190 l 186 190 l 158 0 l 17 0 l 175 972 m 342 322 l 274 803 l 271 803 l 204 322 l 342 322 m 104 1179 l 240 1179 l 240 1038 l 104 1038 l 104 1179 m 318 1179 l 454 1179 l 454 1038 l 318 1038 l 318 1179 z "},"À":{"ha":557,"x_min":17,"x_max":540,"o":"m 175 972 l 382 972 l 540 0 l 388 0 l 360 193 l 360 190 l 186 190 l 158 0 l 17 0 l 175 972 m 342 322 l 274 803 l 271 803 l 204 322 l 342 322 m 99 1197 l 265 1197 l 363 1038 l 247 1038 l 99 1197 z "},"Ā":{"ha":557,"x_min":17,"x_max":540,"o":"m 175 972 l 382 972 l 540 0 l 388 0 l 360 193 l 360 190 l 186 190 l 158 0 l 17 0 l 175 972 m 342 322 l 274 803 l 271 803 l 204 322 l 342 322 m 119 1158 l 439 1158 l 439 1050 l 119 1050 l 119 1158 z "},"Ą":{"ha":557,"x_min":17,"x_max":540,"o":"m 442 -81 q 456 -109 442 -99 q 490 -119 469 -119 q 524 -116 513 -119 q 540 -111 536 -112 l 540 -189 q 497 -201 517 -199 q 446 -204 476 -204 q 356 -182 389 -204 q 324 -118 324 -160 q 418 0 324 -47 l 388 0 l 360 193 l 360 190 l 186 190 l 158 0 l 17 0 l 175 972 l 382 972 l 540 0 l 483 0 q 442 -81 442 -35 m 342 322 l 274 803 l 271 803 l 204 322 l 342 322 z "},"Å":{"ha":557,"x_min":17,"x_max":540,"o":"m 175 972 l 382 972 l 540 0 l 388 0 l 360 193 l 360 190 l 186 190 l 158 0 l 17 0 l 175 972 m 342 322 l 274 803 l 271 803 l 204 322 l 342 322 m 279 1022 q 191 1058 226 1022 q 156 1144 156 1093 q 191 1231 156 1196 q 279 1267 226 1267 q 367 1231 332 1267 q 403 1144 403 1196 q 367 1058 403 1093 q 279 1022 332 1022 m 279 1096 q 311 1109 299 1096 q 324 1144 324 1122 q 311 1180 324 1167 q 279 1193 299 1193 q 247 1180 260 1193 q 235 1144 235 1167 q 247 1109 235 1122 q 279 1096 260 1096 z "},"Ã":{"ha":557,"x_min":17,"x_max":540,"o":"m 175 972 l 382 972 l 540 0 l 388 0 l 360 193 l 360 190 l 186 190 l 158 0 l 17 0 l 175 972 m 342 322 l 274 803 l 271 803 l 204 322 l 342 322 m 86 1076 q 143 1165 113 1136 q 213 1193 174 1193 q 256 1186 238 1193 q 296 1167 275 1179 q 320 1154 308 1160 q 343 1149 332 1149 q 372 1161 360 1149 q 399 1203 385 1174 l 472 1158 q 415 1070 446 1099 q 346 1042 385 1042 q 302 1049 321 1042 q 263 1068 283 1056 q 238 1081 250 1075 q 215 1086 226 1086 q 186 1074 199 1086 q 160 1032 174 1061 l 86 1076 z "},"Æ":{"ha":806,"x_min":14,"x_max":775,"o":"m 274 972 l 775 972 l 775 833 l 511 833 l 511 576 l 721 576 l 721 438 l 511 438 l 511 139 l 775 139 l 775 0 l 358 0 l 358 190 l 208 190 l 160 0 l 14 0 l 274 972 m 358 322 l 358 785 l 356 785 l 242 322 l 358 322 z "},"Ǽ":{"ha":806,"x_min":14,"x_max":775,"o":"m 274 972 l 775 972 l 775 833 l 511 833 l 511 576 l 721 576 l 721 438 l 511 438 l 511 139 l 775 139 l 775 0 l 358 0 l 358 190 l 208 190 l 160 0 l 14 0 l 274 972 m 358 322 l 358 785 l 356 785 l 242 322 l 358 322 m 414 1197 l 581 1197 l 432 1038 l 317 1038 l 414 1197 z "},"B":{"ha":561,"x_min":57,"x_max":529,"o":"m 57 972 l 288 972 q 460 917 406 972 q 514 749 514 863 l 514 710 q 490 588 514 635 q 415 519 465 540 l 415 517 q 529 314 529 478 l 529 231 q 470 59 529 118 q 297 0 411 0 l 57 0 l 57 972 m 269 576 q 338 600 315 576 q 361 679 361 624 l 361 733 q 342 810 361 786 q 283 833 324 833 l 210 833 l 210 576 l 269 576 m 297 139 q 357 160 338 139 q 376 235 376 182 l 376 319 q 353 412 376 386 q 278 438 331 438 l 210 438 l 210 139 l 297 139 z "},"Ḃ":{"ha":561,"x_min":57,"x_max":529,"o":"m 57 972 l 288 972 q 460 917 406 972 q 514 749 514 863 l 514 710 q 490 588 514 635 q 415 519 465 540 l 415 517 q 529 314 529 478 l 529 231 q 470 59 529 118 q 297 0 411 0 l 57 0 l 57 972 m 269 576 q 338 600 315 576 q 361 679 361 624 l 361 733 q 342 810 361 786 q 283 833 324 833 l 210 833 l 210 576 l 269 576 m 297 139 q 357 160 338 139 q 376 235 376 182 l 376 319 q 353 412 376 386 q 278 438 331 438 l 210 438 l 210 139 l 297 139 m 196 1179 l 335 1179 l 335 1038 l 196 1038 l 196 1179 z "},"C":{"ha":532,"x_min":47,"x_max":497,"o":"m 272 -14 q 105 49 163 -14 q 47 225 47 111 l 47 747 q 105 924 47 861 q 272 986 163 986 q 440 924 382 986 q 497 747 497 861 l 497 644 l 353 644 l 353 757 q 276 847 353 847 q 200 757 200 847 l 200 214 q 276 125 200 125 q 353 214 353 125 l 353 363 l 497 363 l 497 225 q 440 49 497 111 q 272 -14 382 -14 z "},"Ć":{"ha":532,"x_min":47,"x_max":497,"o":"m 272 -14 q 105 49 163 -14 q 47 225 47 111 l 47 747 q 105 924 47 861 q 272 986 163 986 q 440 924 382 986 q 497 747 497 861 l 497 644 l 353 644 l 353 757 q 276 847 353 847 q 200 757 200 847 l 200 214 q 276 125 200 125 q 353 214 353 125 l 353 363 l 497 363 l 497 225 q 440 49 497 111 q 272 -14 382 -14 m 282 1197 l 449 1197 l 300 1038 l 185 1038 l 282 1197 z "},"Č":{"ha":532,"x_min":47,"x_max":497,"o":"m 272 -14 q 105 49 163 -14 q 47 225 47 111 l 47 747 q 105 924 47 861 q 272 986 163 986 q 440 924 382 986 q 497 747 497 861 l 497 644 l 353 644 l 353 757 q 276 847 353 847 q 200 757 200 847 l 200 214 q 276 125 200 125 q 353 214 353 125 l 353 363 l 497 363 l 497 225 q 440 49 497 111 q 272 -14 382 -14 m 82 1197 l 197 1197 l 268 1121 l 339 1197 l 454 1197 l 340 1038 l 196 1038 l 82 1197 z "},"Ç":{"ha":532,"x_min":47,"x_max":497,"o":"m 353 644 l 353 757 q 276 847 353 847 q 200 757 200 847 l 200 214 q 276 125 200 125 q 353 214 353 125 l 353 363 l 497 363 l 497 225 q 449 59 497 121 q 308 -12 400 -3 l 308 -54 q 380 -69 356 -54 q 404 -119 404 -85 q 369 -187 404 -171 q 263 -204 335 -204 q 164 -186 199 -204 q 129 -124 129 -168 l 129 -110 l 232 -110 l 232 -121 q 241 -142 232 -135 q 263 -149 250 -149 q 290 -141 282 -149 q 299 -115 299 -133 q 286 -87 299 -96 q 247 -79 274 -79 l 240 -79 l 240 -12 q 97 58 146 -3 q 47 225 47 119 l 47 747 q 105 924 47 861 q 272 986 163 986 q 440 924 382 986 q 497 747 497 861 l 497 644 l 353 644 z "},"Ĉ":{"ha":532,"x_min":47,"x_max":497,"o":"m 272 -14 q 105 49 163 -14 q 47 225 47 111 l 47 747 q 105 924 47 861 q 272 986 163 986 q 440 924 382 986 q 497 747 497 861 l 497 644 l 353 644 l 353 757 q 276 847 353 847 q 200 757 200 847 l 200 214 q 276 125 200 125 q 353 214 353 125 l 353 363 l 497 363 l 497 225 q 440 49 497 111 q 272 -14 382 -14 m 196 1197 l 340 1197 l 454 1038 l 339 1038 l 268 1114 l 197 1038 l 82 1038 l 196 1197 z "},"Ċ":{"ha":532,"x_min":47,"x_max":497,"o":"m 272 -14 q 105 49 163 -14 q 47 225 47 111 l 47 747 q 105 924 47 861 q 272 986 163 986 q 440 924 382 986 q 497 747 497 861 l 497 644 l 353 644 l 353 757 q 276 847 353 847 q 200 757 200 847 l 200 214 q 276 125 200 125 q 353 214 353 125 l 353 363 l 497 363 l 497 225 q 440 49 497 111 q 272 -14 382 -14 m 199 1179 l 338 1179 l 338 1038 l 199 1038 l 199 1179 z "},"D":{"ha":564,"x_min":57,"x_max":518,"o":"m 57 972 l 290 972 q 461 911 404 972 q 518 732 518 850 l 518 240 q 461 61 518 122 q 290 0 404 0 l 57 0 l 57 972 m 288 139 q 345 161 325 139 q 365 233 365 183 l 365 739 q 345 811 365 789 q 288 833 325 833 l 210 833 l 210 139 l 288 139 z "},"Ð":{"ha":588,"x_min":14,"x_max":542,"o":"m 314 972 q 485 911 428 972 q 542 732 542 850 l 542 240 q 485 61 542 122 q 314 0 428 0 l 81 0 l 81 442 l 14 442 l 14 572 l 81 572 l 81 972 l 314 972 m 389 739 q 369 811 389 789 q 311 833 349 833 l 233 833 l 233 572 l 311 572 l 311 442 l 233 442 l 233 139 l 311 139 q 369 161 349 139 q 389 233 389 183 l 389 739 z "},"Ď":{"ha":564,"x_min":57,"x_max":518,"o":"m 57 972 l 290 972 q 461 911 404 972 q 518 732 518 850 l 518 240 q 461 61 518 122 q 290 0 404 0 l 57 0 l 57 972 m 288 139 q 345 161 325 139 q 365 233 365 183 l 365 739 q 345 811 365 789 q 288 833 325 833 l 210 833 l 210 139 l 288 139 m 85 1197 l 200 1197 l 271 1121 l 342 1197 l 457 1197 l 343 1038 l 199 1038 l 85 1197 z "},"Đ":{"ha":588,"x_min":14,"x_max":542,"o":"m 314 972 q 485 911 428 972 q 542 732 542 850 l 542 240 q 485 61 542 122 q 314 0 428 0 l 81 0 l 81 442 l 14 442 l 14 572 l 81 572 l 81 972 l 314 972 m 389 739 q 369 811 389 789 q 311 833 349 833 l 233 833 l 233 572 l 311 572 l 311 442 l 233 442 l 233 139 l 311 139 q 369 161 349 139 q 389 233 389 183 l 389 739 z "},"Ḋ":{"ha":564,"x_min":57,"x_max":518,"o":"m 57 972 l 290 972 q 461 911 404 972 q 518 732 518 850 l 518 240 q 461 61 518 122 q 290 0 404 0 l 57 0 l 57 972 m 288 139 q 345 161 325 139 q 365 233 365 183 l 365 739 q 345 811 365 789 q 288 833 325 833 l 210 833 l 210 139 l 288 139 m 201 1179 l 340 1179 l 340 1038 l 201 1038 l 201 1179 z "},"E":{"ha":504,"x_min":57,"x_max":474,"o":"m 57 972 l 474 972 l 474 833 l 210 833 l 210 576 l 419 576 l 419 438 l 210 438 l 210 139 l 474 139 l 474 0 l 57 0 l 57 972 z "},"É":{"ha":504,"x_min":57,"x_max":474,"o":"m 57 972 l 474 972 l 474 833 l 210 833 l 210 576 l 419 576 l 419 438 l 210 438 l 210 139 l 474 139 l 474 0 l 57 0 l 57 972 z "},"Ĕ":{"ha":504,"x_min":57,"x_max":474,"o":"m 57 972 l 474 972 l 474 833 l 210 833 l 210 576 l 419 576 l 419 438 l 210 438 l 210 139 l 474 139 l 474 0 l 57 0 l 57 972 m 264 1032 q 146 1075 188 1032 q 101 1197 104 1118 l 192 1197 q 215 1145 197 1160 q 264 1131 232 1131 q 315 1145 297 1131 q 339 1197 333 1160 l 429 1197 q 384 1076 426 1119 q 264 1032 342 1032 z "},"Ě":{"ha":504,"x_min":57,"x_max":474,"o":"m 57 972 l 474 972 l 474 833 l 210 833 l 210 576 l 419 576 l 419 438 l 210 438 l 210 139 l 474 139 l 474 0 l 57 0 l 57 972 m 79 1197 l 194 1197 l 265 1121 l 336 1197 l 451 1197 l 338 1038 l 193 1038 l 79 1197 z "},"Ê":{"ha":504,"x_min":57,"x_max":474,"o":"m 57 972 l 474 972 l 474 833 l 210 833 l 210 576 l 419 576 l 419 438 l 210 438 l 210 139 l 474 139 l 474 0 l 57 0 l 57 972 m 193 1197 l 338 1197 l 451 1038 l 336 1038 l 265 1114 l 194 1038 l 79 1038 l 193 1197 z "},"Ë":{"ha":504,"x_min":57,"x_max":474,"o":"m 57 972 l 474 972 l 474 833 l 210 833 l 210 576 l 419 576 l 419 438 l 210 438 l 210 139 l 474 139 l 474 0 l 57 0 l 57 972 m 90 1179 l 226 1179 l 226 1038 l 90 1038 l 90 1179 m 304 1179 l 440 1179 l 440 1038 l 304 1038 l 304 1179 z "},"Ė":{"ha":504,"x_min":57,"x_max":474,"o":"m 57 972 l 474 972 l 474 833 l 210 833 l 210 576 l 419 576 l 419 438 l 210 438 l 210 139 l 474 139 l 474 0 l 57 0 l 57 972 m 196 1179 l 335 1179 l 335 1038 l 196 1038 l 196 1179 z "},"È":{"ha":504,"x_min":57,"x_max":474,"o":"m 57 972 l 474 972 l 474 833 l 210 833 l 210 576 l 419 576 l 419 438 l 210 438 l 210 139 l 474 139 l 474 0 l 57 0 l 57 972 m 85 1197 l 251 1197 l 349 1038 l 233 1038 l 85 1197 z "},"Ē":{"ha":504,"x_min":57,"x_max":474,"o":"m 57 972 l 474 972 l 474 833 l 210 833 l 210 576 l 419 576 l 419 438 l 210 438 l 210 139 l 474 139 l 474 0 l 57 0 l 57 972 m 106 1158 l 425 1158 l 425 1050 l 106 1050 l 106 1158 z "},"Ę":{"ha":504,"x_min":57,"x_max":474,"o":"m 210 833 l 210 576 l 419 576 l 419 438 l 210 438 l 210 139 l 474 139 l 474 0 l 417 0 q 375 -81 375 -35 q 389 -109 375 -99 q 424 -119 403 -119 q 458 -116 446 -119 q 474 -111 469 -112 l 474 -189 q 430 -201 450 -199 q 379 -204 410 -204 q 290 -182 322 -204 q 257 -118 257 -160 q 351 0 257 -47 l 57 0 l 57 972 l 474 972 l 474 833 l 210 833 z "},"F":{"ha":478,"x_min":57,"x_max":461,"o":"m 57 972 l 461 972 l 461 833 l 210 833 l 210 563 l 407 563 l 407 424 l 210 424 l 210 0 l 57 0 l 57 972 z "},"Ḟ":{"ha":478,"x_min":57,"x_max":461,"o":"m 57 972 l 461 972 l 461 833 l 210 833 l 210 563 l 407 563 l 407 424 l 210 424 l 210 0 l 57 0 l 57 972 m 185 1179 l 324 1179 l 324 1038 l 185 1038 l 185 1179 z "},"G":{"ha":543,"x_min":46,"x_max":501,"o":"m 274 -14 q 104 49 163 -14 q 46 231 46 113 l 46 742 q 104 923 46 860 q 274 986 163 986 q 443 923 385 986 q 501 742 501 860 l 501 658 l 357 658 l 357 751 q 278 847 357 847 q 199 751 199 847 l 199 219 q 278 125 199 125 q 357 219 357 125 l 357 410 l 281 410 l 281 549 l 501 549 l 501 231 q 443 49 501 113 q 274 -14 385 -14 z "},"Ğ":{"ha":543,"x_min":46,"x_max":501,"o":"m 274 -14 q 104 49 163 -14 q 46 231 46 113 l 46 742 q 104 923 46 860 q 274 986 163 986 q 443 923 385 986 q 501 742 501 860 l 501 658 l 357 658 l 357 751 q 278 847 357 847 q 199 751 199 847 l 199 219 q 278 125 199 125 q 357 219 357 125 l 357 410 l 281 410 l 281 549 l 501 549 l 501 231 q 443 49 501 113 q 274 -14 385 -14 m 272 1032 q 154 1075 196 1032 q 110 1197 113 1118 l 200 1197 q 223 1145 206 1160 q 272 1131 240 1131 q 324 1145 306 1131 q 347 1197 342 1160 l 438 1197 q 392 1076 435 1119 q 272 1032 350 1032 z "},"Ĝ":{"ha":543,"x_min":46,"x_max":501,"o":"m 274 -14 q 104 49 163 -14 q 46 231 46 113 l 46 742 q 104 923 46 860 q 274 986 163 986 q 443 923 385 986 q 501 742 501 860 l 501 658 l 357 658 l 357 751 q 278 847 357 847 q 199 751 199 847 l 199 219 q 278 125 199 125 q 357 219 357 125 l 357 410 l 281 410 l 281 549 l 501 549 l 501 231 q 443 49 501 113 q 274 -14 385 -14 m 201 1197 l 346 1197 l 460 1038 l 344 1038 l 274 1114 l 203 1038 l 88 1038 l 201 1197 z "},"Ģ":{"ha":543,"x_min":46,"x_max":501,"o":"m 274 -14 q 104 49 163 -14 q 46 231 46 113 l 46 742 q 104 923 46 860 q 274 986 163 986 q 443 923 385 986 q 501 742 501 860 l 501 658 l 357 658 l 357 751 q 278 847 357 847 q 199 751 199 847 l 199 219 q 278 125 199 125 q 357 219 357 125 l 357 410 l 281 410 l 281 549 l 501 549 l 501 231 q 443 49 501 113 q 274 -14 385 -14 m 258 -187 l 208 -187 l 208 -60 l 336 -60 l 336 -174 l 276 -262 l 222 -262 l 258 -187 z "},"Ġ":{"ha":543,"x_min":46,"x_max":501,"o":"m 274 -14 q 104 49 163 -14 q 46 231 46 113 l 46 742 q 104 923 46 860 q 274 986 163 986 q 443 923 385 986 q 501 742 501 860 l 501 658 l 357 658 l 357 751 q 278 847 357 847 q 199 751 199 847 l 199 219 q 278 125 199 125 q 357 219 357 125 l 357 410 l 281 410 l 281 549 l 501 549 l 501 231 q 443 49 501 113 q 274 -14 385 -14 m 204 1179 l 343 1179 l 343 1038 l 204 1038 l 204 1179 z "},"H":{"ha":583,"x_min":57,"x_max":526,"o":"m 57 972 l 210 972 l 210 576 l 374 576 l 374 972 l 526 972 l 526 0 l 374 0 l 374 438 l 210 438 l 210 0 l 57 0 l 57 972 z "},"Ħ":{"ha":608,"x_min":14,"x_max":594,"o":"m 594 713 l 539 713 l 539 0 l 386 0 l 386 438 l 222 438 l 222 0 l 69 0 l 69 713 l 14 713 l 14 838 l 69 838 l 69 972 l 222 972 l 222 838 l 386 838 l 386 972 l 539 972 l 539 838 l 594 838 l 594 713 m 386 713 l 222 713 l 222 576 l 386 576 l 386 713 z "},"Ĥ":{"ha":583,"x_min":57,"x_max":526,"o":"m 57 972 l 210 972 l 210 576 l 374 576 l 374 972 l 526 972 l 526 0 l 374 0 l 374 438 l 210 438 l 210 0 l 57 0 l 57 972 m 219 1197 l 364 1197 l 478 1038 l 363 1038 l 292 1114 l 221 1038 l 106 1038 l 219 1197 z "},"I":{"ha":267,"x_min":57,"x_max":210,"o":"m 57 972 l 210 972 l 210 0 l 57 0 l 57 972 z "},"Ĳ":{"ha":635,"x_min":57,"x_max":582,"o":"m 57 972 l 210 972 l 210 0 l 57 0 l 57 972 m 360 -6 q 289 0 318 -6 l 289 139 q 339 133 311 133 q 407 156 385 133 q 429 226 429 179 l 429 972 l 582 972 l 582 231 q 527 53 582 111 q 360 -6 472 -6 z "},"Í":{"ha":267,"x_min":50,"x_max":314,"o":"m 57 972 l 210 972 l 210 0 l 57 0 l 57 972 m 147 1197 l 314 1197 l 165 1038 l 50 1038 l 147 1197 z "},"Ĭ":{"ha":267,"x_min":-31,"x_max":297,"o":"m 57 972 l 210 972 l 210 0 l 57 0 l 57 972 m 132 1032 q 14 1075 56 1032 q -31 1197 -28 1118 l 60 1197 q 83 1145 65 1160 q 132 1131 100 1131 q 183 1145 165 1131 q 207 1197 201 1160 l 297 1197 q 252 1076 294 1119 q 132 1032 210 1032 z "},"Î":{"ha":267,"x_min":-53,"x_max":319,"o":"m 57 972 l 210 972 l 210 0 l 57 0 l 57 972 m 61 1197 l 206 1197 l 319 1038 l 204 1038 l 133 1114 l 63 1038 l -53 1038 l 61 1197 z "},"Ï":{"ha":267,"x_min":-42,"x_max":308,"o":"m 57 972 l 210 972 l 210 0 l 57 0 l 57 972 m -42 1179 l 94 1179 l 94 1038 l -42 1038 l -42 1179 m 172 1179 l 308 1179 l 308 1038 l 172 1038 l 172 1179 z "},"İ":{"ha":267,"x_min":57,"x_max":210,"o":"m 57 972 l 210 972 l 210 0 l 57 0 l 57 972 m 64 1179 l 203 1179 l 203 1038 l 64 1038 l 64 1179 z "},"Ì":{"ha":267,"x_min":-47,"x_max":217,"o":"m 57 972 l 210 972 l 210 0 l 57 0 l 57 972 m -47 1197 l 119 1197 l 217 1038 l 101 1038 l -47 1197 z "},"Ī":{"ha":267,"x_min":-26,"x_max":293,"o":"m 57 972 l 210 972 l 210 0 l 57 0 l 57 972 m -26 1158 l 293 1158 l 293 1050 l -26 1050 l -26 1158 z "},"Į":{"ha":267,"x_min":24,"x_max":240,"o":"m 190 -119 q 224 -116 213 -119 q 240 -111 236 -112 l 240 -189 q 197 -201 217 -199 q 146 -204 176 -204 q 56 -182 89 -204 q 24 -118 24 -160 q 118 0 24 -47 l 57 0 l 57 972 l 210 972 l 210 0 l 183 0 q 142 -81 142 -35 q 156 -109 142 -99 q 190 -119 169 -119 z "},"Ĩ":{"ha":267,"x_min":-60,"x_max":326,"o":"m 57 972 l 210 972 l 210 0 l 57 0 l 57 972 m -60 1076 q -3 1165 -33 1136 q 67 1193 28 1193 q 110 1186 92 1193 q 150 1167 129 1179 q 174 1154 163 1160 q 197 1149 186 1149 q 226 1161 214 1149 q 253 1203 239 1174 l 326 1158 q 269 1070 300 1099 q 200 1042 239 1042 q 156 1049 175 1042 q 117 1068 138 1056 q 92 1081 104 1075 q 69 1086 81 1086 q 40 1074 53 1086 q 14 1032 28 1061 l -60 1076 z "},"J":{"ha":368,"x_min":22,"x_max":315,"o":"m 93 -6 q 22 0 51 -6 l 22 139 q 72 133 44 133 q 140 156 118 133 q 163 226 163 179 l 163 972 l 315 972 l 315 231 q 260 53 315 111 q 93 -6 206 -6 z "},"Ĵ":{"ha":368,"x_min":22,"x_max":404,"o":"m 93 -6 q 22 0 51 -6 l 22 139 q 72 133 44 133 q 140 156 118 133 q 163 226 163 179 l 163 972 l 315 972 l 315 231 q 260 53 315 111 q 93 -6 206 -6 m 146 1197 l 290 1197 l 404 1038 l 289 1038 l 218 1114 l 147 1038 l 32 1038 l 146 1197 z "},"K":{"ha":575,"x_min":57,"x_max":560,"o":"m 57 972 l 210 972 l 210 563 l 404 972 l 557 972 l 375 615 l 560 0 l 400 0 l 271 433 l 210 310 l 210 0 l 57 0 l 57 972 z "},"Ķ":{"ha":575,"x_min":57,"x_max":560,"o":"m 57 972 l 210 972 l 210 563 l 404 972 l 557 972 l 375 615 l 560 0 l 400 0 l 271 433 l 210 310 l 210 0 l 57 0 l 57 972 m 288 -187 l 238 -187 l 238 -60 l 365 -60 l 365 -174 l 306 -262 l 251 -262 l 288 -187 z "},"L":{"ha":478,"x_min":57,"x_max":461,"o":"m 57 972 l 210 972 l 210 139 l 461 139 l 461 0 l 57 0 l 57 972 z "},"Ĺ":{"ha":478,"x_min":57,"x_max":461,"o":"m 57 972 l 210 972 l 210 139 l 461 139 l 461 0 l 57 0 l 57 972 m 161 1197 l 328 1197 l 179 1038 l 64 1038 l 161 1197 z "},"Ľ":{"ha":478,"x_min":57,"x_max":461,"o":"m 57 972 l 210 972 l 210 139 l 461 139 l 461 0 l 57 0 l 57 972 m 346 831 l 290 831 l 290 972 l 432 972 l 432 846 l 368 686 l 306 686 l 346 831 z "},"Ļ":{"ha":478,"x_min":57,"x_max":461,"o":"m 57 972 l 210 972 l 210 139 l 461 139 l 461 0 l 57 0 l 57 972 m 246 -187 l 196 -187 l 196 -60 l 324 -60 l 324 -174 l 264 -262 l 210 -262 l 246 -187 z "},"Ŀ":{"ha":476,"x_min":57,"x_max":461,"o":"m 57 972 l 210 972 l 210 139 l 461 139 l 461 0 l 57 0 l 57 972 m 297 560 l 444 560 l 444 413 l 297 413 l 297 560 z "},"Ł":{"ha":506,"x_min":14,"x_max":489,"o":"m 489 139 l 489 0 l 85 0 l 85 222 l 14 146 l 14 313 l 85 389 l 85 972 l 238 972 l 238 553 l 403 729 l 403 563 l 238 386 l 238 139 l 489 139 z "},"M":{"ha":747,"x_min":57,"x_max":690,"o":"m 57 972 l 275 972 l 372 276 l 375 276 l 472 972 l 690 972 l 690 0 l 546 0 l 546 736 l 543 736 l 432 0 l 304 0 l 193 736 l 190 736 l 190 0 l 57 0 l 57 972 z "},"Ṁ":{"ha":747,"x_min":57,"x_max":690,"o":"m 57 972 l 275 972 l 372 276 l 375 276 l 472 972 l 690 972 l 690 0 l 546 0 l 546 736 l 543 736 l 432 0 l 304 0 l 193 736 l 190 736 l 190 0 l 57 0 l 57 972 m 304 1179 l 443 1179 l 443 1038 l 304 1038 l 304 1179 z "},"N":{"ha":593,"x_min":57,"x_max":536,"o":"m 57 972 l 249 972 l 397 390 l 400 390 l 400 972 l 536 972 l 536 0 l 379 0 l 196 710 l 193 710 l 193 0 l 57 0 l 57 972 z "},"Ń":{"ha":593,"x_min":57,"x_max":536,"o":"m 57 972 l 249 972 l 397 390 l 400 390 l 400 972 l 536 972 l 536 0 l 379 0 l 196 710 l 193 710 l 193 0 l 57 0 l 57 972 m 311 1197 l 478 1197 l 329 1038 l 214 1038 l 311 1197 z "},"Ň":{"ha":593,"x_min":57,"x_max":536,"o":"m 57 972 l 249 972 l 397 390 l 400 390 l 400 972 l 536 972 l 536 0 l 379 0 l 196 710 l 193 710 l 193 0 l 57 0 l 57 972 m 111 1197 l 226 1197 l 297 1121 l 368 1197 l 483 1197 l 369 1038 l 225 1038 l 111 1197 z "},"Ņ":{"ha":593,"x_min":57,"x_max":536,"o":"m 57 972 l 249 972 l 397 390 l 400 390 l 400 972 l 536 972 l 536 0 l 379 0 l 196 710 l 193 710 l 193 0 l 57 0 l 57 972 m 283 -187 l 233 -187 l 233 -60 l 361 -60 l 361 -174 l 301 -262 l 247 -262 l 283 -187 z "},"Ŋ":{"ha":593,"x_min":57,"x_max":536,"o":"m 331 -236 q 263 -231 292 -236 l 263 -99 q 317 -104 285 -104 q 368 -85 347 -104 q 389 -25 389 -67 q 386 17 389 -1 q 375 64 383 35 l 196 726 l 193 726 l 193 0 l 57 0 l 57 972 l 249 972 l 397 422 l 400 422 l 400 972 l 536 972 l 536 -3 q 484 -178 536 -119 q 331 -236 432 -236 z "},"Ñ":{"ha":593,"x_min":57,"x_max":536,"o":"m 57 972 l 249 972 l 397 390 l 400 390 l 400 972 l 536 972 l 536 0 l 379 0 l 196 710 l 193 710 l 193 0 l 57 0 l 57 972 m 104 1076 q 161 1165 131 1136 q 231 1193 192 1193 q 274 1186 256 1193 q 314 1167 293 1179 q 338 1154 326 1160 q 361 1149 350 1149 q 390 1161 378 1149 q 417 1203 403 1174 l 490 1158 q 433 1070 464 1099 q 364 1042 403 1042 q 320 1049 339 1042 q 281 1068 301 1056 q 256 1081 268 1075 q 233 1086 244 1086 q 204 1074 217 1086 q 178 1032 192 1061 l 104 1076 z "},"O":{"ha":556,"x_min":46,"x_max":510,"o":"m 278 -14 q 106 50 165 -14 q 46 231 46 114 l 46 742 q 106 922 46 858 q 278 986 165 986 q 450 922 390 986 q 510 742 510 858 l 510 231 q 450 50 510 114 q 278 -14 390 -14 m 278 125 q 357 221 357 125 l 357 751 q 278 847 357 847 q 199 751 199 847 l 199 221 q 278 125 199 125 z "},"Ó":{"ha":556,"x_min":46,"x_max":510,"o":"m 278 -14 q 106 50 165 -14 q 46 231 46 114 l 46 742 q 106 922 46 858 q 278 986 165 986 q 450 922 390 986 q 510 742 510 858 l 510 231 q 450 50 510 114 q 278 -14 390 -14 m 278 125 q 357 221 357 125 l 357 751 q 278 847 357 847 q 199 751 199 847 l 199 221 q 278 125 199 125 m 292 1197 l 458 1197 l 310 1038 l 194 1038 l 292 1197 z "},"Ŏ":{"ha":556,"x_min":46,"x_max":510,"o":"m 278 -14 q 106 50 165 -14 q 46 231 46 114 l 46 742 q 106 922 46 858 q 278 986 165 986 q 450 922 390 986 q 510 742 510 858 l 510 231 q 450 50 510 114 q 278 -14 390 -14 m 278 125 q 357 221 357 125 l 357 751 q 278 847 357 847 q 199 751 199 847 l 199 221 q 278 125 199 125 m 276 1032 q 158 1075 200 1032 q 114 1197 117 1118 l 204 1197 q 227 1145 210 1160 q 276 1131 244 1131 q 328 1145 310 1131 q 351 1197 346 1160 l 442 1197 q 397 1076 439 1119 q 276 1032 354 1032 z "},"Ô":{"ha":556,"x_min":46,"x_max":510,"o":"m 278 -14 q 106 50 165 -14 q 46 231 46 114 l 46 742 q 106 922 46 858 q 278 986 165 986 q 450 922 390 986 q 510 742 510 858 l 510 231 q 450 50 510 114 q 278 -14 390 -14 m 278 125 q 357 221 357 125 l 357 751 q 278 847 357 847 q 199 751 199 847 l 199 221 q 278 125 199 125 m 206 1197 l 350 1197 l 464 1038 l 349 1038 l 278 1114 l 207 1038 l 92 1038 l 206 1197 z "},"Ö":{"ha":556,"x_min":46,"x_max":510,"o":"m 278 -14 q 106 50 165 -14 q 46 231 46 114 l 46 742 q 106 922 46 858 q 278 986 165 986 q 450 922 390 986 q 510 742 510 858 l 510 231 q 450 50 510 114 q 278 -14 390 -14 m 278 125 q 357 221 357 125 l 357 751 q 278 847 357 847 q 199 751 199 847 l 199 221 q 278 125 199 125 m 103 1179 l 239 1179 l 239 1038 l 103 1038 l 103 1179 m 317 1179 l 453 1179 l 453 1038 l 317 1038 l 317 1179 z "},"Ò":{"ha":556,"x_min":46,"x_max":510,"o":"m 278 -14 q 106 50 165 -14 q 46 231 46 114 l 46 742 q 106 922 46 858 q 278 986 165 986 q 450 922 390 986 q 510 742 510 858 l 510 231 q 450 50 510 114 q 278 -14 390 -14 m 278 125 q 357 221 357 125 l 357 751 q 278 847 357 847 q 199 751 199 847 l 199 221 q 278 125 199 125 m 97 1197 l 264 1197 l 361 1038 l 246 1038 l 97 1197 z "},"Ő":{"ha":556,"x_min":46,"x_max":550,"o":"m 278 -14 q 106 50 165 -14 q 46 231 46 114 l 46 742 q 106 922 46 858 q 278 986 165 986 q 450 922 390 986 q 510 742 510 858 l 510 231 q 450 50 510 114 q 278 -14 390 -14 m 278 125 q 357 221 357 125 l 357 751 q 278 847 357 847 q 199 751 199 847 l 199 221 q 278 125 199 125 m 189 1197 l 343 1197 l 199 1038 l 92 1038 l 189 1197 m 396 1197 l 550 1197 l 406 1038 l 299 1038 l 396 1197 z "},"Ō":{"ha":556,"x_min":46,"x_max":510,"o":"m 278 -14 q 106 50 165 -14 q 46 231 46 114 l 46 742 q 106 922 46 858 q 278 986 165 986 q 450 922 390 986 q 510 742 510 858 l 510 231 q 450 50 510 114 q 278 -14 390 -14 m 278 125 q 357 221 357 125 l 357 751 q 278 847 357 847 q 199 751 199 847 l 199 221 q 278 125 199 125 m 118 1158 l 438 1158 l 438 1050 l 118 1050 l 118 1158 z "},"Ø":{"ha":556,"x_min":32,"x_max":524,"o":"m 483 874 q 510 742 510 821 l 510 231 q 450 50 510 114 q 278 -14 390 -14 q 139 22 194 -14 l 115 -36 l 32 0 l 72 99 q 46 231 46 151 l 46 742 q 106 922 46 858 q 278 986 165 986 q 417 950 361 986 l 440 1008 l 524 972 l 483 874 m 199 411 l 353 792 q 278 847 339 847 q 199 751 199 847 l 199 411 m 357 561 l 203 181 q 278 125 217 125 q 357 221 357 125 l 357 561 z "},"Ǿ":{"ha":556,"x_min":32,"x_max":524,"o":"m 483 874 q 510 742 510 821 l 510 231 q 450 50 510 114 q 278 -14 390 -14 q 139 22 194 -14 l 115 -36 l 32 0 l 72 99 q 46 231 46 151 l 46 742 q 106 922 46 858 q 278 986 165 986 q 417 950 361 986 l 440 1008 l 524 972 l 483 874 m 199 411 l 353 792 q 278 847 339 847 q 199 751 199 847 l 199 411 m 357 561 l 203 181 q 278 125 217 125 q 357 221 357 125 l 357 561 m 292 1197 l 458 1197 l 310 1038 l 194 1038 l 292 1197 z "},"Õ":{"ha":556,"x_min":46,"x_max":510,"o":"m 278 -14 q 106 50 165 -14 q 46 231 46 114 l 46 742 q 106 922 46 858 q 278 986 165 986 q 450 922 390 986 q 510 742 510 858 l 510 231 q 450 50 510 114 q 278 -14 390 -14 m 278 125 q 357 221 357 125 l 357 751 q 278 847 357 847 q 199 751 199 847 l 199 221 q 278 125 199 125 m 85 1076 q 142 1165 111 1136 q 211 1193 172 1193 q 255 1186 236 1193 q 294 1167 274 1179 q 319 1154 307 1160 q 342 1149 331 1149 q 371 1161 358 1149 q 397 1203 383 1174 l 471 1158 q 414 1070 444 1099 q 344 1042 383 1042 q 301 1049 319 1042 q 261 1068 282 1056 q 237 1081 249 1075 q 214 1086 225 1086 q 185 1074 197 1086 q 158 1032 172 1061 l 85 1076 z "},"Œ":{"ha":801,"x_min":46,"x_max":771,"o":"m 274 0 q 103 61 160 0 q 46 240 46 122 l 46 732 q 103 911 46 850 q 274 972 160 972 l 771 972 l 771 833 l 507 833 l 507 576 l 717 576 l 717 438 l 507 438 l 507 139 l 771 139 l 771 0 l 274 0 m 354 139 l 354 833 l 276 833 q 219 811 239 833 q 199 739 199 789 l 199 233 q 219 161 199 183 q 276 139 239 139 l 354 139 z "},"P":{"ha":536,"x_min":57,"x_max":510,"o":"m 57 972 l 282 972 q 453 911 396 972 q 510 732 510 850 l 510 636 q 453 457 510 518 q 282 396 396 396 l 210 396 l 210 0 l 57 0 l 57 972 m 282 535 q 338 556 319 535 q 357 626 357 576 l 357 742 q 338 813 357 792 q 282 833 319 833 l 210 833 l 210 535 l 282 535 z "},"Ṗ":{"ha":536,"x_min":57,"x_max":510,"o":"m 57 972 l 282 972 q 453 911 396 972 q 510 732 510 850 l 510 636 q 453 457 510 518 q 282 396 396 396 l 210 396 l 210 0 l 57 0 l 57 972 m 282 535 q 338 556 319 535 q 357 626 357 576 l 357 742 q 338 813 357 792 q 282 833 319 833 l 210 833 l 210 535 l 282 535 m 196 1179 l 335 1179 l 335 1038 l 196 1038 l 196 1179 z "},"Þ":{"ha":536,"x_min":57,"x_max":510,"o":"m 57 972 l 210 972 l 210 835 l 282 835 q 453 774 396 835 q 510 594 510 713 l 510 499 q 453 319 510 381 q 282 258 396 258 l 210 258 l 210 0 l 57 0 l 57 972 m 282 397 q 338 418 319 397 q 357 489 357 439 l 357 604 q 338 675 357 654 q 282 696 319 696 l 210 696 l 210 397 l 282 397 z "},"Q":{"ha":556,"x_min":46,"x_max":547,"o":"m 507 -90 q 379 3 403 -90 q 278 -14 336 -14 q 106 50 165 -14 q 46 231 46 114 l 46 742 q 106 922 46 858 q 278 986 165 986 q 450 922 390 986 q 510 742 510 858 l 510 231 q 467 71 510 133 q 488 53 475 57 q 524 49 500 49 l 547 49 l 547 -90 l 507 -90 m 278 125 q 357 221 357 125 l 357 751 q 278 847 357 847 q 199 751 199 847 l 199 221 q 278 125 199 125 z "},"R":{"ha":560,"x_min":57,"x_max":528,"o":"m 57 972 l 283 972 q 456 917 401 972 q 510 749 510 863 l 510 689 q 410 497 510 538 l 410 494 q 488 426 465 478 q 511 289 511 375 l 511 118 q 514 51 511 76 q 528 0 517 25 l 372 0 q 361 44 364 24 q 358 119 358 65 l 358 297 q 337 390 358 364 q 263 417 315 417 l 210 417 l 210 0 l 57 0 l 57 972 m 265 556 q 334 579 311 556 q 357 658 357 603 l 357 733 q 338 810 357 786 q 279 833 319 833 l 210 833 l 210 556 l 265 556 z "},"Ŕ":{"ha":560,"x_min":57,"x_max":528,"o":"m 57 972 l 283 972 q 456 917 401 972 q 510 749 510 863 l 510 689 q 410 497 510 538 l 410 494 q 488 426 465 478 q 511 289 511 375 l 511 118 q 514 51 511 76 q 528 0 517 25 l 372 0 q 361 44 364 24 q 358 119 358 65 l 358 297 q 337 390 358 364 q 263 417 315 417 l 210 417 l 210 0 l 57 0 l 57 972 m 265 556 q 334 579 311 556 q 357 658 357 603 l 357 733 q 338 810 357 786 q 279 833 319 833 l 210 833 l 210 556 l 265 556 z "},"Ř":{"ha":560,"x_min":57,"x_max":528,"o":"m 57 972 l 283 972 q 456 917 401 972 q 510 749 510 863 l 510 689 q 410 497 510 538 l 410 494 q 488 426 465 478 q 511 289 511 375 l 511 118 q 514 51 511 76 q 528 0 517 25 l 372 0 q 361 44 364 24 q 358 119 358 65 l 358 297 q 337 390 358 364 q 263 417 315 417 l 210 417 l 210 0 l 57 0 l 57 972 m 265 556 q 334 579 311 556 q 357 658 357 603 l 357 733 q 338 810 357 786 q 279 833 319 833 l 210 833 l 210 556 l 265 556 m 82 1197 l 197 1197 l 268 1121 l 339 1197 l 454 1197 l 340 1038 l 196 1038 l 82 1197 z "},"Ŗ":{"ha":560,"x_min":57,"x_max":528,"o":"m 57 972 l 283 972 q 456 917 401 972 q 510 749 510 863 l 510 689 q 410 497 510 538 l 410 494 q 488 426 465 478 q 511 289 511 375 l 511 118 q 514 51 511 76 q 528 0 517 25 l 372 0 q 361 44 364 24 q 358 119 358 65 l 358 297 q 337 390 358 364 q 263 417 315 417 l 210 417 l 210 0 l 57 0 l 57 972 m 265 556 q 334 579 311 556 q 357 658 357 603 l 357 733 q 338 810 357 786 q 279 833 319 833 l 210 833 l 210 556 l 265 556 m 268 -187 l 218 -187 l 218 -60 l 346 -60 l 346 -174 l 286 -262 l 232 -262 l 268 -187 z "},"S":{"ha":517,"x_min":31,"x_max":486,"o":"m 256 -14 q 88 49 144 -14 q 31 231 31 113 l 31 286 l 175 286 l 175 219 q 254 125 175 125 q 313 148 293 125 q 333 222 333 171 q 306 330 333 283 q 203 442 278 376 q 71 592 108 525 q 33 744 33 660 q 92 923 33 860 q 261 986 150 986 q 427 923 371 986 q 483 742 483 860 l 483 701 l 339 701 l 339 751 q 319 824 339 801 q 263 847 300 847 q 186 754 186 847 q 215 656 186 701 q 318 544 243 610 q 450 393 414 461 q 486 233 486 325 q 427 50 486 114 q 256 -14 368 -14 z "},"Ś":{"ha":517,"x_min":31,"x_max":486,"o":"m 256 -14 q 88 49 144 -14 q 31 231 31 113 l 31 286 l 175 286 l 175 219 q 254 125 175 125 q 313 148 293 125 q 333 222 333 171 q 306 330 333 283 q 203 442 278 376 q 71 592 108 525 q 33 744 33 660 q 92 923 33 860 q 261 986 150 986 q 427 923 371 986 q 483 742 483 860 l 483 701 l 339 701 l 339 751 q 319 824 339 801 q 263 847 300 847 q 186 754 186 847 q 215 656 186 701 q 318 544 243 610 q 450 393 414 461 q 486 233 486 325 q 427 50 486 114 q 256 -14 368 -14 m 272 1197 l 439 1197 l 290 1038 l 175 1038 l 272 1197 z "},"Š":{"ha":517,"x_min":31,"x_max":486,"o":"m 256 -14 q 88 49 144 -14 q 31 231 31 113 l 31 286 l 175 286 l 175 219 q 254 125 175 125 q 313 148 293 125 q 333 222 333 171 q 306 330 333 283 q 203 442 278 376 q 71 592 108 525 q 33 744 33 660 q 92 923 33 860 q 261 986 150 986 q 427 923 371 986 q 483 742 483 860 l 483 701 l 339 701 l 339 751 q 319 824 339 801 q 263 847 300 847 q 186 754 186 847 q 215 656 186 701 q 318 544 243 610 q 450 393 414 461 q 486 233 486 325 q 427 50 486 114 q 256 -14 368 -14 z "},"Ş":{"ha":517,"x_min":31,"x_max":486,"o":"m 486 233 q 437 61 486 125 q 293 -12 388 -3 l 293 -54 q 365 -69 340 -54 q 389 -119 389 -85 q 354 -187 389 -171 q 247 -204 319 -204 q 149 -186 183 -204 q 114 -124 114 -168 l 114 -110 l 217 -110 l 217 -121 q 226 -142 217 -135 q 247 -149 235 -149 q 275 -141 267 -149 q 283 -115 283 -133 q 271 -87 283 -96 q 232 -79 258 -79 l 225 -79 l 225 -12 q 80 58 129 -4 q 31 231 31 121 l 31 286 l 175 286 l 175 219 q 254 125 175 125 q 313 148 293 125 q 333 222 333 171 q 306 330 333 283 q 203 442 278 376 q 71 592 108 525 q 33 744 33 660 q 92 923 33 860 q 261 986 150 986 q 427 923 371 986 q 483 742 483 860 l 483 701 l 339 701 l 339 751 q 319 824 339 801 q 263 847 300 847 q 186 754 186 847 q 215 656 186 701 q 318 544 243 610 q 450 393 414 461 q 486 233 486 325 z "},"Ŝ":{"ha":517,"x_min":31,"x_max":486,"o":"m 256 -14 q 88 49 144 -14 q 31 231 31 113 l 31 286 l 175 286 l 175 219 q 254 125 175 125 q 313 148 293 125 q 333 222 333 171 q 306 330 333 283 q 203 442 278 376 q 71 592 108 525 q 33 744 33 660 q 92 923 33 860 q 261 986 150 986 q 427 923 371 986 q 483 742 483 860 l 483 701 l 339 701 l 339 751 q 319 824 339 801 q 263 847 300 847 q 186 754 186 847 q 215 656 186 701 q 318 544 243 610 q 450 393 414 461 q 486 233 486 325 q 427 50 486 114 q 256 -14 368 -14 m 186 1197 l 331 1197 l 444 1038 l 329 1038 l 258 1114 l 188 1038 l 72 1038 l 186 1197 z "},"Ș":{"ha":517,"x_min":31,"x_max":486,"o":"m 256 -14 q 88 49 144 -14 q 31 231 31 113 l 31 286 l 175 286 l 175 219 q 254 125 175 125 q 313 148 293 125 q 333 222 333 171 q 306 330 333 283 q 203 442 278 376 q 71 592 108 525 q 33 744 33 660 q 92 923 33 860 q 261 986 150 986 q 427 923 371 986 q 483 742 483 860 l 483 701 l 339 701 l 339 751 q 319 824 339 801 q 263 847 300 847 q 186 754 186 847 q 215 656 186 701 q 318 544 243 610 q 450 393 414 461 q 486 233 486 325 q 427 50 486 114 q 256 -14 368 -14 m 244 -187 l 194 -187 l 194 -60 l 322 -60 l 322 -174 l 263 -262 l 208 -262 l 244 -187 z "},"Ṡ":{"ha":517,"x_min":31,"x_max":486,"o":"m 256 -14 q 88 49 144 -14 q 31 231 31 113 l 31 286 l 175 286 l 175 219 q 254 125 175 125 q 313 148 293 125 q 333 222 333 171 q 306 330 333 283 q 203 442 278 376 q 71 592 108 525 q 33 744 33 660 q 92 923 33 860 q 261 986 150 986 q 427 923 371 986 q 483 742 483 860 l 483 701 l 339 701 l 339 751 q 319 824 339 801 q 263 847 300 847 q 186 754 186 847 q 215 656 186 701 q 318 544 243 610 q 450 393 414 461 q 486 233 486 325 q 427 50 486 114 q 256 -14 368 -14 m 189 1179 l 328 1179 l 328 1038 l 189 1038 l 189 1179 z "},"ẞ":{"ha":565,"x_min":57,"x_max":535,"o":"m 57 972 l 521 972 l 521 836 l 414 574 q 535 350 535 536 l 535 240 q 478 61 535 122 q 307 0 421 0 l 269 0 l 269 139 l 307 139 q 363 160 344 139 q 382 231 382 181 l 382 360 q 363 431 382 410 q 307 451 344 451 l 269 451 l 269 581 l 371 833 l 210 833 l 210 0 l 57 0 l 57 972 z "},"T":{"ha":506,"x_min":17,"x_max":489,"o":"m 176 833 l 17 833 l 17 972 l 489 972 l 489 833 l 329 833 l 329 0 l 176 0 l 176 833 z "},"Ŧ":{"ha":506,"x_min":17,"x_max":489,"o":"m 329 833 l 329 576 l 435 576 l 435 438 l 329 438 l 329 0 l 176 0 l 176 438 l 71 438 l 71 576 l 176 576 l 176 833 l 17 833 l 17 972 l 489 972 l 489 833 l 329 833 z "},"Ť":{"ha":506,"x_min":17,"x_max":489,"o":"m 176 833 l 17 833 l 17 972 l 489 972 l 489 833 l 329 833 l 329 0 l 176 0 l 176 833 m 67 1197 l 182 1197 l 253 1121 l 324 1197 l 439 1197 l 325 1038 l 181 1038 l 67 1197 z "},"Ţ":{"ha":506,"x_min":17,"x_max":489,"o":"m 288 0 l 288 -54 q 359 -69 335 -54 q 383 -119 383 -85 q 349 -187 383 -171 q 242 -204 314 -204 q 143 -186 178 -204 q 108 -124 108 -168 l 108 -110 l 211 -110 l 211 -121 q 220 -142 211 -135 q 242 -149 229 -149 q 269 -141 261 -149 q 278 -115 278 -133 q 265 -87 278 -96 q 226 -79 253 -79 l 219 -79 l 219 0 l 176 0 l 176 833 l 17 833 l 17 972 l 489 972 l 489 833 l 329 833 l 329 0 l 288 0 z "},"Ț":{"ha":506,"x_min":17,"x_max":489,"o":"m 176 833 l 17 833 l 17 972 l 489 972 l 489 833 l 329 833 l 329 0 l 176 0 l 176 833 m 239 -187 l 189 -187 l 189 -60 l 317 -60 l 317 -174 l 257 -262 l 203 -262 l 239 -187 z "},"Ṫ":{"ha":506,"x_min":17,"x_max":489,"o":"m 176 833 l 17 833 l 17 972 l 489 972 l 489 833 l 329 833 l 329 0 l 176 0 l 176 833 m 183 1179 l 322 1179 l 322 1038 l 183 1038 l 183 1179 z "},"U":{"ha":558,"x_min":51,"x_max":507,"o":"m 279 -14 q 110 49 168 -14 q 51 231 51 113 l 51 972 l 204 972 l 204 219 q 224 147 204 169 q 282 125 244 125 q 340 147 319 125 q 360 219 360 169 l 360 972 l 507 972 l 507 231 q 449 49 507 113 q 279 -14 390 -14 z "},"Ú":{"ha":558,"x_min":51,"x_max":507,"o":"m 279 -14 q 110 49 168 -14 q 51 231 51 113 l 51 972 l 204 972 l 204 219 q 224 147 204 169 q 282 125 244 125 q 340 147 319 125 q 360 219 360 169 l 360 972 l 507 972 l 507 231 q 449 49 507 113 q 279 -14 390 -14 m 293 1197 l 460 1197 l 311 1038 l 196 1038 l 293 1197 z "},"Ŭ":{"ha":558,"x_min":51,"x_max":507,"o":"m 279 -14 q 110 49 168 -14 q 51 231 51 113 l 51 972 l 204 972 l 204 219 q 224 147 204 169 q 282 125 244 125 q 340 147 319 125 q 360 219 360 169 l 360 972 l 507 972 l 507 231 q 449 49 507 113 q 279 -14 390 -14 m 278 1032 q 160 1075 201 1032 q 115 1197 118 1118 l 206 1197 q 228 1145 211 1160 q 278 1131 246 1131 q 329 1145 311 1131 q 353 1197 347 1160 l 443 1197 q 398 1076 440 1119 q 278 1032 356 1032 z "},"Û":{"ha":558,"x_min":51,"x_max":507,"o":"m 279 -14 q 110 49 168 -14 q 51 231 51 113 l 51 972 l 204 972 l 204 219 q 224 147 204 169 q 282 125 244 125 q 340 147 319 125 q 360 219 360 169 l 360 972 l 507 972 l 507 231 q 449 49 507 113 q 279 -14 390 -14 m 207 1197 l 351 1197 l 465 1038 l 350 1038 l 279 1114 l 208 1038 l 93 1038 l 207 1197 z "},"Ü":{"ha":558,"x_min":51,"x_max":507,"o":"m 279 -14 q 110 49 168 -14 q 51 231 51 113 l 51 972 l 204 972 l 204 219 q 224 147 204 169 q 282 125 244 125 q 340 147 319 125 q 360 219 360 169 l 360 972 l 507 972 l 507 231 q 449 49 507 113 q 279 -14 390 -14 m 104 1179 l 240 1179 l 240 1038 l 104 1038 l 104 1179 m 318 1179 l 454 1179 l 454 1038 l 318 1038 l 318 1179 z "},"Ù":{"ha":558,"x_min":51,"x_max":507,"o":"m 279 -14 q 110 49 168 -14 q 51 231 51 113 l 51 972 l 204 972 l 204 219 q 224 147 204 169 q 282 125 244 125 q 340 147 319 125 q 360 219 360 169 l 360 972 l 507 972 l 507 231 q 449 49 507 113 q 279 -14 390 -14 m 99 1197 l 265 1197 l 363 1038 l 247 1038 l 99 1197 z "},"Ű":{"ha":558,"x_min":51,"x_max":551,"o":"m 279 -14 q 110 49 168 -14 q 51 231 51 113 l 51 972 l 204 972 l 204 219 q 224 147 204 169 q 282 125 244 125 q 340 147 319 125 q 360 219 360 169 l 360 972 l 507 972 l 507 231 q 449 49 507 113 q 279 -14 390 -14 m 190 1197 l 344 1197 l 200 1038 l 93 1038 l 190 1197 m 397 1197 l 551 1197 l 407 1038 l 300 1038 l 397 1197 z "},"Ū":{"ha":558,"x_min":51,"x_max":507,"o":"m 279 -14 q 110 49 168 -14 q 51 231 51 113 l 51 972 l 204 972 l 204 219 q 224 147 204 169 q 282 125 244 125 q 340 147 319 125 q 360 219 360 169 l 360 972 l 507 972 l 507 231 q 449 49 507 113 q 279 -14 390 -14 m 119 1158 l 439 1158 l 439 1050 l 119 1050 l 119 1158 z "},"Ų":{"ha":558,"x_min":51,"x_max":507,"o":"m 507 972 l 507 231 q 467 72 507 133 q 349 -7 426 11 q 314 -81 314 -40 q 328 -109 314 -99 q 363 -119 342 -119 q 397 -116 385 -119 q 413 -111 408 -112 l 413 -189 q 369 -201 389 -199 q 318 -204 349 -204 q 228 -182 261 -204 q 196 -118 196 -160 q 267 -14 196 -58 q 106 53 161 -10 q 51 231 51 117 l 51 972 l 204 972 l 204 219 q 224 147 204 169 q 282 125 244 125 q 340 147 319 125 q 360 219 360 169 l 360 972 l 507 972 z "},"Ů":{"ha":558,"x_min":51,"x_max":507,"o":"m 279 -14 q 110 49 168 -14 q 51 231 51 113 l 51 972 l 204 972 l 204 219 q 224 147 204 169 q 282 125 244 125 q 340 147 319 125 q 360 219 360 169 l 360 972 l 507 972 l 507 231 q 449 49 507 113 q 279 -14 390 -14 m 279 1022 q 191 1058 226 1022 q 156 1144 156 1093 q 191 1231 156 1196 q 279 1267 226 1267 q 367 1231 332 1267 q 403 1144 403 1196 q 367 1058 403 1093 q 279 1022 332 1022 m 279 1096 q 311 1109 299 1096 q 324 1144 324 1122 q 311 1180 324 1167 q 279 1193 299 1193 q 247 1180 260 1193 q 235 1144 235 1167 q 247 1109 235 1122 q 279 1096 260 1096 z "},"Ũ":{"ha":558,"x_min":51,"x_max":507,"o":"m 279 -14 q 110 49 168 -14 q 51 231 51 113 l 51 972 l 204 972 l 204 219 q 224 147 204 169 q 282 125 244 125 q 340 147 319 125 q 360 219 360 169 l 360 972 l 507 972 l 507 231 q 449 49 507 113 q 279 -14 390 -14 m 86 1076 q 143 1165 113 1136 q 213 1193 174 1193 q 256 1186 238 1193 q 296 1167 275 1179 q 320 1154 308 1160 q 343 1149 332 1149 q 372 1161 360 1149 q 399 1203 385 1174 l 472 1158 q 415 1070 446 1099 q 346 1042 385 1042 q 302 1049 321 1042 q 263 1068 283 1056 q 238 1081 250 1075 q 215 1086 226 1086 q 186 1074 199 1086 q 160 1032 174 1061 l 86 1076 z "},"V":{"ha":531,"x_min":17,"x_max":514,"o":"m 17 972 l 171 972 l 271 218 l 274 218 l 374 972 l 514 972 l 367 0 l 164 0 l 17 972 z "},"W":{"ha":774,"x_min":21,"x_max":753,"o":"m 21 972 l 168 972 l 236 225 l 239 225 l 311 972 l 478 972 l 550 225 l 553 225 l 621 972 l 753 972 l 654 0 l 464 0 l 394 656 l 392 656 l 322 0 l 119 0 l 21 972 z "},"Ẃ":{"ha":774,"x_min":21,"x_max":753,"o":"m 21 972 l 168 972 l 236 225 l 239 225 l 311 972 l 478 972 l 550 225 l 553 225 l 621 972 l 753 972 l 654 0 l 464 0 l 394 656 l 392 656 l 322 0 l 119 0 l 21 972 m 401 1197 l 568 1197 l 419 1038 l 304 1038 l 401 1197 z "},"Ŵ":{"ha":774,"x_min":21,"x_max":753,"o":"m 21 972 l 168 972 l 236 225 l 239 225 l 311 972 l 478 972 l 550 225 l 553 225 l 621 972 l 753 972 l 654 0 l 464 0 l 394 656 l 392 656 l 322 0 l 119 0 l 21 972 m 315 1197 l 460 1197 l 574 1038 l 458 1038 l 388 1114 l 317 1038 l 201 1038 l 315 1197 z "},"Ẅ":{"ha":774,"x_min":21,"x_max":753,"o":"m 21 972 l 168 972 l 236 225 l 239 225 l 311 972 l 478 972 l 550 225 l 553 225 l 621 972 l 753 972 l 654 0 l 464 0 l 394 656 l 392 656 l 322 0 l 119 0 l 21 972 m 213 1179 l 349 1179 l 349 1038 l 213 1038 l 213 1179 m 426 1179 l 563 1179 l 563 1038 l 426 1038 l 426 1179 z "},"Ẁ":{"ha":774,"x_min":21,"x_max":753,"o":"m 21 972 l 168 972 l 236 225 l 239 225 l 311 972 l 478 972 l 550 225 l 553 225 l 621 972 l 753 972 l 654 0 l 464 0 l 394 656 l 392 656 l 322 0 l 119 0 l 21 972 m 207 1197 l 374 1197 l 471 1038 l 356 1038 l 207 1197 z "},"X":{"ha":564,"x_min":15,"x_max":549,"o":"m 192 497 l 24 972 l 185 972 l 288 658 l 290 658 l 396 972 l 540 972 l 372 497 l 549 0 l 388 0 l 276 339 l 274 339 l 160 0 l 15 0 l 192 497 z "},"Y":{"ha":547,"x_min":13,"x_max":535,"o":"m 197 414 l 13 972 l 175 972 l 279 615 l 282 615 l 386 972 l 535 972 l 350 414 l 350 0 l 197 0 l 197 414 z "},"Ý":{"ha":547,"x_min":13,"x_max":535,"o":"m 197 414 l 13 972 l 175 972 l 279 615 l 282 615 l 386 972 l 535 972 l 350 414 l 350 0 l 197 0 l 197 414 m 288 1197 l 454 1197 l 306 1038 l 190 1038 l 288 1197 z "},"Ŷ":{"ha":547,"x_min":13,"x_max":535,"o":"m 197 414 l 13 972 l 175 972 l 279 615 l 282 615 l 386 972 l 535 972 l 350 414 l 350 0 l 197 0 l 197 414 m 201 1197 l 346 1197 l 460 1038 l 344 1038 l 274 1114 l 203 1038 l 88 1038 l 201 1197 z "},"Ÿ":{"ha":547,"x_min":13,"x_max":535,"o":"m 197 414 l 13 972 l 175 972 l 279 615 l 282 615 l 386 972 l 535 972 l 350 414 l 350 0 l 197 0 l 197 414 m 99 1179 l 235 1179 l 235 1038 l 99 1038 l 99 1179 m 313 1179 l 449 1179 l 449 1038 l 313 1038 l 313 1179 z "},"Ỳ":{"ha":547,"x_min":13,"x_max":535,"o":"m 197 414 l 13 972 l 175 972 l 279 615 l 282 615 l 386 972 l 535 972 l 350 414 l 350 0 l 197 0 l 197 414 m 93 1197 l 260 1197 l 357 1038 l 242 1038 l 93 1197 z "},"Z":{"ha":503,"x_min":26,"x_max":474,"o":"m 26 136 l 310 833 l 40 833 l 40 972 l 474 972 l 474 836 l 190 139 l 474 139 l 474 0 l 26 0 l 26 136 z "},"Ź":{"ha":503,"x_min":26,"x_max":474,"o":"m 26 136 l 310 833 l 40 833 l 40 972 l 474 972 l 474 836 l 190 139 l 474 139 l 474 0 l 26 0 l 26 136 m 271 1197 l 438 1197 l 289 1038 l 174 1038 l 271 1197 z "},"Ž":{"ha":503,"x_min":26,"x_max":474,"o":"m 26 136 l 310 833 l 40 833 l 40 972 l 474 972 l 474 836 l 190 139 l 474 139 l 474 0 l 26 0 l 26 136 m 71 1197 l 186 1197 l 257 1121 l 328 1197 l 443 1197 l 329 1038 l 185 1038 l 71 1197 z "},"Ż":{"ha":503,"x_min":26,"x_max":474,"o":"m 26 136 l 310 833 l 40 833 l 40 972 l 474 972 l 474 836 l 190 139 l 474 139 l 474 0 l 26 0 l 26 136 m 188 1179 l 326 1179 l 326 1038 l 188 1038 l 188 1179 z "},"a":{"ha":557,"x_min":17,"x_max":540,"o":"m 175 972 l 382 972 l 540 0 l 388 0 l 360 193 l 360 190 l 186 190 l 158 0 l 17 0 l 175 972 m 342 322 l 274 803 l 271 803 l 204 322 l 342 322 z "},"á":{"ha":557,"x_min":17,"x_max":540,"o":"m 175 972 l 382 972 l 540 0 l 388 0 l 360 193 l 360 190 l 186 190 l 158 0 l 17 0 l 175 972 m 342 322 l 274 803 l 271 803 l 204 322 l 342 322 m 293 1197 l 460 1197 l 311 1038 l 196 1038 l 293 1197 z "},"ă":{"ha":557,"x_min":17,"x_max":540,"o":"m 175 972 l 382 972 l 540 0 l 388 0 l 360 193 l 360 190 l 186 190 l 158 0 l 17 0 l 175 972 m 342 322 l 274 803 l 271 803 l 204 322 l 342 322 m 278 1032 q 160 1075 201 1032 q 115 1197 118 1118 l 206 1197 q 228 1145 211 1160 q 278 1131 246 1131 q 329 1145 311 1131 q 353 1197 347 1160 l 443 1197 q 398 1076 440 1119 q 278 1032 356 1032 z "},"â":{"ha":557,"x_min":17,"x_max":540,"o":"m 175 972 l 382 972 l 540 0 l 388 0 l 360 193 l 360 190 l 186 190 l 158 0 l 17 0 l 175 972 m 342 322 l 274 803 l 271 803 l 204 322 l 342 322 m 207 1197 l 351 1197 l 465 1038 l 350 1038 l 279 1114 l 208 1038 l 93 1038 l 207 1197 z "},"ä":{"ha":557,"x_min":17,"x_max":540,"o":"m 175 972 l 382 972 l 540 0 l 388 0 l 360 193 l 360 190 l 186 190 l 158 0 l 17 0 l 175 972 m 342 322 l 274 803 l 271 803 l 204 322 l 342 322 m 104 1179 l 240 1179 l 240 1038 l 104 1038 l 104 1179 m 318 1179 l 454 1179 l 454 1038 l 318 1038 l 318 1179 z "},"à":{"ha":557,"x_min":17,"x_max":540,"o":"m 175 972 l 382 972 l 540 0 l 388 0 l 360 193 l 360 190 l 186 190 l 158 0 l 17 0 l 175 972 m 342 322 l 274 803 l 271 803 l 204 322 l 342 322 m 99 1197 l 265 1197 l 363 1038 l 247 1038 l 99 1197 z "},"ā":{"ha":557,"x_min":17,"x_max":540,"o":"m 175 972 l 382 972 l 540 0 l 388 0 l 360 193 l 360 190 l 186 190 l 158 0 l 17 0 l 175 972 m 342 322 l 274 803 l 271 803 l 204 322 l 342 322 m 119 1158 l 439 1158 l 439 1050 l 119 1050 l 119 1158 z "},"ą":{"ha":557,"x_min":17,"x_max":540,"o":"m 442 -81 q 456 -109 442 -99 q 490 -119 469 -119 q 524 -116 513 -119 q 540 -111 536 -112 l 540 -189 q 497 -201 517 -199 q 446 -204 476 -204 q 356 -182 389 -204 q 324 -118 324 -160 q 418 0 324 -47 l 388 0 l 360 193 l 360 190 l 186 190 l 158 0 l 17 0 l 175 972 l 382 972 l 540 0 l 483 0 q 442 -81 442 -35 m 342 322 l 274 803 l 271 803 l 204 322 l 342 322 z "},"å":{"ha":557,"x_min":17,"x_max":540,"o":"m 175 972 l 382 972 l 540 0 l 388 0 l 360 193 l 360 190 l 186 190 l 158 0 l 17 0 l 175 972 m 342 322 l 274 803 l 271 803 l 204 322 l 342 322 m 279 1022 q 191 1058 226 1022 q 156 1144 156 1093 q 191 1231 156 1196 q 279 1267 226 1267 q 367 1231 332 1267 q 403 1144 403 1196 q 367 1058 403 1093 q 279 1022 332 1022 m 279 1096 q 311 1109 299 1096 q 324 1144 324 1122 q 311 1180 324 1167 q 279 1193 299 1193 q 247 1180 260 1193 q 235 1144 235 1167 q 247 1109 235 1122 q 279 1096 260 1096 z "},"ã":{"ha":557,"x_min":17,"x_max":540,"o":"m 175 972 l 382 972 l 540 0 l 388 0 l 360 193 l 360 190 l 186 190 l 158 0 l 17 0 l 175 972 m 342 322 l 274 803 l 271 803 l 204 322 l 342 322 m 86 1076 q 143 1165 113 1136 q 213 1193 174 1193 q 256 1186 238 1193 q 296 1167 275 1179 q 320 1154 308 1160 q 343 1149 332 1149 q 372 1161 360 1149 q 399 1203 385 1174 l 472 1158 q 415 1070 446 1099 q 346 1042 385 1042 q 302 1049 321 1042 q 263 1068 283 1056 q 238 1081 250 1075 q 215 1086 226 1086 q 186 1074 199 1086 q 160 1032 174 1061 l 86 1076 z "},"æ":{"ha":806,"x_min":14,"x_max":775,"o":"m 274 972 l 775 972 l 775 833 l 511 833 l 511 576 l 721 576 l 721 438 l 511 438 l 511 139 l 775 139 l 775 0 l 358 0 l 358 190 l 208 190 l 160 0 l 14 0 l 274 972 m 358 322 l 358 785 l 356 785 l 242 322 l 358 322 z "},"ǽ":{"ha":806,"x_min":14,"x_max":775,"o":"m 274 972 l 775 972 l 775 833 l 511 833 l 511 576 l 721 576 l 721 438 l 511 438 l 511 139 l 775 139 l 775 0 l 358 0 l 358 190 l 208 190 l 160 0 l 14 0 l 274 972 m 358 322 l 358 785 l 356 785 l 242 322 l 358 322 m 414 1197 l 581 1197 l 432 1038 l 317 1038 l 414 1197 z "},"b":{"ha":561,"x_min":57,"x_max":529,"o":"m 57 972 l 288 972 q 460 917 406 972 q 514 749 514 863 l 514 710 q 490 588 514 635 q 415 519 465 540 l 415 517 q 529 314 529 478 l 529 231 q 470 59 529 118 q 297 0 411 0 l 57 0 l 57 972 m 269 576 q 338 600 315 576 q 361 679 361 624 l 361 733 q 342 810 361 786 q 283 833 324 833 l 210 833 l 210 576 l 269 576 m 297 139 q 357 160 338 139 q 376 235 376 182 l 376 319 q 353 412 376 386 q 278 438 331 438 l 210 438 l 210 139 l 297 139 z "},"ḃ":{"ha":561,"x_min":57,"x_max":529,"o":"m 57 972 l 288 972 q 460 917 406 972 q 514 749 514 863 l 514 710 q 490 588 514 635 q 415 519 465 540 l 415 517 q 529 314 529 478 l 529 231 q 470 59 529 118 q 297 0 411 0 l 57 0 l 57 972 m 269 576 q 338 600 315 576 q 361 679 361 624 l 361 733 q 342 810 361 786 q 283 833 324 833 l 210 833 l 210 576 l 269 576 m 297 139 q 357 160 338 139 q 376 235 376 182 l 376 319 q 353 412 376 386 q 278 438 331 438 l 210 438 l 210 139 l 297 139 m 196 1179 l 335 1179 l 335 1038 l 196 1038 l 196 1179 z "},"c":{"ha":532,"x_min":47,"x_max":497,"o":"m 272 -14 q 105 49 163 -14 q 47 225 47 111 l 47 747 q 105 924 47 861 q 272 986 163 986 q 440 924 382 986 q 497 747 497 861 l 497 644 l 353 644 l 353 757 q 276 847 353 847 q 200 757 200 847 l 200 214 q 276 125 200 125 q 353 214 353 125 l 353 363 l 497 363 l 497 225 q 440 49 497 111 q 272 -14 382 -14 z "},"ć":{"ha":532,"x_min":47,"x_max":497,"o":"m 272 -14 q 105 49 163 -14 q 47 225 47 111 l 47 747 q 105 924 47 861 q 272 986 163 986 q 440 924 382 986 q 497 747 497 861 l 497 644 l 353 644 l 353 757 q 276 847 353 847 q 200 757 200 847 l 200 214 q 276 125 200 125 q 353 214 353 125 l 353 363 l 497 363 l 497 225 q 440 49 497 111 q 272 -14 382 -14 m 282 1197 l 449 1197 l 300 1038 l 185 1038 l 282 1197 z "},"č":{"ha":532,"x_min":47,"x_max":497,"o":"m 272 -14 q 105 49 163 -14 q 47 225 47 111 l 47 747 q 105 924 47 861 q 272 986 163 986 q 440 924 382 986 q 497 747 497 861 l 497 644 l 353 644 l 353 757 q 276 847 353 847 q 200 757 200 847 l 200 214 q 276 125 200 125 q 353 214 353 125 l 353 363 l 497 363 l 497 225 q 440 49 497 111 q 272 -14 382 -14 m 82 1197 l 197 1197 l 268 1121 l 339 1197 l 454 1197 l 340 1038 l 196 1038 l 82 1197 z "},"ç":{"ha":532,"x_min":47,"x_max":497,"o":"m 353 644 l 353 757 q 276 847 353 847 q 200 757 200 847 l 200 214 q 276 125 200 125 q 353 214 353 125 l 353 363 l 497 363 l 497 225 q 449 59 497 121 q 308 -12 400 -3 l 308 -54 q 380 -69 356 -54 q 404 -119 404 -85 q 369 -187 404 -171 q 263 -204 335 -204 q 164 -186 199 -204 q 129 -124 129 -168 l 129 -110 l 232 -110 l 232 -121 q 241 -142 232 -135 q 263 -149 250 -149 q 290 -141 282 -149 q 299 -115 299 -133 q 286 -87 299 -96 q 247 -79 274 -79 l 240 -79 l 240 -12 q 97 58 146 -3 q 47 225 47 119 l 47 747 q 105 924 47 861 q 272 986 163 986 q 440 924 382 986 q 497 747 497 861 l 497 644 l 353 644 z "},"ĉ":{"ha":532,"x_min":47,"x_max":497,"o":"m 272 -14 q 105 49 163 -14 q 47 225 47 111 l 47 747 q 105 924 47 861 q 272 986 163 986 q 440 924 382 986 q 497 747 497 861 l 497 644 l 353 644 l 353 757 q 276 847 353 847 q 200 757 200 847 l 200 214 q 276 125 200 125 q 353 214 353 125 l 353 363 l 497 363 l 497 225 q 440 49 497 111 q 272 -14 382 -14 m 196 1197 l 340 1197 l 454 1038 l 339 1038 l 268 1114 l 197 1038 l 82 1038 l 196 1197 z "},"ċ":{"ha":532,"x_min":47,"x_max":497,"o":"m 272 -14 q 105 49 163 -14 q 47 225 47 111 l 47 747 q 105 924 47 861 q 272 986 163 986 q 440 924 382 986 q 497 747 497 861 l 497 644 l 353 644 l 353 757 q 276 847 353 847 q 200 757 200 847 l 200 214 q 276 125 200 125 q 353 214 353 125 l 353 363 l 497 363 l 497 225 q 440 49 497 111 q 272 -14 382 -14 m 199 1179 l 338 1179 l 338 1038 l 199 1038 l 199 1179 z "},"d":{"ha":564,"x_min":57,"x_max":518,"o":"m 57 972 l 290 972 q 461 911 404 972 q 518 732 518 850 l 518 240 q 461 61 518 122 q 290 0 404 0 l 57 0 l 57 972 m 288 139 q 345 161 325 139 q 365 233 365 183 l 365 739 q 345 811 365 789 q 288 833 325 833 l 210 833 l 210 139 l 288 139 z "},"ð":{"ha":588,"x_min":14,"x_max":542,"o":"m 314 972 q 485 911 428 972 q 542 732 542 850 l 542 240 q 485 61 542 122 q 314 0 428 0 l 81 0 l 81 442 l 14 442 l 14 572 l 81 572 l 81 972 l 314 972 m 389 739 q 369 811 389 789 q 311 833 349 833 l 233 833 l 233 572 l 311 572 l 311 442 l 233 442 l 233 139 l 311 139 q 369 161 349 139 q 389 233 389 183 l 389 739 z "},"ď":{"ha":564,"x_min":57,"x_max":518,"o":"m 57 972 l 290 972 q 461 911 404 972 q 518 732 518 850 l 518 240 q 461 61 518 122 q 290 0 404 0 l 57 0 l 57 972 m 288 139 q 345 161 325 139 q 365 233 365 183 l 365 739 q 345 811 365 789 q 288 833 325 833 l 210 833 l 210 139 l 288 139 m 85 1197 l 200 1197 l 271 1121 l 342 1197 l 457 1197 l 343 1038 l 199 1038 l 85 1197 z "},"đ":{"ha":588,"x_min":14,"x_max":542,"o":"m 314 972 q 485 911 428 972 q 542 732 542 850 l 542 240 q 485 61 542 122 q 314 0 428 0 l 81 0 l 81 442 l 14 442 l 14 572 l 81 572 l 81 972 l 314 972 m 389 739 q 369 811 389 789 q 311 833 349 833 l 233 833 l 233 572 l 311 572 l 311 442 l 233 442 l 233 139 l 311 139 q 369 161 349 139 q 389 233 389 183 l 389 739 z "},"ḋ":{"ha":564,"x_min":57,"x_max":518,"o":"m 57 972 l 290 972 q 461 911 404 972 q 518 732 518 850 l 518 240 q 461 61 518 122 q 290 0 404 0 l 57 0 l 57 972 m 288 139 q 345 161 325 139 q 365 233 365 183 l 365 739 q 345 811 365 789 q 288 833 325 833 l 210 833 l 210 139 l 288 139 m 201 1179 l 340 1179 l 340 1038 l 201 1038 l 201 1179 z "},"e":{"ha":504,"x_min":57,"x_max":474,"o":"m 57 972 l 474 972 l 474 833 l 210 833 l 210 576 l 419 576 l 419 438 l 210 438 l 210 139 l 474 139 l 474 0 l 57 0 l 57 972 z "},"é":{"ha":504,"x_min":57,"x_max":474,"o":"m 57 972 l 474 972 l 474 833 l 210 833 l 210 576 l 419 576 l 419 438 l 210 438 l 210 139 l 474 139 l 474 0 l 57 0 l 57 972 z "},"ĕ":{"ha":504,"x_min":57,"x_max":474,"o":"m 57 972 l 474 972 l 474 833 l 210 833 l 210 576 l 419 576 l 419 438 l 210 438 l 210 139 l 474 139 l 474 0 l 57 0 l 57 972 m 264 1032 q 146 1075 188 1032 q 101 1197 104 1118 l 192 1197 q 215 1145 197 1160 q 264 1131 232 1131 q 315 1145 297 1131 q 339 1197 333 1160 l 429 1197 q 384 1076 426 1119 q 264 1032 342 1032 z "},"ě":{"ha":504,"x_min":57,"x_max":474,"o":"m 57 972 l 474 972 l 474 833 l 210 833 l 210 576 l 419 576 l 419 438 l 210 438 l 210 139 l 474 139 l 474 0 l 57 0 l 57 972 m 79 1197 l 194 1197 l 265 1121 l 336 1197 l 451 1197 l 338 1038 l 193 1038 l 79 1197 z "},"ê":{"ha":504,"x_min":57,"x_max":474,"o":"m 57 972 l 474 972 l 474 833 l 210 833 l 210 576 l 419 576 l 419 438 l 210 438 l 210 139 l 474 139 l 474 0 l 57 0 l 57 972 m 193 1197 l 338 1197 l 451 1038 l 336 1038 l 265 1114 l 194 1038 l 79 1038 l 193 1197 z "},"ë":{"ha":504,"x_min":57,"x_max":474,"o":"m 57 972 l 474 972 l 474 833 l 210 833 l 210 576 l 419 576 l 419 438 l 210 438 l 210 139 l 474 139 l 474 0 l 57 0 l 57 972 m 90 1179 l 226 1179 l 226 1038 l 90 1038 l 90 1179 m 304 1179 l 440 1179 l 440 1038 l 304 1038 l 304 1179 z "},"ė":{"ha":504,"x_min":57,"x_max":474,"o":"m 57 972 l 474 972 l 474 833 l 210 833 l 210 576 l 419 576 l 419 438 l 210 438 l 210 139 l 474 139 l 474 0 l 57 0 l 57 972 m 196 1179 l 335 1179 l 335 1038 l 196 1038 l 196 1179 z "},"è":{"ha":504,"x_min":57,"x_max":474,"o":"m 57 972 l 474 972 l 474 833 l 210 833 l 210 576 l 419 576 l 419 438 l 210 438 l 210 139 l 474 139 l 474 0 l 57 0 l 57 972 m 85 1197 l 251 1197 l 349 1038 l 233 1038 l 85 1197 z "},"ē":{"ha":504,"x_min":57,"x_max":474,"o":"m 57 972 l 474 972 l 474 833 l 210 833 l 210 576 l 419 576 l 419 438 l 210 438 l 210 139 l 474 139 l 474 0 l 57 0 l 57 972 m 106 1158 l 425 1158 l 425 1050 l 106 1050 l 106 1158 z "},"ę":{"ha":504,"x_min":57,"x_max":474,"o":"m 210 833 l 210 576 l 419 576 l 419 438 l 210 438 l 210 139 l 474 139 l 474 0 l 417 0 q 375 -81 375 -35 q 389 -109 375 -99 q 424 -119 403 -119 q 458 -116 446 -119 q 474 -111 469 -112 l 474 -189 q 430 -201 450 -199 q 379 -204 410 -204 q 290 -182 322 -204 q 257 -118 257 -160 q 351 0 257 -47 l 57 0 l 57 972 l 474 972 l 474 833 l 210 833 z "},"f":{"ha":478,"x_min":57,"x_max":461,"o":"m 57 972 l 461 972 l 461 833 l 210 833 l 210 563 l 407 563 l 407 424 l 210 424 l 210 0 l 57 0 l 57 972 z "},"ḟ":{"ha":478,"x_min":57,"x_max":461,"o":"m 57 972 l 461 972 l 461 833 l 210 833 l 210 563 l 407 563 l 407 424 l 210 424 l 210 0 l 57 0 l 57 972 m 185 1179 l 324 1179 l 324 1038 l 185 1038 l 185 1179 z "},"g":{"ha":543,"x_min":46,"x_max":501,"o":"m 274 -14 q 104 49 163 -14 q 46 231 46 113 l 46 742 q 104 923 46 860 q 274 986 163 986 q 443 923 385 986 q 501 742 501 860 l 501 658 l 357 658 l 357 751 q 278 847 357 847 q 199 751 199 847 l 199 219 q 278 125 199 125 q 357 219 357 125 l 357 410 l 281 410 l 281 549 l 501 549 l 501 231 q 443 49 501 113 q 274 -14 385 -14 z "},"ğ":{"ha":543,"x_min":46,"x_max":501,"o":"m 274 -14 q 104 49 163 -14 q 46 231 46 113 l 46 742 q 104 923 46 860 q 274 986 163 986 q 443 923 385 986 q 501 742 501 860 l 501 658 l 357 658 l 357 751 q 278 847 357 847 q 199 751 199 847 l 199 219 q 278 125 199 125 q 357 219 357 125 l 357 410 l 281 410 l 281 549 l 501 549 l 501 231 q 443 49 501 113 q 274 -14 385 -14 m 272 1032 q 154 1075 196 1032 q 110 1197 113 1118 l 200 1197 q 223 1145 206 1160 q 272 1131 240 1131 q 324 1145 306 1131 q 347 1197 342 1160 l 438 1197 q 392 1076 435 1119 q 272 1032 350 1032 z "},"ĝ":{"ha":543,"x_min":46,"x_max":501,"o":"m 274 -14 q 104 49 163 -14 q 46 231 46 113 l 46 742 q 104 923 46 860 q 274 986 163 986 q 443 923 385 986 q 501 742 501 860 l 501 658 l 357 658 l 357 751 q 278 847 357 847 q 199 751 199 847 l 199 219 q 278 125 199 125 q 357 219 357 125 l 357 410 l 281 410 l 281 549 l 501 549 l 501 231 q 443 49 501 113 q 274 -14 385 -14 m 201 1197 l 346 1197 l 460 1038 l 344 1038 l 274 1114 l 203 1038 l 88 1038 l 201 1197 z "},"ģ":{"ha":543,"x_min":46,"x_max":501,"o":"m 274 -14 q 104 49 163 -14 q 46 231 46 113 l 46 742 q 104 923 46 860 q 274 986 163 986 q 443 923 385 986 q 501 742 501 860 l 501 658 l 357 658 l 357 751 q 278 847 357 847 q 199 751 199 847 l 199 219 q 278 125 199 125 q 357 219 357 125 l 357 410 l 281 410 l 281 549 l 501 549 l 501 231 q 443 49 501 113 q 274 -14 385 -14 m 258 -187 l 208 -187 l 208 -60 l 336 -60 l 336 -174 l 276 -262 l 222 -262 l 258 -187 z "},"ġ":{"ha":543,"x_min":46,"x_max":501,"o":"m 274 -14 q 104 49 163 -14 q 46 231 46 113 l 46 742 q 104 923 46 860 q 274 986 163 986 q 443 923 385 986 q 501 742 501 860 l 501 658 l 357 658 l 357 751 q 278 847 357 847 q 199 751 199 847 l 199 219 q 278 125 199 125 q 357 219 357 125 l 357 410 l 281 410 l 281 549 l 501 549 l 501 231 q 443 49 501 113 q 274 -14 385 -14 m 204 1179 l 343 1179 l 343 1038 l 204 1038 l 204 1179 z "},"h":{"ha":583,"x_min":57,"x_max":526,"o":"m 57 972 l 210 972 l 210 576 l 374 576 l 374 972 l 526 972 l 526 0 l 374 0 l 374 438 l 210 438 l 210 0 l 57 0 l 57 972 z "},"ħ":{"ha":608,"x_min":14,"x_max":594,"o":"m 594 713 l 539 713 l 539 0 l 386 0 l 386 438 l 222 438 l 222 0 l 69 0 l 69 713 l 14 713 l 14 838 l 69 838 l 69 972 l 222 972 l 222 838 l 386 838 l 386 972 l 539 972 l 539 838 l 594 838 l 594 713 m 386 713 l 222 713 l 222 576 l 386 576 l 386 713 z "},"ĥ":{"ha":583,"x_min":57,"x_max":526,"o":"m 57 972 l 210 972 l 210 576 l 374 576 l 374 972 l 526 972 l 526 0 l 374 0 l 374 438 l 210 438 l 210 0 l 57 0 l 57 972 m 219 1197 l 364 1197 l 478 1038 l 363 1038 l 292 1114 l 221 1038 l 106 1038 l 219 1197 z "},"i":{"ha":267,"x_min":57,"x_max":210,"o":"m 57 972 l 210 972 l 210 0 l 57 0 l 57 972 z "},"ı":{"ha":267,"x_min":57,"x_max":210,"o":"m 57 972 l 210 972 l 210 0 l 57 0 l 57 972 z "},"í":{"ha":267,"x_min":50,"x_max":314,"o":"m 57 972 l 210 972 l 210 0 l 57 0 l 57 972 m 147 1197 l 314 1197 l 165 1038 l 50 1038 l 147 1197 z "},"ĭ":{"ha":267,"x_min":-31,"x_max":297,"o":"m 57 972 l 210 972 l 210 0 l 57 0 l 57 972 m 132 1032 q 14 1075 56 1032 q -31 1197 -28 1118 l 60 1197 q 83 1145 65 1160 q 132 1131 100 1131 q 183 1145 165 1131 q 207 1197 201 1160 l 297 1197 q 252 1076 294 1119 q 132 1032 210 1032 z "},"î":{"ha":267,"x_min":-53,"x_max":319,"o":"m 57 972 l 210 972 l 210 0 l 57 0 l 57 972 m 61 1197 l 206 1197 l 319 1038 l 204 1038 l 133 1114 l 63 1038 l -53 1038 l 61 1197 z "},"ï":{"ha":267,"x_min":-42,"x_max":308,"o":"m 57 972 l 210 972 l 210 0 l 57 0 l 57 972 m -42 1179 l 94 1179 l 94 1038 l -42 1038 l -42 1179 m 172 1179 l 308 1179 l 308 1038 l 172 1038 l 172 1179 z "},"ì":{"ha":267,"x_min":-47,"x_max":217,"o":"m 57 972 l 210 972 l 210 0 l 57 0 l 57 972 m -47 1197 l 119 1197 l 217 1038 l 101 1038 l -47 1197 z "},"ĳ":{"ha":635,"x_min":57,"x_max":582,"o":"m 57 972 l 210 972 l 210 0 l 57 0 l 57 972 m 360 -6 q 289 0 318 -6 l 289 139 q 339 133 311 133 q 407 156 385 133 q 429 226 429 179 l 429 972 l 582 972 l 582 231 q 527 53 582 111 q 360 -6 472 -6 z "},"ī":{"ha":267,"x_min":-26,"x_max":293,"o":"m 57 972 l 210 972 l 210 0 l 57 0 l 57 972 m -26 1158 l 293 1158 l 293 1050 l -26 1050 l -26 1158 z "},"į":{"ha":267,"x_min":24,"x_max":240,"o":"m 190 -119 q 224 -116 213 -119 q 240 -111 236 -112 l 240 -189 q 197 -201 217 -199 q 146 -204 176 -204 q 56 -182 89 -204 q 24 -118 24 -160 q 118 0 24 -47 l 57 0 l 57 972 l 210 972 l 210 0 l 183 0 q 142 -81 142 -35 q 156 -109 142 -99 q 190 -119 169 -119 z "},"ĩ":{"ha":267,"x_min":-60,"x_max":326,"o":"m 57 972 l 210 972 l 210 0 l 57 0 l 57 972 m -60 1076 q -3 1165 -33 1136 q 67 1193 28 1193 q 110 1186 92 1193 q 150 1167 129 1179 q 174 1154 163 1160 q 197 1149 186 1149 q 226 1161 214 1149 q 253 1203 239 1174 l 326 1158 q 269 1070 300 1099 q 200 1042 239 1042 q 156 1049 175 1042 q 117 1068 138 1056 q 92 1081 104 1075 q 69 1086 81 1086 q 40 1074 53 1086 q 14 1032 28 1061 l -60 1076 z "},"j":{"ha":368,"x_min":22,"x_max":315,"o":"m 93 -6 q 22 0 51 -6 l 22 139 q 72 133 44 133 q 140 156 118 133 q 163 226 163 179 l 163 972 l 315 972 l 315 231 q 260 53 315 111 q 93 -6 206 -6 z "},"ȷ":{"ha":368,"x_min":22,"x_max":315,"o":"m 93 -6 q 22 0 51 -6 l 22 139 q 72 133 44 133 q 140 156 118 133 q 163 226 163 179 l 163 972 l 315 972 l 315 231 q 260 53 315 111 q 93 -6 206 -6 z "},"ĵ":{"ha":368,"x_min":22,"x_max":404,"o":"m 93 -6 q 22 0 51 -6 l 22 139 q 72 133 44 133 q 140 156 118 133 q 163 226 163 179 l 163 972 l 315 972 l 315 231 q 260 53 315 111 q 93 -6 206 -6 m 146 1197 l 290 1197 l 404 1038 l 289 1038 l 218 1114 l 147 1038 l 32 1038 l 146 1197 z "},"k":{"ha":575,"x_min":57,"x_max":560,"o":"m 57 972 l 210 972 l 210 563 l 404 972 l 557 972 l 375 615 l 560 0 l 400 0 l 271 433 l 210 310 l 210 0 l 57 0 l 57 972 z "},"ķ":{"ha":575,"x_min":57,"x_max":560,"o":"m 57 972 l 210 972 l 210 563 l 404 972 l 557 972 l 375 615 l 560 0 l 400 0 l 271 433 l 210 310 l 210 0 l 57 0 l 57 972 m 288 -187 l 238 -187 l 238 -60 l 365 -60 l 365 -174 l 306 -262 l 251 -262 l 288 -187 z "},"ĸ":{"ha":575,"x_min":57,"x_max":560,"o":"m 57 972 l 210 972 l 210 563 l 404 972 l 557 972 l 375 615 l 560 0 l 400 0 l 271 433 l 210 310 l 210 0 l 57 0 l 57 972 z "},"l":{"ha":478,"x_min":57,"x_max":461,"o":"m 57 972 l 210 972 l 210 139 l 461 139 l 461 0 l 57 0 l 57 972 z "},"ĺ":{"ha":478,"x_min":57,"x_max":461,"o":"m 57 972 l 210 972 l 210 139 l 461 139 l 461 0 l 57 0 l 57 972 m 161 1197 l 328 1197 l 179 1038 l 64 1038 l 161 1197 z "},"ľ":{"ha":478,"x_min":57,"x_max":461,"o":"m 57 972 l 210 972 l 210 139 l 461 139 l 461 0 l 57 0 l 57 972 m 346 831 l 290 831 l 290 972 l 432 972 l 432 846 l 368 686 l 306 686 l 346 831 z "},"ļ":{"ha":478,"x_min":57,"x_max":461,"o":"m 57 972 l 210 972 l 210 139 l 461 139 l 461 0 l 57 0 l 57 972 m 246 -187 l 196 -187 l 196 -60 l 324 -60 l 324 -174 l 264 -262 l 210 -262 l 246 -187 z "},"ŀ":{"ha":476,"x_min":57,"x_max":461,"o":"m 57 972 l 210 972 l 210 139 l 461 139 l 461 0 l 57 0 l 57 972 m 297 560 l 444 560 l 444 413 l 297 413 l 297 560 z "},"ł":{"ha":506,"x_min":14,"x_max":489,"o":"m 489 139 l 489 0 l 85 0 l 85 222 l 14 146 l 14 313 l 85 389 l 85 972 l 238 972 l 238 553 l 403 729 l 403 563 l 238 386 l 238 139 l 489 139 z "},"m":{"ha":747,"x_min":57,"x_max":690,"o":"m 57 972 l 275 972 l 372 276 l 375 276 l 472 972 l 690 972 l 690 0 l 546 0 l 546 736 l 543 736 l 432 0 l 304 0 l 193 736 l 190 736 l 190 0 l 57 0 l 57 972 z "},"ṁ":{"ha":747,"x_min":57,"x_max":690,"o":"m 57 972 l 275 972 l 372 276 l 375 276 l 472 972 l 690 972 l 690 0 l 546 0 l 546 736 l 543 736 l 432 0 l 304 0 l 193 736 l 190 736 l 190 0 l 57 0 l 57 972 m 304 1179 l 443 1179 l 443 1038 l 304 1038 l 304 1179 z "},"n":{"ha":593,"x_min":57,"x_max":536,"o":"m 57 972 l 249 972 l 397 390 l 400 390 l 400 972 l 536 972 l 536 0 l 379 0 l 196 710 l 193 710 l 193 0 l 57 0 l 57 972 z "},"ń":{"ha":593,"x_min":57,"x_max":536,"o":"m 57 972 l 249 972 l 397 390 l 400 390 l 400 972 l 536 972 l 536 0 l 379 0 l 196 710 l 193 710 l 193 0 l 57 0 l 57 972 m 311 1197 l 478 1197 l 329 1038 l 214 1038 l 311 1197 z "},"ŉ":{"ha":753,"x_min":6,"x_max":696,"o":"m 64 825 l 6 825 l 6 972 l 153 972 l 153 840 l 86 686 l 24 686 l 64 825 m 217 972 l 408 972 l 557 390 l 560 390 l 560 972 l 696 972 l 696 0 l 539 0 l 356 710 l 353 710 l 353 0 l 217 0 l 217 972 z "},"ň":{"ha":593,"x_min":57,"x_max":536,"o":"m 57 972 l 249 972 l 397 390 l 400 390 l 400 972 l 536 972 l 536 0 l 379 0 l 196 710 l 193 710 l 193 0 l 57 0 l 57 972 m 111 1197 l 226 1197 l 297 1121 l 368 1197 l 483 1197 l 369 1038 l 225 1038 l 111 1197 z "},"ņ":{"ha":593,"x_min":57,"x_max":536,"o":"m 57 972 l 249 972 l 397 390 l 400 390 l 400 972 l 536 972 l 536 0 l 379 0 l 196 710 l 193 710 l 193 0 l 57 0 l 57 972 m 283 -187 l 233 -187 l 233 -60 l 361 -60 l 361 -174 l 301 -262 l 247 -262 l 283 -187 z "},"ŋ":{"ha":593,"x_min":57,"x_max":536,"o":"m 331 -236 q 263 -231 292 -236 l 263 -99 q 317 -104 285 -104 q 368 -85 347 -104 q 389 -25 389 -67 q 386 17 389 -1 q 375 64 383 35 l 196 726 l 193 726 l 193 0 l 57 0 l 57 972 l 249 972 l 397 422 l 400 422 l 400 972 l 536 972 l 536 -3 q 484 -178 536 -119 q 331 -236 432 -236 z "},"ñ":{"ha":593,"x_min":57,"x_max":536,"o":"m 57 972 l 249 972 l 397 390 l 400 390 l 400 972 l 536 972 l 536 0 l 379 0 l 196 710 l 193 710 l 193 0 l 57 0 l 57 972 m 104 1076 q 161 1165 131 1136 q 231 1193 192 1193 q 274 1186 256 1193 q 314 1167 293 1179 q 338 1154 326 1160 q 361 1149 350 1149 q 390 1161 378 1149 q 417 1203 403 1174 l 490 1158 q 433 1070 464 1099 q 364 1042 403 1042 q 320 1049 339 1042 q 281 1068 301 1056 q 256 1081 268 1075 q 233 1086 244 1086 q 204 1074 217 1086 q 178 1032 192 1061 l 104 1076 z "},"o":{"ha":556,"x_min":46,"x_max":510,"o":"m 278 -14 q 106 50 165 -14 q 46 231 46 114 l 46 742 q 106 922 46 858 q 278 986 165 986 q 450 922 390 986 q 510 742 510 858 l 510 231 q 450 50 510 114 q 278 -14 390 -14 m 278 125 q 357 221 357 125 l 357 751 q 278 847 357 847 q 199 751 199 847 l 199 221 q 278 125 199 125 z "},"ó":{"ha":556,"x_min":46,"x_max":510,"o":"m 278 -14 q 106 50 165 -14 q 46 231 46 114 l 46 742 q 106 922 46 858 q 278 986 165 986 q 450 922 390 986 q 510 742 510 858 l 510 231 q 450 50 510 114 q 278 -14 390 -14 m 278 125 q 357 221 357 125 l 357 751 q 278 847 357 847 q 199 751 199 847 l 199 221 q 278 125 199 125 m 292 1197 l 458 1197 l 310 1038 l 194 1038 l 292 1197 z "},"ŏ":{"ha":556,"x_min":46,"x_max":510,"o":"m 278 -14 q 106 50 165 -14 q 46 231 46 114 l 46 742 q 106 922 46 858 q 278 986 165 986 q 450 922 390 986 q 510 742 510 858 l 510 231 q 450 50 510 114 q 278 -14 390 -14 m 278 125 q 357 221 357 125 l 357 751 q 278 847 357 847 q 199 751 199 847 l 199 221 q 278 125 199 125 m 276 1032 q 158 1075 200 1032 q 114 1197 117 1118 l 204 1197 q 227 1145 210 1160 q 276 1131 244 1131 q 328 1145 310 1131 q 351 1197 346 1160 l 442 1197 q 397 1076 439 1119 q 276 1032 354 1032 z "},"ô":{"ha":556,"x_min":46,"x_max":510,"o":"m 278 -14 q 106 50 165 -14 q 46 231 46 114 l 46 742 q 106 922 46 858 q 278 986 165 986 q 450 922 390 986 q 510 742 510 858 l 510 231 q 450 50 510 114 q 278 -14 390 -14 m 278 125 q 357 221 357 125 l 357 751 q 278 847 357 847 q 199 751 199 847 l 199 221 q 278 125 199 125 m 206 1197 l 350 1197 l 464 1038 l 349 1038 l 278 1114 l 207 1038 l 92 1038 l 206 1197 z "},"ö":{"ha":556,"x_min":46,"x_max":510,"o":"m 278 -14 q 106 50 165 -14 q 46 231 46 114 l 46 742 q 106 922 46 858 q 278 986 165 986 q 450 922 390 986 q 510 742 510 858 l 510 231 q 450 50 510 114 q 278 -14 390 -14 m 278 125 q 357 221 357 125 l 357 751 q 278 847 357 847 q 199 751 199 847 l 199 221 q 278 125 199 125 m 103 1179 l 239 1179 l 239 1038 l 103 1038 l 103 1179 m 317 1179 l 453 1179 l 453 1038 l 317 1038 l 317 1179 z "},"ò":{"ha":556,"x_min":46,"x_max":510,"o":"m 278 -14 q 106 50 165 -14 q 46 231 46 114 l 46 742 q 106 922 46 858 q 278 986 165 986 q 450 922 390 986 q 510 742 510 858 l 510 231 q 450 50 510 114 q 278 -14 390 -14 m 278 125 q 357 221 357 125 l 357 751 q 278 847 357 847 q 199 751 199 847 l 199 221 q 278 125 199 125 m 97 1197 l 264 1197 l 361 1038 l 246 1038 l 97 1197 z "},"ő":{"ha":556,"x_min":46,"x_max":550,"o":"m 278 -14 q 106 50 165 -14 q 46 231 46 114 l 46 742 q 106 922 46 858 q 278 986 165 986 q 450 922 390 986 q 510 742 510 858 l 510 231 q 450 50 510 114 q 278 -14 390 -14 m 278 125 q 357 221 357 125 l 357 751 q 278 847 357 847 q 199 751 199 847 l 199 221 q 278 125 199 125 m 189 1197 l 343 1197 l 199 1038 l 92 1038 l 189 1197 m 396 1197 l 550 1197 l 406 1038 l 299 1038 l 396 1197 z "},"ō":{"ha":556,"x_min":46,"x_max":510,"o":"m 278 -14 q 106 50 165 -14 q 46 231 46 114 l 46 742 q 106 922 46 858 q 278 986 165 986 q 450 922 390 986 q 510 742 510 858 l 510 231 q 450 50 510 114 q 278 -14 390 -14 m 278 125 q 357 221 357 125 l 357 751 q 278 847 357 847 q 199 751 199 847 l 199 221 q 278 125 199 125 m 118 1158 l 438 1158 l 438 1050 l 118 1050 l 118 1158 z "},"ø":{"ha":556,"x_min":32,"x_max":524,"o":"m 483 874 q 510 742 510 821 l 510 231 q 450 50 510 114 q 278 -14 390 -14 q 139 22 194 -14 l 115 -36 l 32 0 l 72 99 q 46 231 46 151 l 46 742 q 106 922 46 858 q 278 986 165 986 q 417 950 361 986 l 440 1008 l 524 972 l 483 874 m 199 411 l 353 792 q 278 847 339 847 q 199 751 199 847 l 199 411 m 357 561 l 203 181 q 278 125 217 125 q 357 221 357 125 l 357 561 z "},"ǿ":{"ha":556,"x_min":32,"x_max":524,"o":"m 483 874 q 510 742 510 821 l 510 231 q 450 50 510 114 q 278 -14 390 -14 q 139 22 194 -14 l 115 -36 l 32 0 l 72 99 q 46 231 46 151 l 46 742 q 106 922 46 858 q 278 986 165 986 q 417 950 361 986 l 440 1008 l 524 972 l 483 874 m 199 411 l 353 792 q 278 847 339 847 q 199 751 199 847 l 199 411 m 357 561 l 203 181 q 278 125 217 125 q 357 221 357 125 l 357 561 m 292 1197 l 458 1197 l 310 1038 l 194 1038 l 292 1197 z "},"õ":{"ha":556,"x_min":46,"x_max":510,"o":"m 278 -14 q 106 50 165 -14 q 46 231 46 114 l 46 742 q 106 922 46 858 q 278 986 165 986 q 450 922 390 986 q 510 742 510 858 l 510 231 q 450 50 510 114 q 278 -14 390 -14 m 278 125 q 357 221 357 125 l 357 751 q 278 847 357 847 q 199 751 199 847 l 199 221 q 278 125 199 125 m 85 1076 q 142 1165 111 1136 q 211 1193 172 1193 q 255 1186 236 1193 q 294 1167 274 1179 q 319 1154 307 1160 q 342 1149 331 1149 q 371 1161 358 1149 q 397 1203 383 1174 l 471 1158 q 414 1070 444 1099 q 344 1042 383 1042 q 301 1049 319 1042 q 261 1068 282 1056 q 237 1081 249 1075 q 214 1086 225 1086 q 185 1074 197 1086 q 158 1032 172 1061 l 85 1076 z "},"œ":{"ha":801,"x_min":46,"x_max":771,"o":"m 274 0 q 103 61 160 0 q 46 240 46 122 l 46 732 q 103 911 46 850 q 274 972 160 972 l 771 972 l 771 833 l 507 833 l 507 576 l 717 576 l 717 438 l 507 438 l 507 139 l 771 139 l 771 0 l 274 0 m 354 139 l 354 833 l 276 833 q 219 811 239 833 q 199 739 199 789 l 199 233 q 219 161 199 183 q 276 139 239 139 l 354 139 z "},"p":{"ha":536,"x_min":57,"x_max":510,"o":"m 57 972 l 282 972 q 453 911 396 972 q 510 732 510 850 l 510 636 q 453 457 510 518 q 282 396 396 396 l 210 396 l 210 0 l 57 0 l 57 972 m 282 535 q 338 556 319 535 q 357 626 357 576 l 357 742 q 338 813 357 792 q 282 833 319 833 l 210 833 l 210 535 l 282 535 z "},"ṗ":{"ha":536,"x_min":57,"x_max":510,"o":"m 57 972 l 282 972 q 453 911 396 972 q 510 732 510 850 l 510 636 q 453 457 510 518 q 282 396 396 396 l 210 396 l 210 0 l 57 0 l 57 972 m 282 535 q 338 556 319 535 q 357 626 357 576 l 357 742 q 338 813 357 792 q 282 833 319 833 l 210 833 l 210 535 l 282 535 m 196 1179 l 335 1179 l 335 1038 l 196 1038 l 196 1179 z "},"þ":{"ha":536,"x_min":57,"x_max":510,"o":"m 57 972 l 210 972 l 210 835 l 282 835 q 453 774 396 835 q 510 594 510 713 l 510 499 q 453 319 510 381 q 282 258 396 258 l 210 258 l 210 0 l 57 0 l 57 972 m 282 397 q 338 418 319 397 q 357 489 357 439 l 357 604 q 338 675 357 654 q 282 696 319 696 l 210 696 l 210 397 l 282 397 z "},"q":{"ha":556,"x_min":46,"x_max":547,"o":"m 507 -90 q 379 3 403 -90 q 278 -14 336 -14 q 106 50 165 -14 q 46 231 46 114 l 46 742 q 106 922 46 858 q 278 986 165 986 q 450 922 390 986 q 510 742 510 858 l 510 231 q 467 71 510 133 q 488 53 475 57 q 524 49 500 49 l 547 49 l 547 -90 l 507 -90 m 278 125 q 357 221 357 125 l 357 751 q 278 847 357 847 q 199 751 199 847 l 199 221 q 278 125 199 125 z "},"r":{"ha":560,"x_min":57,"x_max":528,"o":"m 57 972 l 283 972 q 456 917 401 972 q 510 749 510 863 l 510 689 q 410 497 510 538 l 410 494 q 488 426 465 478 q 511 289 511 375 l 511 118 q 514 51 511 76 q 528 0 517 25 l 372 0 q 361 44 364 24 q 358 119 358 65 l 358 297 q 337 390 358 364 q 263 417 315 417 l 210 417 l 210 0 l 57 0 l 57 972 m 265 556 q 334 579 311 556 q 357 658 357 603 l 357 733 q 338 810 357 786 q 279 833 319 833 l 210 833 l 210 556 l 265 556 z "},"ŕ":{"ha":560,"x_min":57,"x_max":528,"o":"m 57 972 l 283 972 q 456 917 401 972 q 510 749 510 863 l 510 689 q 410 497 510 538 l 410 494 q 488 426 465 478 q 511 289 511 375 l 511 118 q 514 51 511 76 q 528 0 517 25 l 372 0 q 361 44 364 24 q 358 119 358 65 l 358 297 q 337 390 358 364 q 263 417 315 417 l 210 417 l 210 0 l 57 0 l 57 972 m 265 556 q 334 579 311 556 q 357 658 357 603 l 357 733 q 338 810 357 786 q 279 833 319 833 l 210 833 l 210 556 l 265 556 z "},"ř":{"ha":560,"x_min":57,"x_max":528,"o":"m 57 972 l 283 972 q 456 917 401 972 q 510 749 510 863 l 510 689 q 410 497 510 538 l 410 494 q 488 426 465 478 q 511 289 511 375 l 511 118 q 514 51 511 76 q 528 0 517 25 l 372 0 q 361 44 364 24 q 358 119 358 65 l 358 297 q 337 390 358 364 q 263 417 315 417 l 210 417 l 210 0 l 57 0 l 57 972 m 265 556 q 334 579 311 556 q 357 658 357 603 l 357 733 q 338 810 357 786 q 279 833 319 833 l 210 833 l 210 556 l 265 556 m 82 1197 l 197 1197 l 268 1121 l 339 1197 l 454 1197 l 340 1038 l 196 1038 l 82 1197 z "},"ŗ":{"ha":560,"x_min":57,"x_max":528,"o":"m 57 972 l 283 972 q 456 917 401 972 q 510 749 510 863 l 510 689 q 410 497 510 538 l 410 494 q 488 426 465 478 q 511 289 511 375 l 511 118 q 514 51 511 76 q 528 0 517 25 l 372 0 q 361 44 364 24 q 358 119 358 65 l 358 297 q 337 390 358 364 q 263 417 315 417 l 210 417 l 210 0 l 57 0 l 57 972 m 265 556 q 334 579 311 556 q 357 658 357 603 l 357 733 q 338 810 357 786 q 279 833 319 833 l 210 833 l 210 556 l 265 556 m 268 -187 l 218 -187 l 218 -60 l 346 -60 l 346 -174 l 286 -262 l 232 -262 l 268 -187 z "},"s":{"ha":517,"x_min":31,"x_max":486,"o":"m 256 -14 q 88 49 144 -14 q 31 231 31 113 l 31 286 l 175 286 l 175 219 q 254 125 175 125 q 313 148 293 125 q 333 222 333 171 q 306 330 333 283 q 203 442 278 376 q 71 592 108 525 q 33 744 33 660 q 92 923 33 860 q 261 986 150 986 q 427 923 371 986 q 483 742 483 860 l 483 701 l 339 701 l 339 751 q 319 824 339 801 q 263 847 300 847 q 186 754 186 847 q 215 656 186 701 q 318 544 243 610 q 450 393 414 461 q 486 233 486 325 q 427 50 486 114 q 256 -14 368 -14 z "},"ś":{"ha":517,"x_min":31,"x_max":486,"o":"m 256 -14 q 88 49 144 -14 q 31 231 31 113 l 31 286 l 175 286 l 175 219 q 254 125 175 125 q 313 148 293 125 q 333 222 333 171 q 306 330 333 283 q 203 442 278 376 q 71 592 108 525 q 33 744 33 660 q 92 923 33 860 q 261 986 150 986 q 427 923 371 986 q 483 742 483 860 l 483 701 l 339 701 l 339 751 q 319 824 339 801 q 263 847 300 847 q 186 754 186 847 q 215 656 186 701 q 318 544 243 610 q 450 393 414 461 q 486 233 486 325 q 427 50 486 114 q 256 -14 368 -14 m 272 1197 l 439 1197 l 290 1038 l 175 1038 l 272 1197 z "},"š":{"ha":517,"x_min":31,"x_max":486,"o":"m 256 -14 q 88 49 144 -14 q 31 231 31 113 l 31 286 l 175 286 l 175 219 q 254 125 175 125 q 313 148 293 125 q 333 222 333 171 q 306 330 333 283 q 203 442 278 376 q 71 592 108 525 q 33 744 33 660 q 92 923 33 860 q 261 986 150 986 q 427 923 371 986 q 483 742 483 860 l 483 701 l 339 701 l 339 751 q 319 824 339 801 q 263 847 300 847 q 186 754 186 847 q 215 656 186 701 q 318 544 243 610 q 450 393 414 461 q 486 233 486 325 q 427 50 486 114 q 256 -14 368 -14 z "},"ş":{"ha":517,"x_min":31,"x_max":486,"o":"m 486 233 q 437 61 486 125 q 293 -12 388 -3 l 293 -54 q 365 -69 340 -54 q 389 -119 389 -85 q 354 -187 389 -171 q 247 -204 319 -204 q 149 -186 183 -204 q 114 -124 114 -168 l 114 -110 l 217 -110 l 217 -121 q 226 -142 217 -135 q 247 -149 235 -149 q 275 -141 267 -149 q 283 -115 283 -133 q 271 -87 283 -96 q 232 -79 258 -79 l 225 -79 l 225 -12 q 80 58 129 -4 q 31 231 31 121 l 31 286 l 175 286 l 175 219 q 254 125 175 125 q 313 148 293 125 q 333 222 333 171 q 306 330 333 283 q 203 442 278 376 q 71 592 108 525 q 33 744 33 660 q 92 923 33 860 q 261 986 150 986 q 427 923 371 986 q 483 742 483 860 l 483 701 l 339 701 l 339 751 q 319 824 339 801 q 263 847 300 847 q 186 754 186 847 q 215 656 186 701 q 318 544 243 610 q 450 393 414 461 q 486 233 486 325 z "},"ŝ":{"ha":517,"x_min":31,"x_max":486,"o":"m 256 -14 q 88 49 144 -14 q 31 231 31 113 l 31 286 l 175 286 l 175 219 q 254 125 175 125 q 313 148 293 125 q 333 222 333 171 q 306 330 333 283 q 203 442 278 376 q 71 592 108 525 q 33 744 33 660 q 92 923 33 860 q 261 986 150 986 q 427 923 371 986 q 483 742 483 860 l 483 701 l 339 701 l 339 751 q 319 824 339 801 q 263 847 300 847 q 186 754 186 847 q 215 656 186 701 q 318 544 243 610 q 450 393 414 461 q 486 233 486 325 q 427 50 486 114 q 256 -14 368 -14 m 186 1197 l 331 1197 l 444 1038 l 329 1038 l 258 1114 l 188 1038 l 72 1038 l 186 1197 z "},"ș":{"ha":517,"x_min":31,"x_max":486,"o":"m 256 -14 q 88 49 144 -14 q 31 231 31 113 l 31 286 l 175 286 l 175 219 q 254 125 175 125 q 313 148 293 125 q 333 222 333 171 q 306 330 333 283 q 203 442 278 376 q 71 592 108 525 q 33 744 33 660 q 92 923 33 860 q 261 986 150 986 q 427 923 371 986 q 483 742 483 860 l 483 701 l 339 701 l 339 751 q 319 824 339 801 q 263 847 300 847 q 186 754 186 847 q 215 656 186 701 q 318 544 243 610 q 450 393 414 461 q 486 233 486 325 q 427 50 486 114 q 256 -14 368 -14 m 244 -187 l 194 -187 l 194 -60 l 322 -60 l 322 -174 l 263 -262 l 208 -262 l 244 -187 z "},"ṡ":{"ha":517,"x_min":31,"x_max":486,"o":"m 256 -14 q 88 49 144 -14 q 31 231 31 113 l 31 286 l 175 286 l 175 219 q 254 125 175 125 q 313 148 293 125 q 333 222 333 171 q 306 330 333 283 q 203 442 278 376 q 71 592 108 525 q 33 744 33 660 q 92 923 33 860 q 261 986 150 986 q 427 923 371 986 q 483 742 483 860 l 483 701 l 339 701 l 339 751 q 319 824 339 801 q 263 847 300 847 q 186 754 186 847 q 215 656 186 701 q 318 544 243 610 q 450 393 414 461 q 486 233 486 325 q 427 50 486 114 q 256 -14 368 -14 m 189 1179 l 328 1179 l 328 1038 l 189 1038 l 189 1179 z "},"ß":{"ha":565,"x_min":57,"x_max":535,"o":"m 57 972 l 521 972 l 521 836 l 414 574 q 535 350 535 536 l 535 240 q 478 61 535 122 q 307 0 421 0 l 269 0 l 269 139 l 307 139 q 363 160 344 139 q 382 231 382 181 l 382 360 q 363 431 382 410 q 307 451 344 451 l 269 451 l 269 581 l 371 833 l 210 833 l 210 0 l 57 0 l 57 972 z "},"t":{"ha":506,"x_min":17,"x_max":489,"o":"m 176 833 l 17 833 l 17 972 l 489 972 l 489 833 l 329 833 l 329 0 l 176 0 l 176 833 z "},"ŧ":{"ha":506,"x_min":17,"x_max":489,"o":"m 329 833 l 329 576 l 435 576 l 435 438 l 329 438 l 329 0 l 176 0 l 176 438 l 71 438 l 71 576 l 176 576 l 176 833 l 17 833 l 17 972 l 489 972 l 489 833 l 329 833 z "},"ť":{"ha":506,"x_min":17,"x_max":489,"o":"m 176 833 l 17 833 l 17 972 l 489 972 l 489 833 l 329 833 l 329 0 l 176 0 l 176 833 m 67 1197 l 182 1197 l 253 1121 l 324 1197 l 439 1197 l 325 1038 l 181 1038 l 67 1197 z "},"ţ":{"ha":506,"x_min":17,"x_max":489,"o":"m 288 0 l 288 -54 q 359 -69 335 -54 q 383 -119 383 -85 q 349 -187 383 -171 q 242 -204 314 -204 q 143 -186 178 -204 q 108 -124 108 -168 l 108 -110 l 211 -110 l 211 -121 q 220 -142 211 -135 q 242 -149 229 -149 q 269 -141 261 -149 q 278 -115 278 -133 q 265 -87 278 -96 q 226 -79 253 -79 l 219 -79 l 219 0 l 176 0 l 176 833 l 17 833 l 17 972 l 489 972 l 489 833 l 329 833 l 329 0 l 288 0 z "},"ț":{"ha":506,"x_min":17,"x_max":489,"o":"m 176 833 l 17 833 l 17 972 l 489 972 l 489 833 l 329 833 l 329 0 l 176 0 l 176 833 m 239 -187 l 189 -187 l 189 -60 l 317 -60 l 317 -174 l 257 -262 l 203 -262 l 239 -187 z "},"ṫ":{"ha":506,"x_min":17,"x_max":489,"o":"m 176 833 l 17 833 l 17 972 l 489 972 l 489 833 l 329 833 l 329 0 l 176 0 l 176 833 m 183 1179 l 322 1179 l 322 1038 l 183 1038 l 183 1179 z "},"u":{"ha":558,"x_min":51,"x_max":507,"o":"m 279 -14 q 110 49 168 -14 q 51 231 51 113 l 51 972 l 204 972 l 204 219 q 224 147 204 169 q 282 125 244 125 q 340 147 319 125 q 360 219 360 169 l 360 972 l 507 972 l 507 231 q 449 49 507 113 q 279 -14 390 -14 z "},"ú":{"ha":558,"x_min":51,"x_max":507,"o":"m 279 -14 q 110 49 168 -14 q 51 231 51 113 l 51 972 l 204 972 l 204 219 q 224 147 204 169 q 282 125 244 125 q 340 147 319 125 q 360 219 360 169 l 360 972 l 507 972 l 507 231 q 449 49 507 113 q 279 -14 390 -14 m 293 1197 l 460 1197 l 311 1038 l 196 1038 l 293 1197 z "},"ŭ":{"ha":558,"x_min":51,"x_max":507,"o":"m 279 -14 q 110 49 168 -14 q 51 231 51 113 l 51 972 l 204 972 l 204 219 q 224 147 204 169 q 282 125 244 125 q 340 147 319 125 q 360 219 360 169 l 360 972 l 507 972 l 507 231 q 449 49 507 113 q 279 -14 390 -14 m 278 1032 q 160 1075 201 1032 q 115 1197 118 1118 l 206 1197 q 228 1145 211 1160 q 278 1131 246 1131 q 329 1145 311 1131 q 353 1197 347 1160 l 443 1197 q 398 1076 440 1119 q 278 1032 356 1032 z "},"û":{"ha":558,"x_min":51,"x_max":507,"o":"m 279 -14 q 110 49 168 -14 q 51 231 51 113 l 51 972 l 204 972 l 204 219 q 224 147 204 169 q 282 125 244 125 q 340 147 319 125 q 360 219 360 169 l 360 972 l 507 972 l 507 231 q 449 49 507 113 q 279 -14 390 -14 m 207 1197 l 351 1197 l 465 1038 l 350 1038 l 279 1114 l 208 1038 l 93 1038 l 207 1197 z "},"ü":{"ha":558,"x_min":51,"x_max":507,"o":"m 279 -14 q 110 49 168 -14 q 51 231 51 113 l 51 972 l 204 972 l 204 219 q 224 147 204 169 q 282 125 244 125 q 340 147 319 125 q 360 219 360 169 l 360 972 l 507 972 l 507 231 q 449 49 507 113 q 279 -14 390 -14 m 104 1179 l 240 1179 l 240 1038 l 104 1038 l 104 1179 m 318 1179 l 454 1179 l 454 1038 l 318 1038 l 318 1179 z "},"ù":{"ha":558,"x_min":51,"x_max":507,"o":"m 279 -14 q 110 49 168 -14 q 51 231 51 113 l 51 972 l 204 972 l 204 219 q 224 147 204 169 q 282 125 244 125 q 340 147 319 125 q 360 219 360 169 l 360 972 l 507 972 l 507 231 q 449 49 507 113 q 279 -14 390 -14 m 99 1197 l 265 1197 l 363 1038 l 247 1038 l 99 1197 z "},"ű":{"ha":558,"x_min":51,"x_max":551,"o":"m 279 -14 q 110 49 168 -14 q 51 231 51 113 l 51 972 l 204 972 l 204 219 q 224 147 204 169 q 282 125 244 125 q 340 147 319 125 q 360 219 360 169 l 360 972 l 507 972 l 507 231 q 449 49 507 113 q 279 -14 390 -14 m 190 1197 l 344 1197 l 200 1038 l 93 1038 l 190 1197 m 397 1197 l 551 1197 l 407 1038 l 300 1038 l 397 1197 z "},"ū":{"ha":558,"x_min":51,"x_max":507,"o":"m 279 -14 q 110 49 168 -14 q 51 231 51 113 l 51 972 l 204 972 l 204 219 q 224 147 204 169 q 282 125 244 125 q 340 147 319 125 q 360 219 360 169 l 360 972 l 507 972 l 507 231 q 449 49 507 113 q 279 -14 390 -14 m 119 1158 l 439 1158 l 439 1050 l 119 1050 l 119 1158 z "},"ų":{"ha":558,"x_min":51,"x_max":507,"o":"m 507 972 l 507 231 q 467 72 507 133 q 349 -7 426 11 q 314 -81 314 -40 q 328 -109 314 -99 q 363 -119 342 -119 q 397 -116 385 -119 q 413 -111 408 -112 l 413 -189 q 369 -201 389 -199 q 318 -204 349 -204 q 228 -182 261 -204 q 196 -118 196 -160 q 267 -14 196 -58 q 106 53 161 -10 q 51 231 51 117 l 51 972 l 204 972 l 204 219 q 224 147 204 169 q 282 125 244 125 q 340 147 319 125 q 360 219 360 169 l 360 972 l 507 972 z "},"ů":{"ha":558,"x_min":51,"x_max":507,"o":"m 279 -14 q 110 49 168 -14 q 51 231 51 113 l 51 972 l 204 972 l 204 219 q 224 147 204 169 q 282 125 244 125 q 340 147 319 125 q 360 219 360 169 l 360 972 l 507 972 l 507 231 q 449 49 507 113 q 279 -14 390 -14 m 279 1022 q 191 1058 226 1022 q 156 1144 156 1093 q 191 1231 156 1196 q 279 1267 226 1267 q 367 1231 332 1267 q 403 1144 403 1196 q 367 1058 403 1093 q 279 1022 332 1022 m 279 1096 q 311 1109 299 1096 q 324 1144 324 1122 q 311 1180 324 1167 q 279 1193 299 1193 q 247 1180 260 1193 q 235 1144 235 1167 q 247 1109 235 1122 q 279 1096 260 1096 z "},"ũ":{"ha":558,"x_min":51,"x_max":507,"o":"m 279 -14 q 110 49 168 -14 q 51 231 51 113 l 51 972 l 204 972 l 204 219 q 224 147 204 169 q 282 125 244 125 q 340 147 319 125 q 360 219 360 169 l 360 972 l 507 972 l 507 231 q 449 49 507 113 q 279 -14 390 -14 m 86 1076 q 143 1165 113 1136 q 213 1193 174 1193 q 256 1186 238 1193 q 296 1167 275 1179 q 320 1154 308 1160 q 343 1149 332 1149 q 372 1161 360 1149 q 399 1203 385 1174 l 472 1158 q 415 1070 446 1099 q 346 1042 385 1042 q 302 1049 321 1042 q 263 1068 283 1056 q 238 1081 250 1075 q 215 1086 226 1086 q 186 1074 199 1086 q 160 1032 174 1061 l 86 1076 z "},"v":{"ha":531,"x_min":17,"x_max":514,"o":"m 17 972 l 171 972 l 271 218 l 274 218 l 374 972 l 514 972 l 367 0 l 164 0 l 17 972 z "},"w":{"ha":774,"x_min":21,"x_max":753,"o":"m 21 972 l 168 972 l 236 225 l 239 225 l 311 972 l 478 972 l 550 225 l 553 225 l 621 972 l 753 972 l 654 0 l 464 0 l 394 656 l 392 656 l 322 0 l 119 0 l 21 972 z "},"ẃ":{"ha":774,"x_min":21,"x_max":753,"o":"m 21 972 l 168 972 l 236 225 l 239 225 l 311 972 l 478 972 l 550 225 l 553 225 l 621 972 l 753 972 l 654 0 l 464 0 l 394 656 l 392 656 l 322 0 l 119 0 l 21 972 m 401 1197 l 568 1197 l 419 1038 l 304 1038 l 401 1197 z "},"ŵ":{"ha":774,"x_min":21,"x_max":753,"o":"m 21 972 l 168 972 l 236 225 l 239 225 l 311 972 l 478 972 l 550 225 l 553 225 l 621 972 l 753 972 l 654 0 l 464 0 l 394 656 l 392 656 l 322 0 l 119 0 l 21 972 m 315 1197 l 460 1197 l 574 1038 l 458 1038 l 388 1114 l 317 1038 l 201 1038 l 315 1197 z "},"ẅ":{"ha":774,"x_min":21,"x_max":753,"o":"m 21 972 l 168 972 l 236 225 l 239 225 l 311 972 l 478 972 l 550 225 l 553 225 l 621 972 l 753 972 l 654 0 l 464 0 l 394 656 l 392 656 l 322 0 l 119 0 l 21 972 m 213 1179 l 349 1179 l 349 1038 l 213 1038 l 213 1179 m 426 1179 l 563 1179 l 563 1038 l 426 1038 l 426 1179 z "},"ẁ":{"ha":774,"x_min":21,"x_max":753,"o":"m 21 972 l 168 972 l 236 225 l 239 225 l 311 972 l 478 972 l 550 225 l 553 225 l 621 972 l 753 972 l 654 0 l 464 0 l 394 656 l 392 656 l 322 0 l 119 0 l 21 972 m 207 1197 l 374 1197 l 471 1038 l 356 1038 l 207 1197 z "},"x":{"ha":564,"x_min":15,"x_max":549,"o":"m 192 497 l 24 972 l 185 972 l 288 658 l 290 658 l 396 972 l 540 972 l 372 497 l 549 0 l 388 0 l 276 339 l 274 339 l 160 0 l 15 0 l 192 497 z "},"y":{"ha":547,"x_min":13,"x_max":535,"o":"m 197 414 l 13 972 l 175 972 l 279 615 l 282 615 l 386 972 l 535 972 l 350 414 l 350 0 l 197 0 l 197 414 z "},"ý":{"ha":547,"x_min":13,"x_max":535,"o":"m 197 414 l 13 972 l 175 972 l 279 615 l 282 615 l 386 972 l 535 972 l 350 414 l 350 0 l 197 0 l 197 414 m 288 1197 l 454 1197 l 306 1038 l 190 1038 l 288 1197 z "},"ŷ":{"ha":547,"x_min":13,"x_max":535,"o":"m 197 414 l 13 972 l 175 972 l 279 615 l 282 615 l 386 972 l 535 972 l 350 414 l 350 0 l 197 0 l 197 414 m 201 1197 l 346 1197 l 460 1038 l 344 1038 l 274 1114 l 203 1038 l 88 1038 l 201 1197 z "},"ÿ":{"ha":547,"x_min":13,"x_max":535,"o":"m 197 414 l 13 972 l 175 972 l 279 615 l 282 615 l 386 972 l 535 972 l 350 414 l 350 0 l 197 0 l 197 414 m 99 1179 l 235 1179 l 235 1038 l 99 1038 l 99 1179 m 313 1179 l 449 1179 l 449 1038 l 313 1038 l 313 1179 z "},"ỳ":{"ha":547,"x_min":13,"x_max":535,"o":"m 197 414 l 13 972 l 175 972 l 279 615 l 282 615 l 386 972 l 535 972 l 350 414 l 350 0 l 197 0 l 197 414 m 93 1197 l 260 1197 l 357 1038 l 242 1038 l 93 1197 z "},"z":{"ha":503,"x_min":26,"x_max":474,"o":"m 26 136 l 310 833 l 40 833 l 40 972 l 474 972 l 474 836 l 190 139 l 474 139 l 474 0 l 26 0 l 26 136 z "},"ź":{"ha":503,"x_min":26,"x_max":474,"o":"m 26 136 l 310 833 l 40 833 l 40 972 l 474 972 l 474 836 l 190 139 l 474 139 l 474 0 l 26 0 l 26 136 m 271 1197 l 438 1197 l 289 1038 l 174 1038 l 271 1197 z "},"ž":{"ha":503,"x_min":26,"x_max":474,"o":"m 26 136 l 310 833 l 40 833 l 40 972 l 474 972 l 474 836 l 190 139 l 474 139 l 474 0 l 26 0 l 26 136 m 71 1197 l 186 1197 l 257 1121 l 328 1197 l 443 1197 l 329 1038 l 185 1038 l 71 1197 z "},"ż":{"ha":503,"x_min":26,"x_max":474,"o":"m 26 136 l 310 833 l 40 833 l 40 972 l 474 972 l 474 836 l 190 139 l 474 139 l 474 0 l 26 0 l 26 136 m 188 1179 l 326 1179 l 326 1038 l 188 1038 l 188 1179 z "},"ª":{"ha":389,"x_min":42,"x_max":336,"o":"m 150 463 q 69 497 96 463 q 42 596 42 532 l 42 601 q 89 727 42 686 q 239 772 136 768 l 239 846 q 197 897 239 897 q 161 883 172 897 q 150 838 150 869 l 150 819 l 58 819 l 58 832 q 199 986 58 986 q 301 946 267 986 q 336 832 336 906 l 336 469 l 254 469 l 250 536 l 247 536 q 150 463 214 463 m 185 551 q 239 601 229 551 l 239 700 q 163 677 188 697 q 139 617 139 657 l 139 604 q 185 551 139 551 m 42 392 l 336 392 l 336 297 l 42 297 l 42 392 z "},"º":{"ha":392,"x_min":49,"x_max":343,"o":"m 196 463 q 87 503 125 463 q 49 617 49 543 l 49 832 q 87 946 49 906 q 196 986 125 986 q 305 946 267 986 q 343 832 343 906 l 343 617 q 305 503 343 543 q 196 463 267 463 m 196 551 q 246 611 246 551 l 246 838 q 196 897 246 897 q 158 883 171 897 q 146 838 146 869 l 146 611 q 158 565 146 579 q 196 551 171 551 m 49 392 l 343 392 l 343 297 l 49 297 l 49 392 z "},"Δ":{"ha":557,"x_min":17,"x_max":540,"o":"m 175 972 l 382 972 l 540 0 l 17 0 l 175 972 m 367 139 l 274 789 l 271 789 l 178 139 l 367 139 z "},"Ω":{"ha":558,"x_min":47,"x_max":511,"o":"m 47 139 l 158 139 l 158 142 q 73 282 99 208 q 47 469 47 356 l 47 742 q 107 922 47 858 q 279 986 167 986 q 451 922 392 986 q 511 742 511 858 l 511 469 q 485 281 511 356 q 400 142 460 207 l 400 139 l 511 139 l 511 0 l 301 0 l 301 139 q 347 256 335 197 q 358 404 358 314 l 358 751 q 279 847 358 847 q 200 751 200 847 l 200 404 q 212 256 200 314 q 257 139 224 197 l 257 0 l 47 0 l 47 139 z "},"μ":{"ha":563,"x_min":57,"x_max":515,"o":"m 57 694 l 210 694 l 210 207 q 282 128 210 128 q 341 151 319 128 q 363 224 363 174 l 363 694 l 515 694 l 515 0 l 376 0 l 376 72 q 321 15 356 36 q 243 -6 286 -6 l 210 -6 l 210 -222 l 57 -222 l 57 694 z "},"π":{"ha":628,"x_min":19,"x_max":608,"o":"m 103 556 l 19 556 l 19 694 l 608 694 l 608 556 l 525 556 l 525 0 l 372 0 l 372 556 l 256 556 l 256 0 l 103 0 l 103 556 z "},"₀":{"ha":392,"x_min":49,"x_max":343,"o":"m 196 -104 q 86 -64 124 -104 q 49 51 49 -24 l 49 385 q 86 500 49 460 q 196 540 124 540 q 306 500 268 540 q 343 385 343 460 l 343 51 q 306 -64 343 -24 q 196 -104 268 -104 m 196 -17 q 246 44 246 -17 l 246 392 q 196 453 246 453 q 146 392 146 453 l 146 44 q 196 -17 146 -17 z "},"₁":{"ha":392,"x_min":81,"x_max":281,"o":"m 183 381 l 81 381 l 81 449 q 169 465 140 449 q 217 526 197 482 l 281 526 l 281 -90 l 183 -90 l 183 381 z "},"₂":{"ha":392,"x_min":53,"x_max":342,"o":"m 53 -21 q 74 94 53 46 q 149 200 94 142 q 224 297 203 256 q 244 388 244 339 q 233 437 244 421 q 194 453 221 453 q 144 392 144 453 l 144 335 l 53 335 l 53 386 q 90 501 53 461 q 197 540 126 540 q 305 501 268 540 q 342 390 342 463 q 315 277 342 331 q 222 153 289 224 q 164 77 179 106 q 149 14 149 49 l 149 -3 l 333 -3 l 333 -90 l 53 -90 l 53 -21 z "},"₃":{"ha":392,"x_min":47,"x_max":336,"o":"m 192 -104 q 84 -64 121 -104 q 47 51 47 -24 l 47 103 l 139 103 l 139 44 q 189 -17 139 -17 q 226 -1 214 -17 q 239 54 239 15 l 239 110 q 224 170 239 153 q 176 188 210 188 l 143 188 l 143 275 l 181 275 q 239 342 239 275 l 239 382 q 226 437 239 421 q 189 453 214 453 q 139 392 139 453 l 139 354 l 47 354 l 47 385 q 84 500 47 460 q 192 540 121 540 q 299 500 263 540 q 336 385 336 460 l 336 358 q 319 280 336 310 q 268 235 303 250 l 268 232 q 336 103 336 203 l 336 51 q 299 -64 336 -24 q 192 -104 263 -104 z "},"₄":{"ha":392,"x_min":32,"x_max":360,"o":"m 217 21 l 32 21 l 32 108 l 208 526 l 314 526 l 314 108 l 360 108 l 360 21 l 314 21 l 314 -90 l 217 -90 l 217 21 m 218 108 l 218 351 l 215 351 l 119 108 l 218 108 z "},"₅":{"ha":392,"x_min":53,"x_max":342,"o":"m 197 -104 q 90 -64 126 -104 q 53 51 53 -24 l 53 86 l 144 86 l 144 46 q 194 -14 144 -14 q 244 46 244 -14 l 244 185 q 194 246 244 246 q 144 185 144 246 l 144 172 l 53 172 l 71 526 l 326 526 l 326 439 l 156 439 l 149 289 l 151 289 q 235 335 178 335 q 315 298 288 335 q 342 193 342 261 l 342 51 q 305 -64 342 -24 q 197 -104 268 -104 z "},"₆":{"ha":392,"x_min":51,"x_max":346,"o":"m 199 -104 q 90 -64 128 -104 q 51 51 51 -24 l 51 381 q 200 540 51 540 q 308 500 271 540 q 344 385 344 460 l 344 376 l 253 376 l 253 392 q 203 453 253 453 q 162 436 175 453 q 149 376 149 419 l 149 249 l 151 249 q 239 301 176 301 q 319 265 292 301 q 346 161 346 229 l 346 51 q 308 -64 346 -24 q 199 -104 269 -104 m 199 -17 q 249 43 249 -17 l 249 153 q 199 214 249 214 q 149 153 149 214 l 149 43 q 199 -17 149 -17 z "},"₇":{"ha":392,"x_min":49,"x_max":340,"o":"m 246 439 l 49 439 l 49 526 l 340 526 l 340 442 l 186 -90 l 89 -90 l 246 439 z "},"₈":{"ha":392,"x_min":44,"x_max":347,"o":"m 196 -104 q 84 -63 124 -104 q 44 51 44 -22 l 44 100 q 104 228 44 194 l 104 231 q 44 353 44 264 l 44 385 q 84 499 44 458 q 196 540 124 540 q 308 499 268 540 q 347 385 347 458 l 347 353 q 288 231 347 264 l 288 228 q 347 100 347 194 l 347 51 q 308 -63 347 -22 q 196 -104 268 -104 m 196 275 q 250 340 250 275 l 250 388 q 196 453 250 453 q 142 388 142 453 l 142 340 q 196 275 142 275 m 196 -17 q 250 53 250 -17 l 250 118 q 196 188 250 188 q 142 118 142 188 l 142 53 q 196 -17 142 -17 z "},"₉":{"ha":392,"x_min":46,"x_max":340,"o":"m 192 -104 q 84 -64 121 -104 q 47 51 47 -24 l 47 60 l 139 60 l 139 44 q 189 -17 139 -17 q 230 0 217 -17 q 243 60 243 17 l 243 188 l 240 188 q 153 135 215 135 q 73 171 100 135 q 46 275 46 207 l 46 385 q 84 500 46 460 q 193 540 122 540 q 302 500 264 540 q 340 385 340 460 l 340 56 q 192 -104 340 -104 m 193 222 q 243 283 243 222 l 243 393 q 193 453 243 453 q 143 393 143 453 l 143 283 q 193 222 143 222 z "},"⁰":{"ha":392,"x_min":49,"x_max":343,"o":"m 196 474 q 86 514 124 474 q 49 629 49 554 l 49 963 q 86 1078 49 1038 q 196 1118 124 1118 q 306 1078 268 1118 q 343 963 343 1038 l 343 629 q 306 514 343 554 q 196 474 268 474 m 196 561 q 246 622 246 561 l 246 969 q 196 1031 246 1031 q 146 969 146 1031 l 146 622 q 196 561 146 561 z "},"¹":{"ha":392,"x_min":81,"x_max":281,"o":"m 183 958 l 81 958 l 81 1026 q 169 1043 140 1026 q 217 1104 197 1060 l 281 1104 l 281 488 l 183 488 l 183 958 z "},"²":{"ha":392,"x_min":53,"x_max":342,"o":"m 53 557 q 74 672 53 624 q 149 778 94 719 q 224 875 203 833 q 244 965 244 917 q 233 1015 244 999 q 194 1031 221 1031 q 144 969 144 1031 l 144 913 l 53 913 l 53 964 q 90 1078 53 1039 q 197 1118 126 1118 q 305 1079 268 1118 q 342 968 342 1040 q 315 855 342 908 q 222 731 289 801 q 164 655 179 683 q 149 592 149 626 l 149 575 l 333 575 l 333 488 l 53 488 l 53 557 z "},"³":{"ha":392,"x_min":47,"x_max":336,"o":"m 192 474 q 84 514 121 474 q 47 629 47 554 l 47 681 l 139 681 l 139 622 q 189 561 139 561 q 226 577 214 561 q 239 632 239 593 l 239 688 q 224 748 239 731 q 176 765 210 765 l 143 765 l 143 853 l 181 853 q 239 919 239 853 l 239 960 q 226 1015 239 999 q 189 1031 214 1031 q 139 969 139 1031 l 139 932 l 47 932 l 47 963 q 84 1078 47 1038 q 192 1118 121 1118 q 299 1078 263 1118 q 336 963 336 1038 l 336 936 q 319 858 336 888 q 268 813 303 828 l 268 810 q 336 681 336 781 l 336 629 q 299 514 336 554 q 192 474 263 474 z "},"⁴":{"ha":392,"x_min":32,"x_max":360,"o":"m 217 599 l 32 599 l 32 686 l 208 1104 l 314 1104 l 314 686 l 360 686 l 360 599 l 314 599 l 314 488 l 217 488 l 217 599 m 218 686 l 218 929 l 215 929 l 119 686 l 218 686 z "},"⁵":{"ha":392,"x_min":53,"x_max":342,"o":"m 197 474 q 90 514 126 474 q 53 629 53 554 l 53 664 l 144 664 l 144 624 q 194 564 144 564 q 244 624 244 564 l 244 763 q 194 824 244 824 q 144 763 144 824 l 144 750 l 53 750 l 71 1104 l 326 1104 l 326 1017 l 156 1017 l 149 867 l 151 867 q 235 913 178 913 q 315 876 288 913 q 342 771 342 839 l 342 629 q 305 514 342 554 q 197 474 268 474 z "},"⁶":{"ha":392,"x_min":51,"x_max":346,"o":"m 199 474 q 90 514 128 474 q 51 629 51 554 l 51 958 q 200 1118 51 1118 q 308 1078 271 1118 q 344 963 344 1038 l 344 954 l 253 954 l 253 969 q 203 1031 253 1031 q 162 1014 175 1031 q 149 954 149 997 l 149 826 l 151 826 q 239 879 176 879 q 319 843 292 879 q 346 739 346 807 l 346 629 q 308 514 346 554 q 199 474 269 474 m 199 561 q 249 621 249 561 l 249 731 q 199 792 249 792 q 149 731 149 792 l 149 621 q 199 561 149 561 z "},"⁷":{"ha":392,"x_min":49,"x_max":340,"o":"m 246 1017 l 49 1017 l 49 1104 l 340 1104 l 340 1019 l 186 488 l 89 488 l 246 1017 z "},"⁸":{"ha":392,"x_min":44,"x_max":347,"o":"m 196 474 q 84 515 124 474 q 44 629 44 556 l 44 678 q 104 806 44 772 l 104 808 q 44 931 44 842 l 44 963 q 84 1077 44 1036 q 196 1118 124 1118 q 308 1077 268 1118 q 347 963 347 1036 l 347 931 q 288 808 347 842 l 288 806 q 347 678 347 772 l 347 629 q 308 515 347 556 q 196 474 268 474 m 196 853 q 250 918 250 853 l 250 965 q 196 1031 250 1031 q 142 965 142 1031 l 142 918 q 196 853 142 853 m 196 561 q 250 631 250 561 l 250 696 q 196 765 250 765 q 142 696 142 765 l 142 631 q 196 561 142 561 z "},"⁹":{"ha":392,"x_min":46,"x_max":340,"o":"m 192 474 q 84 514 121 474 q 47 629 47 554 l 47 638 l 139 638 l 139 622 q 189 561 139 561 q 230 578 217 561 q 243 638 243 594 l 243 765 l 240 765 q 153 713 215 713 q 73 749 100 713 q 46 853 46 785 l 46 963 q 84 1078 46 1038 q 193 1118 122 1118 q 302 1078 264 1118 q 340 963 340 1038 l 340 633 q 192 474 340 474 m 193 800 q 243 861 243 800 l 243 971 q 193 1031 243 1031 q 143 971 143 1031 l 143 861 q 193 800 143 800 z "},"⁄":{"ha":124,"x_min":-175,"x_max":299,"o":"m 201 972 l 299 972 l -78 0 l -175 0 l 201 972 z "},"½":{"ha":907,"x_min":81,"x_max":857,"o":"m 183 826 l 81 826 l 81 894 q 169 911 140 894 q 217 972 197 928 l 281 972 l 281 356 l 183 356 l 183 826 m 593 972 l 690 972 l 314 0 l 217 0 l 593 972 m 568 69 q 589 184 568 136 q 664 290 610 232 q 739 388 718 346 q 760 478 760 429 q 748 527 760 511 q 710 543 736 543 q 660 482 660 543 l 660 425 l 568 425 l 568 476 q 605 591 568 551 q 713 631 642 631 q 820 592 783 631 q 857 481 857 553 q 831 367 857 421 q 738 243 804 314 q 679 167 694 196 q 664 104 664 139 l 664 88 l 849 88 l 849 0 l 568 0 l 568 69 z "},"⅓":{"ha":907,"x_min":81,"x_max":851,"o":"m 183 826 l 81 826 l 81 894 q 169 911 140 894 q 217 972 197 928 l 281 972 l 281 356 l 183 356 l 183 826 m 593 972 l 690 972 l 314 0 l 217 0 l 593 972 m 707 -14 q 599 26 636 -14 q 563 142 563 67 l 563 193 l 654 193 l 654 135 q 704 74 654 74 q 742 90 729 74 q 754 144 754 106 l 754 200 q 740 260 754 243 q 692 278 725 278 l 658 278 l 658 365 l 696 365 q 754 432 754 365 l 754 472 q 742 527 754 511 q 704 543 729 543 q 654 482 654 543 l 654 444 l 563 444 l 563 475 q 599 590 563 550 q 707 631 636 631 q 815 590 778 631 q 851 475 851 550 l 851 449 q 835 370 851 400 q 783 325 818 340 l 783 322 q 851 193 851 293 l 851 142 q 815 26 851 67 q 707 -14 778 -14 z "},"⅔":{"ha":907,"x_min":53,"x_max":851,"o":"m 53 425 q 74 540 53 492 q 149 646 94 588 q 224 743 203 701 q 244 833 244 785 q 233 883 244 867 q 194 899 221 899 q 144 838 144 899 l 144 781 l 53 781 l 53 832 q 90 947 53 907 q 197 986 126 986 q 305 947 268 986 q 342 836 342 908 q 315 723 342 776 q 222 599 289 669 q 164 523 179 551 q 149 460 149 494 l 149 443 l 333 443 l 333 356 l 53 356 l 53 425 m 593 972 l 690 972 l 314 0 l 217 0 l 593 972 m 707 -14 q 599 26 636 -14 q 563 142 563 67 l 563 193 l 654 193 l 654 135 q 704 74 654 74 q 742 90 729 74 q 754 144 754 106 l 754 200 q 740 260 754 243 q 692 278 725 278 l 658 278 l 658 365 l 696 365 q 754 432 754 365 l 754 472 q 742 527 754 511 q 704 543 729 543 q 654 482 654 543 l 654 444 l 563 444 l 563 475 q 599 590 563 550 q 707 631 636 631 q 815 590 778 631 q 851 475 851 550 l 851 449 q 835 370 851 400 q 783 325 818 340 l 783 322 q 851 193 851 293 l 851 142 q 815 26 851 67 q 707 -14 778 -14 z "},"¼":{"ha":907,"x_min":81,"x_max":875,"o":"m 183 826 l 81 826 l 81 894 q 169 911 140 894 q 217 972 197 928 l 281 972 l 281 356 l 183 356 l 183 826 m 593 972 l 690 972 l 314 0 l 217 0 l 593 972 m 732 111 l 547 111 l 547 199 l 724 617 l 829 617 l 829 199 l 875 199 l 875 111 l 829 111 l 829 0 l 732 0 l 732 111 m 733 199 l 733 442 l 731 442 l 635 199 l 733 199 z "},"¾":{"ha":907,"x_min":47,"x_max":875,"o":"m 192 342 q 84 382 121 342 q 47 497 47 422 l 47 549 l 139 549 l 139 490 q 189 429 139 429 q 226 445 214 429 q 239 500 239 461 l 239 556 q 224 616 239 599 q 176 633 210 633 l 143 633 l 143 721 l 181 721 q 239 788 239 721 l 239 828 q 226 883 239 867 q 189 899 214 899 q 139 838 139 899 l 139 800 l 47 800 l 47 831 q 84 946 47 906 q 192 986 121 986 q 299 946 263 986 q 336 831 336 906 l 336 804 q 319 726 336 756 q 268 681 303 696 l 268 678 q 336 549 336 649 l 336 497 q 299 382 336 422 q 192 342 263 342 m 593 972 l 690 972 l 314 0 l 217 0 l 593 972 m 732 111 l 547 111 l 547 199 l 724 617 l 829 617 l 829 199 l 875 199 l 875 111 l 829 111 l 829 0 l 732 0 l 732 111 m 733 199 l 733 442 l 731 442 l 635 199 l 733 199 z "},"⅛":{"ha":907,"x_min":81,"x_max":863,"o":"m 183 826 l 81 826 l 81 894 q 169 911 140 894 q 217 972 197 928 l 281 972 l 281 356 l 183 356 l 183 826 m 593 972 l 690 972 l 314 0 l 217 0 l 593 972 m 711 -14 q 599 27 639 -14 q 560 142 560 68 l 560 190 q 619 318 560 285 l 619 321 q 560 443 560 354 l 560 475 q 599 590 560 549 q 711 631 639 631 q 823 590 783 631 q 863 475 863 549 l 863 443 q 803 321 863 354 l 803 318 q 863 190 863 285 l 863 142 q 823 27 863 68 q 711 -14 783 -14 m 711 365 q 765 431 765 365 l 765 478 q 711 543 765 543 q 657 478 657 543 l 657 431 q 711 365 657 365 m 711 74 q 765 143 765 74 l 765 208 q 711 278 765 278 q 657 208 657 278 l 657 143 q 711 74 657 74 z "},"⅜":{"ha":907,"x_min":47,"x_max":863,"o":"m 192 342 q 84 382 121 342 q 47 497 47 422 l 47 549 l 139 549 l 139 490 q 189 429 139 429 q 226 445 214 429 q 239 500 239 461 l 239 556 q 224 616 239 599 q 176 633 210 633 l 143 633 l 143 721 l 181 721 q 239 788 239 721 l 239 828 q 226 883 239 867 q 189 899 214 899 q 139 838 139 899 l 139 800 l 47 800 l 47 831 q 84 946 47 906 q 192 986 121 986 q 299 946 263 986 q 336 831 336 906 l 336 804 q 319 726 336 756 q 268 681 303 696 l 268 678 q 336 549 336 649 l 336 497 q 299 382 336 422 q 192 342 263 342 m 593 972 l 690 972 l 314 0 l 217 0 l 593 972 m 711 -14 q 599 27 639 -14 q 560 142 560 68 l 560 190 q 619 318 560 285 l 619 321 q 560 443 560 354 l 560 475 q 599 590 560 549 q 711 631 639 631 q 823 590 783 631 q 863 475 863 549 l 863 443 q 803 321 863 354 l 803 318 q 863 190 863 285 l 863 142 q 823 27 863 68 q 711 -14 783 -14 m 711 365 q 765 431 765 365 l 765 478 q 711 543 765 543 q 657 478 657 543 l 657 431 q 711 365 657 365 m 711 74 q 765 143 765 74 l 765 208 q 711 278 765 278 q 657 208 657 278 l 657 143 q 711 74 657 74 z "},"⅝":{"ha":907,"x_min":53,"x_max":863,"o":"m 197 342 q 90 382 126 342 q 53 497 53 422 l 53 532 l 144 532 l 144 492 q 194 432 144 432 q 244 492 244 432 l 244 631 q 194 692 244 692 q 144 631 144 692 l 144 618 l 53 618 l 71 972 l 326 972 l 326 885 l 156 885 l 149 735 l 151 735 q 235 781 178 781 q 315 744 288 781 q 342 639 342 707 l 342 497 q 305 382 342 422 q 197 342 268 342 m 593 972 l 690 972 l 314 0 l 217 0 l 593 972 m 711 -14 q 599 27 639 -14 q 560 142 560 68 l 560 190 q 619 318 560 285 l 619 321 q 560 443 560 354 l 560 475 q 599 590 560 549 q 711 631 639 631 q 823 590 783 631 q 863 475 863 549 l 863 443 q 803 321 863 354 l 803 318 q 863 190 863 285 l 863 142 q 823 27 863 68 q 711 -14 783 -14 m 711 365 q 765 431 765 365 l 765 478 q 711 543 765 543 q 657 478 657 543 l 657 431 q 711 365 657 365 m 711 74 q 765 143 765 74 l 765 208 q 711 278 765 278 q 657 208 657 278 l 657 143 q 711 74 657 74 z "},"⅞":{"ha":907,"x_min":49,"x_max":863,"o":"m 246 885 l 49 885 l 49 972 l 340 972 l 340 888 l 186 356 l 89 356 l 246 885 m 593 972 l 690 972 l 314 0 l 217 0 l 593 972 m 711 -14 q 599 27 639 -14 q 560 142 560 68 l 560 190 q 619 318 560 285 l 619 321 q 560 443 560 354 l 560 475 q 599 590 560 549 q 711 631 639 631 q 823 590 783 631 q 863 475 863 549 l 863 443 q 803 321 863 354 l 803 318 q 863 190 863 285 l 863 142 q 823 27 863 68 q 711 -14 783 -14 m 711 365 q 765 431 765 365 l 765 478 q 711 543 765 543 q 657 478 657 543 l 657 431 q 711 365 657 365 m 711 74 q 765 143 765 74 l 765 208 q 711 278 765 278 q 657 208 657 278 l 657 143 q 711 74 657 74 z "},".":{"ha":261,"x_min":57,"x_max":204,"o":"m 57 147 l 204 147 l 204 0 l 57 0 l 57 147 z "},",":{"ha":261,"x_min":57,"x_max":204,"o":"m 107 0 l 57 0 l 57 147 l 204 147 l 204 15 l 128 -167 l 57 -167 l 107 0 z "},":":{"ha":261,"x_min":57,"x_max":204,"o":"m 57 676 l 204 676 l 204 529 l 57 529 l 57 676 m 57 147 l 204 147 l 204 0 l 57 0 l 57 147 z "},";":{"ha":261,"x_min":49,"x_max":204,"o":"m 57 676 l 204 676 l 204 529 l 57 529 l 57 676 m 107 0 l 57 0 l 57 147 l 204 147 l 204 15 l 119 -167 l 49 -167 l 107 0 z "},"…":{"ha":694,"x_min":43,"x_max":651,"o":"m 43 147 l 190 147 l 190 0 l 43 0 l 43 147 m 274 147 l 421 147 l 421 0 l 274 0 l 274 147 m 504 147 l 651 147 l 651 0 l 504 0 l 504 147 z "},"!":{"ha":292,"x_min":69,"x_max":222,"o":"m 69 567 l 69 972 l 222 972 l 222 567 l 203 257 l 89 257 l 69 567 m 72 147 l 219 147 l 219 0 l 72 0 l 72 147 z "},"¡":{"ha":292,"x_min":69,"x_max":222,"o":"m 72 972 l 219 972 l 219 825 l 72 825 l 72 972 m 69 406 l 89 715 l 203 715 l 222 406 l 222 0 l 69 0 l 69 406 z "},"?":{"ha":504,"x_min":26,"x_max":476,"o":"m 163 315 q 178 413 163 367 q 238 521 194 460 q 306 643 288 592 q 324 751 324 694 q 304 824 324 801 q 247 847 285 847 q 190 824 210 847 q 171 751 171 801 l 171 646 l 26 646 l 26 742 q 83 923 26 860 q 250 986 140 986 q 419 923 361 986 q 476 742 476 860 q 453 619 476 678 q 375 486 431 560 q 313 387 331 426 q 296 310 296 347 l 296 257 l 163 257 l 163 315 m 156 147 l 303 147 l 303 0 l 156 0 l 156 147 z "},"¿":{"ha":504,"x_min":28,"x_max":478,"o":"m 349 825 l 201 825 l 201 972 l 349 972 l 349 825 m 342 657 q 326 559 342 606 q 267 451 310 513 q 199 329 217 381 q 181 221 181 278 q 200 148 181 171 q 257 125 219 125 q 314 148 294 125 q 333 221 333 171 l 333 326 l 478 326 l 478 231 q 421 49 478 113 q 254 -14 364 -14 q 85 49 143 -14 q 28 231 28 113 q 51 353 28 294 q 129 486 74 413 q 191 585 174 546 q 208 663 208 625 l 208 715 l 342 715 l 342 657 z "},"·":{"ha":261,"x_min":57,"x_max":204,"o":"m 57 560 l 204 560 l 204 413 l 57 413 l 57 560 z "},"•":{"ha":417,"x_min":49,"x_max":368,"o":"m 208 326 q 95 373 142 326 q 49 486 49 419 q 95 599 49 553 q 208 646 142 646 q 322 599 275 646 q 368 486 368 553 q 322 373 368 419 q 208 326 275 326 z "},"*":{"ha":586,"x_min":21,"x_max":565,"o":"m 86 528 l 233 683 l 21 729 l 60 847 l 258 753 l 231 972 l 356 972 l 328 753 l 526 847 l 565 729 l 353 683 l 500 528 l 400 454 l 293 642 l 186 454 l 86 528 z "},"#":{"ha":572,"x_min":22,"x_max":550,"o":"m 90 278 l 22 278 l 33 386 l 101 386 l 128 640 l 58 640 l 69 749 l 139 749 l 163 972 l 283 972 l 260 749 l 358 749 l 382 972 l 503 972 l 479 749 l 550 749 l 539 640 l 468 640 l 442 386 l 513 386 l 501 278 l 431 278 l 401 0 l 281 0 l 310 278 l 211 278 l 182 0 l 61 0 l 90 278 m 321 386 l 347 640 l 249 640 l 222 386 l 321 386 z "},"/":{"ha":540,"x_min":13,"x_max":528,"o":"m 396 972 l 528 972 l 144 0 l 13 0 l 396 972 z "},"\\":{"ha":540,"x_min":13,"x_max":528,"o":"m 13 972 l 144 972 l 528 0 l 396 0 l 13 972 z "},"(":{"ha":383,"x_min":74,"x_max":335,"o":"m 288 -69 q 123 -21 172 -69 q 74 143 74 28 l 74 829 q 123 993 74 944 q 288 1042 172 1042 l 335 1042 l 335 917 l 297 917 q 243 898 260 917 q 226 829 226 879 l 226 143 q 243 74 226 93 q 297 56 260 56 l 335 56 l 335 -69 l 288 -69 z "},")":{"ha":383,"x_min":49,"x_max":310,"o":"m 49 56 l 86 56 q 140 74 124 56 q 157 143 157 93 l 157 829 q 140 898 157 879 q 86 917 124 917 l 49 917 l 49 1042 l 96 1042 q 260 993 211 1042 q 310 829 310 944 l 310 143 q 260 -21 310 28 q 96 -69 211 -69 l 49 -69 l 49 56 z "},"{":{"ha":383,"x_min":29,"x_max":349,"o":"m 271 -69 q 160 -31 203 -69 q 117 85 117 8 l 117 340 q 99 406 117 389 q 29 424 81 424 l 29 549 q 99 566 81 549 q 117 632 117 583 l 117 888 q 160 1003 117 964 q 271 1042 203 1042 l 349 1042 l 349 917 l 326 917 q 271 895 289 917 q 253 818 253 874 l 253 610 q 168 488 253 513 l 168 485 q 253 363 253 460 l 253 154 q 271 77 253 99 q 326 56 289 56 l 349 56 l 349 -69 l 271 -69 z "},"}":{"ha":383,"x_min":35,"x_max":354,"o":"m 35 56 l 57 56 q 113 77 94 56 q 131 154 131 99 l 131 363 q 215 485 131 460 l 215 488 q 131 610 131 513 l 131 818 q 113 895 131 874 q 57 917 94 917 l 35 917 l 35 1042 l 113 1042 q 224 1003 181 1042 q 267 888 267 964 l 267 632 q 285 566 267 583 q 354 549 303 549 l 354 424 q 285 406 303 424 q 267 340 267 389 l 267 85 q 224 -31 267 8 q 113 -69 181 -69 l 35 -69 l 35 56 z "},"[":{"ha":383,"x_min":82,"x_max":335,"o":"m 82 1042 l 335 1042 l 335 917 l 235 917 l 235 56 l 335 56 l 335 -69 l 82 -69 l 82 1042 z "},"]":{"ha":383,"x_min":49,"x_max":301,"o":"m 49 56 l 149 56 l 149 917 l 49 917 l 49 1042 l 301 1042 l 301 -69 l 49 -69 l 49 56 z "},"-":{"ha":375,"x_min":35,"x_max":340,"o":"m 35 556 l 340 556 l 340 417 l 35 417 l 35 556 z "},"­":{"ha":375,"x_min":35,"x_max":340,"o":"m 35 556 l 340 556 l 340 417 l 35 417 l 35 556 z "},"–":{"ha":417,"x_min":0,"x_max":417,"o":"m 0 549 l 417 549 l 417 424 l 0 424 l 0 549 z "},"—":{"ha":694,"x_min":0,"x_max":694,"o":"m 0 549 l 694 549 l 694 424 l 0 424 l 0 549 z "},"‒":{"ha":556,"x_min":0,"x_max":556,"o":"m 0 549 l 556 549 l 556 424 l 0 424 l 0 549 z "},"_":{"ha":417,"x_min":0,"x_max":417,"o":"m 0 -14 l 417 -14 l 417 -125 l 0 -125 l 0 -14 z "},"‚":{"ha":261,"x_min":58,"x_max":206,"o":"m 108 0 l 58 0 l 58 147 l 206 147 l 206 15 l 129 -167 l 58 -167 l 108 0 z "},"„":{"ha":467,"x_min":49,"x_max":410,"o":"m 107 0 l 57 0 l 57 147 l 204 147 l 204 15 l 119 -167 l 49 -167 l 107 0 m 313 0 l 263 0 l 263 147 l 410 147 l 410 15 l 325 -167 l 254 -167 l 313 0 z "},"“":{"ha":467,"x_min":57,"x_max":418,"o":"m 57 790 l 142 972 l 213 972 l 154 806 l 204 806 l 204 658 l 57 658 l 57 790 m 263 790 l 347 972 l 418 972 l 360 806 l 410 806 l 410 658 l 263 658 l 263 790 z "},"”":{"ha":467,"x_min":49,"x_max":410,"o":"m 107 825 l 57 825 l 57 972 l 204 972 l 204 840 l 119 658 l 49 658 l 107 825 m 313 825 l 263 825 l 263 972 l 410 972 l 410 840 l 325 658 l 254 658 l 313 825 z "},"‘":{"ha":261,"x_min":57,"x_max":213,"o":"m 57 790 l 142 972 l 213 972 l 154 806 l 204 806 l 204 658 l 57 658 l 57 790 z "},"’":{"ha":261,"x_min":49,"x_max":204,"o":"m 107 825 l 57 825 l 57 972 l 204 972 l 204 840 l 119 658 l 49 658 l 107 825 z "},"«":{"ha":467,"x_min":19,"x_max":443,"o":"m 19 481 l 126 633 l 238 633 l 158 481 l 238 319 l 126 319 l 19 481 m 226 481 l 332 633 l 443 633 l 365 481 l 443 319 l 332 319 l 226 481 z "},"»":{"ha":465,"x_min":24,"x_max":446,"o":"m 24 319 l 101 481 l 24 633 l 135 633 l 240 481 l 135 319 l 24 319 m 229 319 l 307 481 l 229 633 l 340 633 l 446 481 l 340 319 l 229 319 z "},"‹":{"ha":261,"x_min":19,"x_max":238,"o":"m 19 481 l 126 633 l 238 633 l 158 481 l 238 319 l 126 319 l 19 481 z "},"›":{"ha":261,"x_min":24,"x_max":242,"o":"m 24 319 l 103 481 l 24 633 l 135 633 l 242 481 l 135 319 l 24 319 z "},"\"":{"ha":467,"x_min":53,"x_max":414,"o":"m 53 972 l 208 972 l 171 658 l 89 658 l 53 972 m 258 972 l 414 972 l 376 658 l 294 658 l 258 972 z "},"'":{"ha":261,"x_min":53,"x_max":208,"o":"m 53 972 l 208 972 l 171 658 l 89 658 l 53 972 z "}," ":{"ha":694,"x_min":0,"x_max":0,"o":""}," ":{"ha":417,"x_min":0,"x_max":0,"o":""}," ":{"ha":556,"x_min":0,"x_max":0,"o":""}," ":{"ha":261,"x_min":0,"x_max":0,"o":""}," ":{"ha":222,"x_min":0,"x_max":0,"o":""},"​":{"ha":0,"x_min":0,"x_max":0,"o":""},"¢":{"ha":556,"x_min":58,"x_max":508,"o":"m 364 617 l 364 671 q 288 761 364 761 q 211 671 211 761 l 211 300 q 288 211 211 211 q 364 300 364 211 l 364 390 l 508 390 l 508 311 q 467 155 508 215 q 344 78 425 94 l 344 -28 l 219 -28 l 219 79 q 99 156 140 96 q 58 311 58 215 l 58 661 q 99 817 58 757 q 219 893 140 876 l 219 986 l 344 986 l 344 894 q 467 817 425 878 q 508 661 508 757 l 508 617 l 364 617 z "},"¤":{"ha":556,"x_min":43,"x_max":513,"o":"m 43 319 l 124 393 q 99 486 99 433 q 124 579 99 540 l 43 653 l 111 721 l 185 639 q 278 665 226 665 q 371 639 329 665 l 444 721 l 513 653 l 432 579 q 457 486 457 540 q 432 393 457 433 l 513 319 l 444 251 l 371 333 q 278 307 329 307 q 185 333 226 307 l 111 251 l 43 319 m 278 413 q 331 433 311 413 q 351 486 351 453 q 331 540 351 519 q 278 560 311 560 q 224 540 244 560 q 204 486 204 519 q 224 433 204 453 q 278 413 244 413 z "},"$":{"ha":556,"x_min":50,"x_max":506,"o":"m 215 21 q 92 97 135 38 q 50 250 50 157 l 50 314 l 194 314 l 194 240 q 274 156 194 156 q 353 243 353 156 q 325 341 353 297 q 222 443 297 385 q 92 581 129 517 q 54 725 54 644 q 95 874 54 815 q 215 950 136 932 l 215 1035 l 340 1035 l 340 950 q 463 874 421 933 q 504 722 504 815 l 504 694 l 360 694 l 360 732 q 283 818 360 818 q 207 735 207 818 q 235 642 207 685 q 338 540 263 600 q 468 401 431 465 q 506 253 506 336 q 463 98 506 158 q 340 21 421 38 l 340 -76 l 215 -76 l 215 21 z "},"€":{"ha":556,"x_min":32,"x_max":518,"o":"m 294 -14 q 127 49 183 -14 q 71 231 71 113 l 71 389 l 32 389 l 32 465 l 71 465 l 71 542 l 32 542 l 32 618 l 71 618 l 71 742 q 127 923 71 860 q 294 986 183 986 q 462 923 406 986 q 518 742 518 860 l 518 696 l 374 696 l 374 751 q 355 825 374 803 q 299 847 336 847 q 242 825 261 847 q 224 751 224 803 l 224 618 l 438 618 l 438 542 l 224 542 l 224 465 l 438 465 l 438 389 l 224 389 l 224 219 q 242 147 224 169 q 299 125 261 125 q 355 147 336 125 q 374 219 374 169 l 374 311 l 518 311 l 518 231 q 462 49 518 113 q 294 -14 406 -14 z "},"ƒ":{"ha":556,"x_min":26,"x_max":526,"o":"m 124 35 l 26 35 l 26 174 l 82 174 l 82 799 l 26 799 l 26 938 l 124 938 l 124 1035 l 210 1035 l 210 938 l 290 938 l 290 1035 l 376 1035 l 376 926 q 511 721 511 890 l 511 700 q 488 577 511 625 q 413 506 464 529 l 413 503 q 499 427 472 479 q 526 296 526 375 l 526 265 q 488 119 526 175 q 376 44 450 64 l 376 -76 l 290 -76 l 290 35 l 210 35 l 210 -76 l 124 -76 l 124 35 m 267 563 q 335 586 313 563 q 358 665 358 610 l 358 699 q 340 775 358 751 q 281 799 321 799 l 235 799 l 235 563 l 267 563 m 294 174 q 354 195 335 174 q 374 269 374 217 l 374 306 q 351 398 374 372 q 275 424 328 424 l 235 424 l 235 174 l 294 174 z "},"₹":{"ha":556,"x_min":39,"x_max":525,"o":"m 39 435 l 39 553 l 167 553 q 255 574 226 553 q 283 644 283 594 l 39 644 l 39 763 l 283 763 q 255 833 283 813 q 167 854 226 854 l 39 854 l 39 972 l 517 972 l 517 854 l 400 854 q 435 763 426 815 l 517 763 l 517 644 l 435 644 q 397 533 429 581 q 317 460 364 485 q 222 435 269 435 l 525 0 l 340 0 l 39 435 z "},"£":{"ha":556,"x_min":49,"x_max":513,"o":"m 49 131 q 146 214 111 160 q 181 331 181 268 q 176 375 181 354 l 49 375 l 49 493 l 151 493 q 101 590 117 557 q 74 667 85 624 q 63 765 63 710 q 121 925 63 864 q 288 986 179 986 q 456 923 399 986 q 513 742 513 860 l 513 685 l 368 685 l 368 751 q 349 824 368 801 q 292 847 329 847 q 235 824 254 847 q 215 751 215 801 q 231 649 215 697 q 272 542 246 600 l 293 493 l 463 493 l 463 375 l 319 375 q 300 246 319 303 q 224 139 281 189 l 503 139 l 503 0 l 49 0 l 49 131 z "},"₿":{"ha":556,"x_min":26,"x_max":526,"o":"m 124 35 l 26 35 l 26 174 l 82 174 l 82 799 l 26 799 l 26 938 l 124 938 l 124 1035 l 210 1035 l 210 938 l 290 938 l 290 1035 l 376 1035 l 376 926 q 511 721 511 890 l 511 700 q 488 577 511 625 q 413 506 464 529 l 413 503 q 499 427 472 479 q 526 296 526 375 l 526 265 q 488 119 526 175 q 376 44 450 64 l 376 -76 l 290 -76 l 290 35 l 210 35 l 210 -76 l 124 -76 l 124 35 m 267 563 q 335 586 313 563 q 358 665 358 610 l 358 699 q 340 775 358 751 q 281 799 321 799 l 235 799 l 235 563 l 267 563 m 294 174 q 354 195 335 174 q 374 269 374 217 l 374 306 q 351 398 374 372 q 275 424 328 424 l 235 424 l 235 174 l 294 174 z "},"¥":{"ha":556,"x_min":15,"x_max":540,"o":"m 201 156 l 78 156 l 78 251 l 201 251 l 201 353 l 78 353 l 78 449 l 192 449 l 15 972 l 178 972 l 283 610 l 286 610 l 392 972 l 540 972 l 364 449 l 483 449 l 483 353 l 354 353 l 354 251 l 483 251 l 483 156 l 354 156 l 354 0 l 201 0 l 201 156 z "},"∙":{"ha":306,"x_min":64,"x_max":242,"o":"m 64 575 l 242 575 l 242 397 l 64 397 l 64 575 z "},"∕":{"ha":556,"x_min":24,"x_max":532,"o":"m 415 972 l 532 972 l 140 0 l 24 0 l 415 972 z "},"+":{"ha":556,"x_min":38,"x_max":518,"o":"m 224 432 l 38 432 l 38 540 l 224 540 l 224 728 l 332 728 l 332 540 l 518 540 l 518 432 l 332 432 l 332 242 l 224 242 l 224 432 z "},"−":{"ha":556,"x_min":38,"x_max":518,"o":"m 38 540 l 518 540 l 518 432 l 38 432 l 38 540 z "},"×":{"ha":556,"x_min":56,"x_max":499,"o":"m 56 333 l 203 486 l 57 638 l 131 711 l 278 560 l 425 713 l 499 639 l 351 486 l 499 333 l 425 260 l 278 413 l 129 260 l 56 333 z "},"÷":{"ha":556,"x_min":38,"x_max":518,"o":"m 204 771 l 351 771 l 351 624 l 204 624 l 204 771 m 38 540 l 518 540 l 518 432 l 38 432 l 38 540 m 204 347 l 351 347 l 351 200 l 204 200 l 204 347 z "},"=":{"ha":556,"x_min":51,"x_max":504,"o":"m 51 653 l 504 653 l 504 544 l 51 544 l 51 653 m 51 428 l 504 428 l 504 319 l 51 319 l 51 428 z "},"≠":{"ha":556,"x_min":51,"x_max":504,"o":"m 125 319 l 51 319 l 51 428 l 189 428 l 258 544 l 51 544 l 51 653 l 322 653 l 396 778 l 504 778 l 431 653 l 504 653 l 504 544 l 367 544 l 297 428 l 504 428 l 504 319 l 233 319 l 160 194 l 51 194 l 125 319 z "},">":{"ha":556,"x_min":75,"x_max":500,"o":"m 75 363 l 368 486 l 75 610 l 75 721 l 500 538 l 500 435 l 75 251 l 75 363 z "},"<":{"ha":556,"x_min":56,"x_max":481,"o":"m 56 435 l 56 538 l 481 721 l 481 610 l 188 486 l 481 363 l 481 251 l 56 435 z "},"≥":{"ha":556,"x_min":71,"x_max":496,"o":"m 71 460 l 346 549 l 71 638 l 71 749 l 496 600 l 496 497 l 71 349 l 71 460 m 71 322 l 496 322 l 496 214 l 71 214 l 71 322 z "},"≤":{"ha":556,"x_min":60,"x_max":485,"o":"m 485 638 l 210 549 l 485 460 l 485 349 l 60 497 l 60 600 l 485 749 l 485 638 m 60 322 l 485 322 l 485 214 l 60 214 l 60 322 z "},"±":{"ha":556,"x_min":50,"x_max":503,"o":"m 50 336 l 222 336 l 222 489 l 50 489 l 50 597 l 222 597 l 222 756 l 331 756 l 331 597 l 503 597 l 503 489 l 331 489 l 331 336 l 503 336 l 503 228 l 50 228 l 50 336 z "},"≈":{"ha":556,"x_min":17,"x_max":539,"o":"m 17 564 q 97 670 60 638 q 185 703 133 703 q 229 694 208 703 q 288 663 250 686 q 340 631 325 639 q 369 624 354 624 q 410 641 393 624 q 460 707 426 658 l 539 647 q 459 541 496 574 q 371 508 422 508 q 326 517 347 508 q 268 549 306 525 q 216 580 231 572 q 186 588 201 588 q 146 570 163 588 q 96 504 129 553 l 17 564 m 17 325 q 97 431 60 399 q 185 464 133 464 q 229 456 208 464 q 288 424 250 447 q 340 392 325 400 q 369 385 354 385 q 410 402 393 385 q 460 468 426 419 l 539 408 q 459 302 496 335 q 371 269 422 269 q 326 278 347 269 q 268 310 306 286 q 216 341 231 333 q 186 349 201 349 q 146 331 163 349 q 96 265 129 314 l 17 325 z "},"~":{"ha":556,"x_min":17,"x_max":539,"o":"m 17 444 q 97 551 60 518 q 185 583 133 583 q 229 575 208 583 q 288 543 250 567 q 340 512 325 519 q 369 504 354 504 q 410 522 393 504 q 460 588 426 539 l 539 528 q 459 422 496 454 q 371 389 422 389 q 326 397 347 389 q 268 429 306 406 q 216 460 231 453 q 186 468 201 468 q 146 451 163 468 q 96 385 129 433 l 17 444 z "},"¬":{"ha":556,"x_min":31,"x_max":511,"o":"m 403 432 l 31 432 l 31 540 l 511 540 l 511 242 l 403 242 l 403 432 z "},"^":{"ha":556,"x_min":26,"x_max":526,"o":"m 225 972 l 328 972 l 526 597 l 401 597 l 276 833 l 151 597 l 26 597 l 225 972 z "},"∞":{"ha":893,"x_min":36,"x_max":857,"o":"m 246 251 q 89 320 142 251 q 36 488 36 389 q 89 653 36 586 q 243 721 142 721 q 354 690 308 721 q 440 593 400 658 l 446 593 q 531 687 483 653 q 647 721 579 721 q 804 652 751 721 q 857 485 857 583 q 804 319 857 386 q 650 251 751 251 q 539 283 585 251 q 453 379 493 314 l 446 379 q 362 285 410 319 q 246 251 314 251 m 254 364 q 324 390 299 364 q 372 464 350 417 l 386 493 l 368 521 q 317 588 342 565 q 254 611 293 611 q 182 576 210 611 q 154 488 154 540 q 181 399 154 435 q 254 364 208 364 m 639 361 q 711 397 683 361 q 739 485 739 432 q 712 574 739 538 q 639 610 685 610 q 587 595 608 610 q 553 562 565 581 q 521 508 540 543 l 504 479 l 525 449 q 578 383 554 406 q 639 361 601 361 z "},"∅":{"ha":1019,"x_min":75,"x_max":944,"o":"m 75 117 l 160 206 q 75 479 75 321 q 131 708 75 606 q 287 869 188 811 q 510 928 386 928 q 771 844 657 928 l 850 928 l 944 842 l 860 753 q 944 479 944 638 q 888 250 944 353 q 733 89 832 147 q 510 31 633 31 q 249 114 363 31 l 169 31 l 75 117 m 675 744 q 510 797 603 797 q 362 756 428 797 q 258 642 296 715 q 221 479 221 569 q 261 311 221 383 l 675 744 m 510 161 q 658 202 592 161 q 761 316 724 243 q 799 479 799 389 q 758 647 799 575 l 344 214 q 510 161 417 161 z "},"∫":{"ha":556,"x_min":75,"x_max":478,"o":"m 167 -236 q 75 -222 111 -236 l 75 -83 q 138 -99 106 -99 q 200 -29 200 -99 l 200 844 q 249 991 200 940 q 386 1042 297 1042 q 478 1028 442 1042 l 478 890 q 415 904 453 904 q 353 835 353 904 l 353 -39 q 304 -185 353 -135 q 167 -236 256 -236 z "},"Ω":{"ha":558,"x_min":47,"x_max":511,"o":"m 47 139 l 158 139 l 158 142 q 73 282 99 208 q 47 469 47 356 l 47 742 q 107 922 47 858 q 279 986 167 986 q 451 922 392 986 q 511 742 511 858 l 511 469 q 485 281 511 356 q 400 142 460 207 l 400 139 l 511 139 l 511 0 l 301 0 l 301 139 q 347 256 335 197 q 358 404 358 314 l 358 751 q 279 847 358 847 q 200 751 200 847 l 200 404 q 212 256 200 314 q 257 139 224 197 l 257 0 l 47 0 l 47 139 z "},"∆":{"ha":557,"x_min":17,"x_max":540,"o":"m 175 972 l 382 972 l 540 0 l 17 0 l 175 972 m 367 139 l 274 789 l 271 789 l 178 139 l 367 139 z "},"∏":{"ha":646,"x_min":68,"x_max":578,"o":"m 68 972 l 578 972 l 578 -222 l 425 -222 l 425 833 l 221 833 l 221 -222 l 68 -222 l 68 972 z "},"∑":{"ha":571,"x_min":35,"x_max":538,"o":"m 35 -86 l 292 376 l 35 836 l 35 972 l 538 972 l 538 833 l 199 833 l 444 375 l 199 -83 l 538 -83 l 538 -222 l 35 -222 l 35 -86 z "},"√":{"ha":660,"x_min":22,"x_max":639,"o":"m 115 432 l 22 432 l 22 540 l 232 540 l 322 114 l 522 972 l 639 972 l 385 -90 l 231 -90 l 115 432 z "},"µ":{"ha":563,"x_min":57,"x_max":515,"o":"m 57 694 l 210 694 l 210 207 q 282 128 210 128 q 341 151 319 128 q 363 224 363 174 l 363 694 l 515 694 l 515 0 l 376 0 l 376 72 q 321 15 356 36 q 243 -6 286 -6 l 210 -6 l 210 -222 l 57 -222 l 57 694 z "},"∂":{"ha":594,"x_min":46,"x_max":544,"o":"m 276 -14 q 46 211 46 -14 l 47 243 l 60 413 q 111 573 67 518 q 236 628 156 628 q 375 539 342 628 l 378 539 l 392 719 l 393 747 q 374 824 393 801 q 315 847 354 847 q 233 754 239 847 l 232 729 l 90 733 l 92 749 q 160 926 103 867 q 325 986 217 986 q 486 931 428 986 q 544 788 544 876 q 543 725 544 747 l 508 224 q 441 47 500 108 q 276 -14 382 -14 m 276 128 q 357 218 350 128 l 369 417 q 344 469 363 451 q 290 488 325 488 q 211 394 217 488 l 200 238 l 199 200 q 276 128 199 128 z "},"%":{"ha":818,"x_min":49,"x_max":769,"o":"m 196 432 q 86 472 124 432 q 49 588 49 513 l 49 831 q 86 946 49 906 q 196 986 124 986 q 306 946 268 986 q 343 831 343 906 l 343 588 q 306 472 343 513 q 196 432 268 432 m 549 972 l 646 972 l 269 0 l 172 0 l 549 972 m 196 519 q 246 581 246 519 l 246 838 q 196 899 246 899 q 146 838 146 899 l 146 581 q 196 519 146 519 m 622 -14 q 513 26 550 -14 q 475 142 475 67 l 475 385 q 513 500 475 460 q 622 540 550 540 q 732 500 694 540 q 769 385 769 460 l 769 142 q 732 26 769 67 q 622 -14 694 -14 m 622 74 q 672 135 672 74 l 672 392 q 622 453 672 453 q 572 392 572 453 l 572 135 q 622 74 572 74 z "},"‰":{"ha":1174,"x_min":49,"x_max":1125,"o":"m 196 432 q 86 472 124 432 q 49 588 49 513 l 49 831 q 86 946 49 906 q 196 986 124 986 q 306 946 268 986 q 343 831 343 906 l 343 588 q 306 472 343 513 q 196 432 268 432 m 549 972 l 646 972 l 269 0 l 172 0 l 549 972 m 196 519 q 246 581 246 519 l 246 838 q 196 899 246 899 q 146 838 146 899 l 146 581 q 196 519 146 519 m 622 -14 q 513 26 550 -14 q 475 142 475 67 l 475 385 q 513 500 475 460 q 622 540 550 540 q 732 500 694 540 q 769 385 769 460 l 769 142 q 732 26 769 67 q 622 -14 694 -14 m 978 -14 q 868 26 906 -14 q 831 142 831 67 l 831 385 q 868 500 831 460 q 978 540 906 540 q 1088 500 1050 540 q 1125 385 1125 460 l 1125 142 q 1088 26 1125 67 q 978 -14 1050 -14 m 622 74 q 672 135 672 74 l 672 392 q 622 453 672 453 q 572 392 572 453 l 572 135 q 622 74 572 74 m 978 74 q 1028 135 1028 74 l 1028 392 q 978 453 1028 453 q 928 392 928 453 l 928 135 q 978 74 928 74 z "},"○":{"ha":1025,"x_min":29,"x_max":996,"o":"m 513 -14 q 265 51 375 -14 q 92 231 154 117 q 29 486 29 344 q 92 742 29 628 q 265 921 154 856 q 513 986 375 986 q 760 921 650 986 q 933 742 871 856 q 996 486 996 628 q 933 231 996 344 q 760 51 871 117 q 513 -14 650 -14 m 513 83 q 710 135 622 83 q 847 278 797 186 q 896 486 896 371 q 847 694 896 601 q 710 838 797 786 q 513 889 622 889 q 315 838 403 889 q 178 694 228 786 q 129 486 129 601 q 178 278 129 371 q 315 135 228 186 q 513 83 403 83 z "},"◊":{"ha":556,"x_min":28,"x_max":528,"o":"m 28 486 l 254 986 l 301 986 l 528 486 l 301 -14 l 254 -14 l 28 486 m 403 486 l 278 786 l 153 486 l 278 186 l 403 486 z "},"":{"ha":881,"x_min":32,"x_max":849,"o":"m 349 61 q 183 101 256 61 q 72 211 111 140 q 32 374 32 282 q 72 536 32 465 q 188 647 113 607 q 367 686 264 686 l 449 686 l 449 847 l 665 847 l 665 686 l 849 686 l 849 475 l 665 475 l 665 392 q 625 215 665 290 q 513 101 585 140 q 349 61 442 61 m 350 275 q 421 305 393 275 q 449 390 449 335 l 449 475 l 365 475 q 281 447 310 475 q 251 375 251 419 q 279 303 251 331 q 350 275 307 275 z "},"@":{"ha":967,"x_min":35,"x_max":933,"o":"m 481 -83 q 144 47 254 -83 q 35 403 35 176 q 92 721 35 579 q 266 945 150 863 q 547 1028 382 1028 q 843 917 753 1028 q 933 619 933 806 q 890 367 933 464 q 785 227 847 269 q 663 185 724 185 q 542 276 550 185 l 539 276 q 486 213 518 233 q 408 193 454 193 q 312 237 346 193 q 278 360 278 281 q 281 407 278 376 l 296 547 q 463 753 319 753 q 576 668 549 753 l 579 668 l 592 747 l 721 747 l 681 360 l 679 338 q 707 311 679 311 q 790 406 761 311 q 818 617 818 501 q 750 831 818 753 q 542 910 682 910 q 262 774 358 910 q 165 396 165 638 q 247 128 165 224 q 489 33 328 33 q 640 54 572 33 q 776 128 707 75 l 765 -6 q 632 -66 700 -49 q 481 -83 564 -83 m 475 322 q 553 410 543 322 l 567 542 l 568 558 q 551 604 568 589 q 507 619 535 619 q 453 599 472 619 q 428 532 433 579 l 415 414 l 414 393 q 430 340 414 357 q 475 322 446 322 z "},"&":{"ha":579,"x_min":47,"x_max":551,"o":"m 217 -14 q 90 43 133 -14 q 47 208 47 100 l 47 310 q 74 438 47 386 q 160 513 100 489 l 160 515 q 80 587 106 538 q 54 714 54 636 l 54 732 q 111 911 54 850 q 282 972 168 972 l 457 972 l 457 833 l 285 833 q 227 811 247 833 q 207 739 207 789 l 207 679 q 230 600 207 624 q 299 576 253 576 l 358 576 l 358 685 l 508 685 l 508 576 l 551 576 l 551 438 l 508 438 l 508 118 q 511 51 508 76 q 525 0 514 25 l 372 0 q 358 76 361 31 l 356 76 q 298 8 331 31 q 217 -14 265 -14 m 274 125 q 358 213 346 125 l 358 438 l 300 438 q 224 409 247 438 q 200 314 200 381 l 200 215 q 219 146 200 167 q 274 125 239 125 z "},"¶":{"ha":624,"x_min":36,"x_max":553,"o":"m 242 424 q 137 454 183 424 q 63 539 90 485 q 36 661 36 593 l 36 732 q 106 909 36 846 q 292 972 175 972 l 553 972 l 553 -135 l 439 -135 l 439 861 l 356 861 l 356 -135 l 242 -135 l 242 424 z "},"§":{"ha":556,"x_min":32,"x_max":524,"o":"m 278 -149 q 106 -94 165 -149 q 47 50 47 -39 l 47 106 l 192 106 l 192 71 q 213 3 192 29 q 275 -22 235 -22 q 337 1 315 -22 q 358 65 358 25 q 333 127 358 103 q 239 175 307 151 q 77 269 122 215 q 32 404 32 324 q 57 513 32 464 q 136 590 82 561 l 136 593 q 65 675 85 631 q 44 779 44 719 q 105 928 44 869 q 278 986 165 986 q 449 931 390 986 q 508 788 508 876 l 508 746 l 364 746 l 364 767 q 342 834 364 808 q 281 860 321 860 q 219 836 240 860 q 197 772 197 813 q 223 710 197 735 q 317 663 249 686 q 478 568 433 622 q 524 433 524 514 q 499 325 524 374 q 419 246 474 276 l 419 243 q 492 162 472 206 q 511 58 511 118 q 451 -90 511 -32 q 278 -149 390 -149 m 292 306 q 357 345 336 317 q 378 413 378 374 q 349 486 378 460 q 264 532 319 513 q 199 492 219 521 q 178 425 178 464 q 207 351 178 378 q 292 306 236 325 z "},"©":{"ha":1025,"x_min":29,"x_max":996,"o":"m 513 -14 q 265 51 375 -14 q 92 231 154 117 q 29 486 29 344 q 92 742 29 628 q 265 921 154 856 q 513 986 375 986 q 760 921 650 986 q 933 742 871 856 q 996 486 996 628 q 933 231 996 344 q 760 51 871 117 q 513 -14 650 -14 m 513 83 q 710 135 622 83 q 847 278 797 186 q 896 486 896 371 q 847 694 896 601 q 710 838 797 786 q 513 889 622 889 q 315 838 403 889 q 178 694 228 786 q 129 486 129 601 q 178 278 129 371 q 315 135 228 186 q 513 83 403 83 m 507 181 q 390 224 429 181 q 350 350 350 268 l 350 619 q 390 747 350 703 q 507 792 429 792 q 624 747 585 792 q 664 619 664 703 l 664 569 l 564 569 l 564 628 q 510 694 564 694 q 456 628 456 694 l 456 344 q 510 279 456 279 q 564 344 564 279 l 564 428 l 664 428 l 664 350 q 624 224 664 268 q 507 181 585 181 z "},"®":{"ha":1025,"x_min":29,"x_max":996,"o":"m 513 -14 q 265 51 375 -14 q 92 231 154 117 q 29 486 29 344 q 92 742 29 628 q 265 921 154 856 q 513 986 375 986 q 760 921 650 986 q 933 742 871 856 q 996 486 996 628 q 933 231 996 344 q 760 51 871 117 q 513 -14 650 -14 m 513 83 q 710 135 622 83 q 847 278 797 186 q 896 486 896 371 q 847 694 896 601 q 710 838 797 786 q 513 889 622 889 q 315 838 403 889 q 178 694 228 786 q 129 486 129 601 q 178 278 129 371 q 315 135 228 186 q 513 83 403 83 m 360 783 l 521 783 q 640 745 601 783 q 678 628 678 707 l 678 615 q 606 486 678 518 l 606 483 q 661 432 644 467 q 678 342 678 397 l 678 271 q 690 189 678 217 l 582 189 q 574 219 576 204 q 572 272 572 233 l 572 343 q 556 410 572 390 q 501 429 539 429 l 465 429 l 465 189 l 360 189 l 360 783 m 508 526 q 556 542 539 526 q 572 597 572 558 l 572 615 q 559 669 572 651 q 515 686 546 686 l 465 686 l 465 526 l 508 526 z "},"℗":{"ha":1025,"x_min":29,"x_max":996,"o":"m 513 -14 q 265 51 375 -14 q 92 231 154 117 q 29 486 29 344 q 92 742 29 628 q 265 921 154 856 q 513 986 375 986 q 760 921 650 986 q 933 742 871 856 q 996 486 996 628 q 933 231 996 344 q 760 51 871 117 q 513 -14 650 -14 m 513 83 q 710 135 622 83 q 847 278 797 186 q 896 486 896 371 q 847 694 896 601 q 710 838 797 786 q 513 889 622 889 q 315 838 403 889 q 178 694 228 786 q 129 486 129 601 q 178 278 129 371 q 315 135 228 186 q 513 83 403 83 m 383 771 l 544 771 q 701 615 701 771 l 701 558 q 544 403 701 403 l 489 403 l 489 176 l 383 176 l 383 771 m 539 500 q 583 517 569 500 q 596 571 596 535 l 596 603 q 583 656 596 639 q 539 674 569 674 l 489 674 l 489 500 l 539 500 z "},"™":{"ha":831,"x_min":14,"x_max":779,"o":"m 115 883 l 14 883 l 14 972 l 314 972 l 314 883 l 213 883 l 213 478 l 115 478 l 115 883 m 372 972 l 518 972 l 575 658 l 578 658 l 633 972 l 779 972 l 779 478 l 688 478 l 688 854 l 685 854 l 610 478 l 535 478 l 460 854 l 457 854 l 457 478 l 372 478 l 372 972 z "},"°":{"ha":556,"x_min":101,"x_max":454,"o":"m 278 633 q 153 685 204 633 q 101 810 101 736 q 153 935 101 883 q 278 986 204 986 q 403 935 351 986 q 454 810 454 883 q 403 685 454 736 q 278 633 351 633 m 278 738 q 330 758 308 738 q 351 810 351 779 q 330 862 351 840 q 278 883 308 883 q 226 862 247 883 q 206 810 206 840 q 226 758 206 779 q 278 738 247 738 z "},"|":{"ha":694,"x_min":285,"x_max":410,"o":"m 285 1111 l 410 1111 l 410 -278 l 285 -278 l 285 1111 z "},"¦":{"ha":694,"x_min":285,"x_max":410,"o":"m 285 1111 l 410 1111 l 410 556 l 285 556 l 285 1111 m 285 278 l 410 278 l 410 -278 l 285 -278 l 285 278 z "},"†":{"ha":556,"x_min":31,"x_max":525,"o":"m 208 582 l 31 582 l 31 714 l 208 714 l 208 972 l 347 972 l 347 714 l 525 714 l 525 582 l 347 582 l 347 -135 l 208 -135 l 208 582 z "},"ℓ":{"ha":572,"x_min":15,"x_max":538,"o":"m 336 -14 q 185 39 238 -14 q 132 186 132 92 l 132 242 q 107 228 115 233 l 68 207 l 15 321 q 132 388 81 354 l 132 785 q 185 933 132 881 q 336 986 238 986 q 485 933 432 986 q 538 785 538 881 l 538 756 q 285 340 538 531 l 285 201 q 296 142 285 158 q 338 125 307 125 q 378 142 367 125 q 390 201 390 160 l 390 288 l 538 288 l 538 186 q 485 39 538 92 q 336 -14 432 -14 m 285 510 q 390 753 390 621 l 390 772 q 378 831 390 814 q 338 849 367 849 q 296 831 307 849 q 285 772 285 814 l 285 510 z "},"‡":{"ha":556,"x_min":31,"x_max":525,"o":"m 208 124 l 31 124 l 31 256 l 208 256 l 208 582 l 31 582 l 31 714 l 208 714 l 208 972 l 347 972 l 347 714 l 525 714 l 525 582 l 347 582 l 347 256 l 525 256 l 525 124 l 347 124 l 347 -135 l 208 -135 l 208 124 z "},"℮":{"ha":1140,"x_min":46,"x_max":1101,"o":"m 574 -14 q 310 53 431 -14 q 117 236 189 121 q 46 486 46 351 q 117 735 46 621 q 310 918 189 850 q 574 986 431 986 q 838 918 717 986 q 1030 735 958 850 q 1101 486 1101 621 l 1101 474 l 250 474 q 239 464 239 474 l 239 196 q 245 178 239 186 q 254 167 251 169 q 392 55 306 93 q 576 17 478 17 q 764 61 676 17 q 915 183 851 106 l 993 183 q 808 39 918 92 q 574 -14 697 -14 m 901 501 q 911 511 911 501 l 911 783 q 894 814 911 794 q 753 919 836 882 q 576 956 669 956 q 254 808 401 956 q 239 778 239 793 l 239 511 q 250 501 239 501 l 901 501 z "},"№":{"ha":918,"x_min":57,"x_max":868,"o":"m 57 972 l 249 972 l 363 376 l 365 376 l 365 972 l 494 972 l 494 0 l 338 0 l 190 718 l 188 718 l 188 0 l 57 0 l 57 972 m 721 151 q 612 192 650 151 q 574 306 574 232 l 574 521 q 612 635 574 594 q 721 675 650 675 q 830 635 792 675 q 868 521 868 594 l 868 306 q 830 192 868 232 q 721 151 792 151 m 721 240 q 771 300 771 240 l 771 526 q 721 586 771 586 q 683 572 696 586 q 671 526 671 558 l 671 300 q 683 254 671 268 q 721 240 696 240 m 574 94 l 868 94 l 868 0 l 574 0 l 574 94 z "},"℠":{"ha":832,"x_min":29,"x_max":781,"o":"m 169 467 q 65 499 101 467 q 29 592 29 531 l 29 622 l 122 622 l 122 593 q 168 547 122 547 q 214 594 214 547 q 197 648 214 628 q 131 693 179 668 q 52 759 72 724 q 32 847 32 794 q 68 944 32 907 q 171 981 104 981 q 274 948 239 981 q 310 856 310 915 l 310 840 l 218 840 l 218 854 q 174 900 218 900 q 129 856 129 900 q 146 806 129 825 q 213 760 163 788 q 290 692 269 728 q 310 603 310 656 q 274 503 310 540 q 169 467 238 467 m 374 972 l 519 972 l 576 658 l 579 658 l 635 972 l 781 972 l 781 478 l 689 478 l 689 854 l 686 854 l 611 478 l 536 478 l 461 854 l 458 854 l 458 478 l 374 478 l 374 972 z "},"ʼ":{"ha":0,"x_min":-74,"x_max":74,"o":"m -15 825 l -74 825 l -74 972 l 74 972 l 74 840 l 7 686 l -56 686 l -15 825 z "},"ˉ":{"ha":694,"x_min":188,"x_max":507,"o":"z "},"̈":{"ha":0,"x_min":-175,"x_max":175,"o":"m -175 1179 l -39 1179 l -39 1038 l -175 1038 l -175 1179 m 39 1179 l 175 1179 l 175 1038 l 39 1038 l 39 1179 z "},"̇":{"ha":0,"x_min":-69,"x_max":69,"o":"m -69 1179 l 69 1179 l 69 1038 l -69 1038 l -69 1179 z "},"̀":{"ha":0,"x_min":-181,"x_max":83,"o":"m -181 1197 l -14 1197 l 83 1038 l -32 1038 l -181 1197 z "},"́":{"ha":0,"x_min":-83,"x_max":181,"o":"m 14 1197 l 181 1197 l 32 1038 l -83 1038 l 14 1197 z "},"̋":{"ha":0,"x_min":-181,"x_max":278,"o":"m -83 1197 l 71 1197 l -74 1038 l -181 1038 l -83 1197 m 124 1197 l 278 1197 l 133 1038 l 26 1038 l 124 1197 z "},"̂":{"ha":0,"x_min":-186,"x_max":186,"o":"m -72 1197 l 72 1197 l 186 1038 l 71 1038 l 0 1114 l -71 1038 l -186 1038 l -72 1197 z "},"̌":{"ha":0,"x_min":-186,"x_max":186,"o":"m -186 1197 l -71 1197 l 0 1121 l 71 1197 l 186 1197 l 72 1038 l -72 1038 l -186 1197 z "},"̆":{"ha":0,"x_min":-164,"x_max":164,"o":"m -1 1032 q -119 1075 -78 1032 q -164 1197 -161 1118 l -74 1197 q -51 1145 -68 1160 q -1 1131 -33 1131 q 50 1145 32 1131 q 74 1197 68 1160 l 164 1197 q 119 1076 161 1119 q -1 1032 76 1032 z "},"̊":{"ha":0,"x_min":-124,"x_max":124,"o":"m 0 1022 q -88 1058 -53 1022 q -124 1144 -124 1093 q -88 1231 -124 1196 q 0 1267 -53 1267 q 88 1231 53 1267 q 124 1144 124 1196 q 88 1058 124 1093 q 0 1022 53 1022 m 0 1096 q 32 1109 19 1096 q 44 1144 44 1122 q 32 1180 44 1167 q 0 1193 19 1193 q -32 1180 -19 1193 q -44 1144 -44 1167 q -32 1109 -44 1122 q 0 1096 -19 1096 z "},"̃":{"ha":0,"x_min":-193,"x_max":193,"o":"m -193 1076 q -136 1165 -167 1136 q -67 1193 -106 1193 q -23 1186 -42 1193 q 17 1167 -4 1179 q 41 1154 29 1160 q 64 1149 53 1149 q 93 1161 81 1149 q 119 1203 106 1174 l 193 1158 q 136 1070 167 1099 q 67 1042 106 1042 q 23 1049 42 1042 q -17 1068 4 1056 q -41 1081 -29 1075 q -64 1086 -53 1086 q -93 1074 -81 1086 q -119 1032 -106 1061 l -193 1076 z "},"̄":{"ha":0,"x_min":-160,"x_max":160,"o":"m -160 1158 l 160 1158 l 160 1050 l -160 1050 l -160 1158 z "},"̒":{"ha":0,"x_min":-64,"x_max":64,"o":"m -64 1151 l -4 1240 l 50 1240 l 14 1165 l 64 1165 l 64 1038 l -64 1038 l -64 1151 z "},"̦":{"ha":0,"x_min":-64,"x_max":64,"o":"m -14 -187 l -64 -187 l -64 -60 l 64 -60 l 64 -174 l 4 -262 l -50 -262 l -14 -187 z "},"̧":{"ha":0,"x_min":-144,"x_max":131,"o":"m -11 -204 q -110 -186 -75 -204 q -144 -124 -144 -168 l -144 -110 l -42 -110 l -42 -121 q -33 -142 -42 -135 q -11 -149 -24 -149 q 17 -141 8 -149 q 25 -115 25 -133 q 13 -87 25 -96 q -26 -79 0 -79 l -33 -79 l -33 19 l 35 19 l 35 -54 q 106 -69 82 -54 q 131 -119 131 -85 q 96 -187 131 -171 q -11 -204 61 -204 z "},"̨":{"ha":0,"x_min":-108,"x_max":108,"o":"m 14 -204 q -76 -182 -43 -204 q -108 -118 -108 -160 q -3 6 -108 -44 l 58 6 q 10 -81 10 -32 q 24 -109 10 -99 q 58 -119 38 -119 q 92 -116 81 -119 q 108 -111 104 -112 l 108 -189 q 65 -201 85 -199 q 14 -204 44 -204 z "},"̵":{"ha":0,"x_min":-149,"x_max":149,"o":"m -149 551 l 149 551 l 149 421 l -149 421 l -149 551 z "},"̶":{"ha":0,"x_min":-290,"x_max":290,"o":"m -290 549 l 290 549 l 290 424 l -290 424 l -290 549 z "},"̷":{"ha":0,"x_min":-232,"x_max":232,"o":"m -232 -10 l 163 1011 l 232 982 l -162 -39 l -232 -10 z "},"̸":{"ha":0,"x_min":-246,"x_max":246,"o":"m -246 0 l 163 1008 l 246 972 l -162 -36 l -246 0 z "},"´":{"ha":694,"x_min":264,"x_max":528,"o":"m 361 1197 l 528 1197 l 379 1038 l 264 1038 l 361 1197 z "},"˘":{"ha":694,"x_min":183,"x_max":511,"o":"m 346 1032 q 228 1075 269 1032 q 183 1197 186 1118 l 274 1197 q 297 1145 279 1160 q 346 1131 314 1131 q 397 1145 379 1131 q 421 1197 415 1160 l 511 1197 q 466 1076 508 1119 q 346 1032 424 1032 z "},"ˇ":{"ha":694,"x_min":161,"x_max":533,"o":"m 161 1197 l 276 1197 l 347 1121 l 418 1197 l 533 1197 l 419 1038 l 275 1038 l 161 1197 z "},"¸":{"ha":694,"x_min":210,"x_max":485,"o":"m 343 -204 q 244 -186 279 -204 q 210 -124 210 -168 l 210 -110 l 313 -110 l 313 -121 q 322 -142 313 -135 q 343 -149 331 -149 q 371 -141 363 -149 q 379 -115 379 -133 q 367 -87 379 -96 q 328 -79 354 -79 l 321 -79 l 321 19 l 389 19 l 389 -54 q 460 -69 436 -54 q 485 -119 485 -85 q 450 -187 485 -171 q 343 -204 415 -204 z "},"ˆ":{"ha":694,"x_min":161,"x_max":533,"o":"m 275 1197 l 419 1197 l 533 1038 l 418 1038 l 347 1114 l 276 1038 l 161 1038 l 275 1197 z "},"¨":{"ha":694,"x_min":172,"x_max":522,"o":"m 172 1179 l 308 1179 l 308 1038 l 172 1038 l 172 1179 m 386 1179 l 522 1179 l 522 1038 l 386 1038 l 386 1179 z "},"˙":{"ha":694,"x_min":278,"x_max":417,"o":"m 278 1179 l 417 1179 l 417 1038 l 278 1038 l 278 1179 z "},"`":{"ha":694,"x_min":167,"x_max":431,"o":"m 167 1197 l 333 1197 l 431 1038 l 315 1038 l 167 1197 z "},"˝":{"ha":694,"x_min":167,"x_max":625,"o":"m 264 1197 l 418 1197 l 274 1038 l 167 1038 l 264 1197 m 471 1197 l 625 1197 l 481 1038 l 374 1038 l 471 1197 z "},"¯":{"ha":694,"x_min":188,"x_max":507,"o":"m 188 1158 l 507 1158 l 507 1050 l 188 1050 l 188 1158 z "},"˛":{"ha":694,"x_min":239,"x_max":456,"o":"m 361 -204 q 272 -182 304 -204 q 239 -118 239 -160 q 344 6 239 -44 l 406 6 q 357 -81 357 -32 q 371 -109 357 -99 q 406 -119 385 -119 q 440 -116 428 -119 q 456 -111 451 -112 l 456 -189 q 412 -201 432 -199 q 361 -204 392 -204 z "},"˚":{"ha":694,"x_min":224,"x_max":471,"o":"m 347 1022 q 259 1058 294 1022 q 224 1144 224 1093 q 259 1231 224 1196 q 347 1267 294 1267 q 435 1231 400 1267 q 471 1144 471 1196 q 435 1058 471 1093 q 347 1022 400 1022 m 347 1096 q 379 1109 367 1096 q 392 1144 392 1122 q 379 1180 392 1167 q 347 1193 367 1193 q 315 1180 328 1193 q 303 1144 303 1167 q 315 1109 303 1122 q 347 1096 328 1096 z "},"˜":{"ha":694,"x_min":154,"x_max":540,"o":"m 154 1076 q 211 1165 181 1136 q 281 1193 242 1193 q 324 1186 306 1193 q 364 1167 343 1179 q 388 1154 376 1160 q 411 1149 400 1149 q 440 1161 428 1149 q 467 1203 453 1174 l 540 1158 q 483 1070 514 1099 q 414 1042 453 1042 q 370 1049 389 1042 q 331 1068 351 1056 q 306 1081 318 1075 q 283 1086 294 1086 q 254 1074 267 1086 q 228 1032 242 1061 l 154 1076 z "},"":{"ha":694,"x_min":0,"x_max":0,"o":""},"":{"ha":694,"x_min":0,"x_max":0,"o":""},"":{"ha":694,"x_min":0,"x_max":0,"o":""}}}
